<svg>

<symbol id="top-section-vk" width="22" height="22" viewBox="0 0 22 22" fill="none" xmlns="http://www.w3.org/2000/svg">
<rect opacity="0.432" width="21.3043" height="21.3043" fill="#0266C1"/>
<path d="M16.8931 13.6836C16.8608 13.6296 16.6613 13.196 15.7012 12.305C14.6961 11.3719 14.8311 11.5234 16.0417 9.91003C16.779 8.92745 17.0738 8.32741 16.9816 8.07089C16.8938 7.82637 16.3515 7.89088 16.3515 7.89088L14.5484 7.90138C14.5484 7.90138 14.4149 7.88337 14.3151 7.94263C14.2184 8.00113 14.1561 8.13614 14.1561 8.13614C14.1561 8.13614 13.8703 8.8967 13.4893 9.54325C12.686 10.9076 12.3642 10.9796 12.233 10.8948C11.9277 10.6976 12.0042 10.1013 12.0042 9.67826C12.0042 8.35591 12.2045 7.80462 11.6134 7.66211C11.4169 7.61485 11.2729 7.58335 10.7711 7.5781C10.1275 7.57135 9.58226 7.58035 9.27398 7.73111C9.06847 7.83162 8.91021 8.05589 9.00696 8.06864C9.12622 8.08439 9.39624 8.14139 9.5395 8.33641C9.72477 8.58768 9.71802 9.15322 9.71802 9.15322C9.71802 9.15322 9.82453 10.7096 9.46975 10.9031C9.22598 11.0359 8.89221 10.7651 8.1759 9.52675C7.80913 8.89295 7.53161 8.19165 7.53161 8.19165C7.53161 8.19165 7.47835 8.06114 7.38309 7.99138C7.26759 7.90663 7.10557 7.87962 7.10557 7.87962L5.39095 7.89013C5.39095 7.89013 5.13368 7.89763 5.03917 8.00938C4.95516 8.10914 5.03242 8.31466 5.03242 8.31466C5.03242 8.31466 6.37502 11.4551 7.89463 13.0385C9.28899 14.4899 10.8716 14.3946 10.8716 14.3946H11.5887C11.5887 14.3946 11.8054 14.3706 11.9157 14.2513C12.0177 14.1418 12.0139 13.9363 12.0139 13.9363C12.0139 13.9363 11.9997 12.974 12.4467 12.8322C12.887 12.6927 13.4525 13.7623 14.0518 14.1741C14.5049 14.4854 14.8491 14.4171 14.8491 14.4171L16.452 14.3946C16.452 14.3946 17.2906 14.3429 16.8931 13.6836Z" fill="white"/>
</symbol>

<symbol id="top-section-fb" width="22" height="22" viewBox="0 0 22 22" fill="none" xmlns="http://www.w3.org/2000/svg">
<rect opacity="0.432" x="0.347656" width="21.3043" height="21.3043" fill="#0266C1"/>
<path d="M11.6657 8.98786V7.65633C11.6657 7.28883 11.964 6.99057 12.3315 6.99057H12.9972V5.32617H11.6657C10.5626 5.32617 9.66844 6.22029 9.66844 7.32345V8.98786H8.33691V10.6523H9.66844V15.9783H11.6657V10.6523H12.9972L13.663 8.98786H11.6657Z" fill="white"/>
</symbol>

<symbol id="top-section-insta" width="22" height="22" viewBox="0 0 22 22" fill="none" xmlns="http://www.w3.org/2000/svg">
<rect opacity="0.432" x="0.695801" width="21.3043" height="21.3043" fill="#0266C1"/>
<path d="M14.4124 4H8.58745C6.60933 4 5 5.60941 5 7.58753V13.4125C5 15.3907 6.60933 17 8.58745 17H14.4124C16.3907 17 18 15.3906 18 13.4125V7.58753C18.0001 5.60941 16.3907 4 14.4124 4ZM16.8467 13.4125C16.8467 14.7547 15.7547 15.8466 14.4125 15.8466H8.58745C7.24533 15.8467 6.15342 14.7547 6.15342 13.4125V7.58753C6.15342 6.24541 7.24533 5.15342 8.58745 5.15342H14.4124C15.7546 5.15342 16.8466 6.24541 16.8466 7.58753L16.8467 13.4125Z" fill="white"/>
<path d="M11.5001 7.15033C9.65297 7.15033 8.1503 8.65301 8.1503 10.5001C8.1503 12.3471 9.65297 13.8497 11.5001 13.8497C13.3471 13.8497 14.8498 12.3471 14.8498 10.5001C14.8498 8.65301 13.3471 7.15033 11.5001 7.15033ZM11.5001 12.6962C10.289 12.6962 9.30372 11.7111 9.30372 10.5C9.30372 9.28893 10.289 8.30368 11.5001 8.30368C12.7112 8.30368 13.6964 9.28893 13.6964 10.5C13.6964 11.7111 12.7111 12.6962 11.5001 12.6962Z" fill="white"/>
<path d="M14.9903 6.1724C14.768 6.1724 14.5497 6.26236 14.3928 6.41999C14.235 6.57686 14.1444 6.79524 14.1444 7.01823C14.1444 7.24053 14.2351 7.45883 14.3928 7.61646C14.5496 7.77333 14.768 7.86406 14.9903 7.86406C15.2133 7.86406 15.4309 7.77333 15.5885 7.61646C15.7462 7.45883 15.8362 7.24045 15.8362 7.01823C15.8362 6.79524 15.7462 6.57686 15.5885 6.41999C15.4317 6.26236 15.2133 6.1724 14.9903 6.1724Z" fill="white"/>
</symbol>



<symbol id='logo-1' width="62" height="62" viewBox="0 0 62 62" fill="none" xmlns="http://www.w3.org/2000/svg">
<path d="M38.4033 13.5742L30.3543 21.7596L35.6749 27.2166L38.4033 24.4881L53.3418 39.3583C49.9312 48.4305 41.2 54.9106 30.9 54.9106C17.6669 54.9106 6.95762 44.2014 6.95762 30.9682C7.02583 17.7351 17.7351 7.02583 30.9682 7.02583C42.7007 7.02583 52.5232 15.5523 54.5014 26.6709L61.7318 34.3106C61.8683 33.2192 61.9365 32.0596 61.9365 30.9682C61.9365 22.7146 58.7305 14.9384 52.8643 9.07219C46.998 3.20596 39.2219 0 30.9682 0C22.6464 0 14.9384 3.20596 9.07219 9.07219C3.20596 14.9384 0 22.6464 0 30.9682C0 39.2901 3.20596 46.998 9.07219 52.8643C14.9384 58.7305 22.7146 61.9365 30.9682 61.9365C39.2219 61.9365 46.998 58.7305 52.8643 52.8643C56.4795 49.249 59.0716 44.9517 60.504 40.2451C60.7769 39.4265 60.9815 38.5398 61.1861 37.7212L54.9106 31.1047L38.4033 13.5742Z" fill="white"/>
</symbol>

<symbol id='logo-2' width="35" height="18" viewBox="0 0 35 18" fill="none" xmlns="http://www.w3.org/2000/svg">
<path d="M11.7825 17.1768L17.2395 11.447L23.4468 17.1768H34.0878L17.1713 0.601318L0.391113 17.1768H11.7825Z" fill="white"/>
</symbol>

<symbol id="back-button" width="37" height="35" viewBox="0 0 37 35" fill="none" xmlns="http://www.w3.org/2000/svg">
<rect width="37" height="35" fill="#0266C1"/>
<path d="M11.6464 18.3536C11.4512 18.1583 11.4512 17.8417 11.6464 17.6464L14.8284 14.4645C15.0237 14.2692 15.3403 14.2692 15.5355 14.4645C15.7308 14.6597 15.7308 14.9763 15.5355 15.1716L12.7071 18L15.5355 20.8284C15.7308 21.0237 15.7308 21.3403 15.5355 21.5355C15.3403 21.7308 15.0237 21.7308 14.8284 21.5355L11.6464 18.3536ZM25 18.5H12V17.5H25V18.5Z" fill="white"/>
</symbol>

<symbol id="next-button" width="37" height="35" viewBox="0 0 37 35" fill="none" xmlns="http://www.w3.org/2000/svg">
<rect width="37" height="35" fill="#0266C1"/>
<path d="M26.3536 18.3536C26.5488 18.1583 26.5488 17.8417 26.3536 17.6464L23.1716 14.4645C22.9763 14.2692 22.6597 14.2692 22.4645 14.4645C22.2692 14.6597 22.2692 14.9763 22.4645 15.1716L25.2929 18L22.4645 20.8284C22.2692 21.0237 22.2692 21.3403 22.4645 21.5355C22.6597 21.7308 22.9763 21.7308 23.1716 21.5355L26.3536 18.3536ZM13 18.5H26V17.5H13V18.5Z" fill="white"/>
</symbol>

<symbol id='map' width="25" height="25" viewBox="0 0 25 25" fill="none" xmlns="http://www.w3.org/2000/svg">
<path d="M24.1702 22.2803V6.70123C24.1821 6.44571 23.9845 6.22897 23.7291 6.2171C23.6746 6.21456 23.6201 6.22168 23.5681 6.23812V6.26127L21.4841 6.91426C21.7023 6.33016 21.8319 5.71665 21.8685 5.09423C21.8685 2.28077 19.5878 0 16.7743 0C13.9608 0 11.6801 2.28077 11.6801 5.09423C11.7126 5.68754 11.8327 6.27279 12.0367 6.8309L8.5911 5.59902C8.5511 5.5941 8.51069 5.5941 8.47069 5.59902H8.43364C8.37813 5.60001 8.32319 5.61101 8.27155 5.63144L1.12574 8.41011C0.960927 8.47281 0.846018 8.62361 0.829346 8.79913V16.246V24.3967C0.830098 24.6525 1.03804 24.8592 1.29385 24.8585C1.3504 24.8583 1.40644 24.8478 1.45918 24.8274L8.44291 22.1229L16.4084 24.9756C16.5046 25.0081 16.6087 25.0081 16.7048 24.9756L23.846 22.7434C24.0467 22.6806 24.1798 22.4904 24.1702 22.2803ZM16.7743 0.926224C19.0762 0.926224 20.9423 2.79228 20.9423 5.09423C20.9423 6.905 18.2238 11.9066 16.7743 14.3565C15.3248 11.8881 12.6063 6.88184 12.6063 5.09423C12.6063 2.79228 14.4723 0.926224 16.7743 0.926224ZM23.2579 21.9608L17.0244 23.9105V20.3769C17.0244 20.1212 16.817 19.9138 16.5613 19.9138C16.3055 19.9138 16.0981 20.1212 16.0981 20.3769V23.8781L8.90139 21.3032V18.3392C8.90139 18.0835 8.69403 17.8761 8.43828 17.8761C8.18252 17.8761 7.97516 18.0835 7.97516 18.3392V21.3032L1.75557 23.7252V16.5655L4.04334 15.6393C4.28816 15.5652 4.42651 15.3067 4.35241 15.0618C4.27831 14.817 4.01978 14.6787 3.77497 14.7528C3.74938 14.7605 3.72449 14.7705 3.70058 14.7825L1.75551 15.5652V9.11867L7.97511 6.71049V8.09983C7.97511 8.35558 8.18246 8.56294 8.43822 8.56294C8.69397 8.56294 8.90133 8.35558 8.90133 8.09983V6.69197L12.4534 7.96553C13.5925 10.5687 14.9029 13.0936 16.376 15.5235C16.5086 15.7422 16.7934 15.8119 17.0121 15.6793C17.0758 15.6407 17.1292 15.5872 17.1679 15.5235C18.6337 13.1079 19.9394 10.5985 21.0765 8.01184L23.2439 7.33106L23.2578 14.9215L20.9098 15.4911C20.6541 15.5218 20.4716 15.754 20.5023 16.0098C20.533 16.2655 20.7652 16.448 21.021 16.4173C21.0579 16.4218 21.0952 16.4218 21.1321 16.4173L23.2578 15.8986V21.9608H23.2579Z" fill="#2D383F"/>
</symbol>

<symbol id='skate' width="24" height="22" viewBox="0 0 24 22" fill="none" xmlns="http://www.w3.org/2000/svg">
<path d="M23.6583 14.6155C24.404 12.2804 23.7904 9.63006 23.1385 7.79353C23.1342 7.72248 23.1123 7.65361 23.0746 7.59326C22.853 6.99671 22.6484 6.50669 22.4737 6.15302C22.7953 6.02497 23.0075 5.71508 23.0106 5.36898V1.8195C23.0106 1.34881 22.6291 0.967282 22.1584 0.967282H11.6889C11.4536 0.966856 11.2625 1.15727 11.2621 1.39264C11.2621 1.40143 11.2624 1.41022 11.2628 1.41896C11.4077 3.9756 11.2202 5.70986 10.6791 6.93279C10.6683 6.94494 10.6583 6.95777 10.6492 6.97114C10.6476 6.9924 10.6476 7.01381 10.6492 7.03506C10.4427 7.48024 10.1633 7.88775 9.82259 8.24095L9.78424 8.26651C9.78424 8.26651 9.78424 8.26651 9.78424 8.29634C9.28468 8.77278 8.70853 9.16171 8.07981 9.44683C6.98439 9.93286 5.86021 10.3512 4.71355 10.6996L4.49624 10.772C0.512129 12.093 -0.00772321 14.4877 0.000798953 15.6893C-0.000266318 15.7064 -0.000266318 15.7234 0.000798953 15.7404V18.7829C0.00143811 18.9309 0.07883 19.068 0.205331 19.145C1.18176 19.7391 2.23574 20.1951 3.33723 20.5001C3.56375 20.5638 3.79907 20.4318 3.86278 20.2052C3.87476 20.1625 3.88003 20.1182 3.87838 20.074V19.976H4.50476V20.4021C4.50204 20.6131 4.65433 20.7944 4.86269 20.8282C5.23341 20.8878 5.60412 20.9347 5.96631 20.9645C6.08498 20.9745 6.20243 20.9343 6.29015 20.8537C6.37783 20.7724 6.42731 20.658 6.42651 20.5384V20.0015H7.05289V20.6066C7.05289 20.8419 7.24368 21.0327 7.479 21.0327C7.83693 21.0327 8.19486 21.0327 8.57835 20.9816C8.8003 20.9638 8.97107 20.7781 8.97037 20.5555V20.0015H9.59675V20.3765C9.59372 20.6118 9.782 20.8051 10.0173 20.8081C10.042 20.8084 10.0666 20.8066 10.091 20.8026C10.8732 20.6828 11.6442 20.499 12.3963 20.2529L12.4645 20.2231C15.4472 18.5187 17.3391 19.9206 17.4158 19.9802C17.4902 20.038 17.5816 20.0694 17.6758 20.0697H18.2041C18.4395 20.0697 18.6302 19.8789 18.6302 19.6436V18.9235H19.2396V19.6351C19.2396 19.8704 19.4304 20.0612 19.6657 20.0612H21.0378C21.2731 20.0612 21.4639 19.8704 21.4639 19.6351V18.9235H22.0945V19.6351C22.0945 19.8704 22.2853 20.0612 22.5206 20.0612H23.5731C23.8084 20.0612 23.9992 19.8704 23.9992 19.6351V15.0416C24.0034 14.8359 23.8599 14.6566 23.6583 14.6155ZM13.5468 1.82802H13.8962H22.1371V5.35619H13.5468V1.82802ZM8.1906 10.3246L8.19486 10.3502C8.54416 10.6338 8.86651 10.949 9.15786 11.2919C9.08058 11.4204 9.04073 11.568 9.04281 11.718C9.03988 12.1675 9.40191 12.5342 9.85135 12.5371C10.3008 12.5401 10.6676 12.178 10.6705 11.7286C10.6733 11.3051 10.3509 10.9504 9.92912 10.9126C9.6596 10.5452 9.35254 10.2067 9.01298 9.90277C9.39377 9.68604 9.75202 9.43197 10.0825 9.14429C10.4958 9.532 10.8803 9.94927 11.233 10.3928C11.0848 10.8171 11.3086 11.2813 11.7329 11.4296C12.1572 11.5778 12.6214 11.354 12.7697 10.9297C12.9179 10.5053 12.6941 10.0412 12.2698 9.89291C12.1817 9.86213 12.0891 9.84673 11.9957 9.84737H11.8935C11.5197 9.37684 11.1125 8.93396 10.6748 8.52218C10.8779 8.2721 11.0576 8.00398 11.2117 7.72109C11.8714 8.06448 12.5089 8.44873 13.1207 8.87159C13.1165 9.32576 13.4813 9.69733 13.9354 9.70154C14.3896 9.70575 14.7612 9.34094 14.7654 8.88677C14.7696 8.43259 14.4048 8.06102 13.9506 8.05681C13.8209 8.05559 13.6927 8.0851 13.5766 8.14294C12.9327 7.70703 12.2624 7.31144 11.5696 6.95836C12.0341 5.72265 12.2344 4.08213 12.1406 1.84506H12.6988V5.37324C12.6988 5.84393 13.0803 6.22545 13.551 6.22545H21.5363C21.6471 6.45129 21.8346 6.84331 22.0391 7.35464H21.8644C19.2758 7.37334 17.1925 9.48694 17.2112 12.0755C17.2218 13.5465 17.9224 14.9272 19.1032 15.8044C15.656 16.712 10.4703 17.79 6.10693 17.5088C6.91227 14.2917 5.94927 12.3103 5.32289 11.441C6.2983 11.1211 7.25561 10.7484 8.1906 10.3246ZM4.46641 11.6839C4.92661 12.2251 6.12823 14.0445 5.24619 17.3895C3.71082 17.2688 2.2196 16.8182 0.874321 16.0685C0.859034 15.9712 0.849074 15.873 0.844493 15.7745V15.7447C0.810404 14.8371 1.15129 12.8727 4.46641 11.6839ZM22.9467 19.209V18.4974C22.9467 18.262 22.7559 18.0713 22.5206 18.0713H21.042C20.8067 18.0713 20.6159 18.262 20.6159 18.4974V19.209H20.0918V18.4974C20.0918 18.262 19.901 18.0713 19.6657 18.0713H18.1956C17.9603 18.0713 17.7695 18.262 17.7695 18.4974V19.1919C17.19 18.8297 15.0722 17.7772 12.0682 19.4561C11.5337 19.6325 10.9886 19.7748 10.4362 19.8822V19.5882C10.4362 19.3529 10.2454 19.1621 10.0101 19.1621H8.54C8.30469 19.1621 8.1139 19.3529 8.1139 19.5882V20.172H7.89658V19.5754C7.89658 19.3401 7.70579 19.1493 7.47047 19.1493H5.99188C5.75656 19.1493 5.56577 19.3401 5.56577 19.5754V20.0825L5.34846 20.0527V19.5754C5.34846 19.3401 5.15767 19.1493 4.92235 19.1493H3.44375C3.22702 19.1478 3.04364 19.3091 3.01764 19.5243C2.26136 19.2753 1.53308 18.9482 0.844493 18.5485V17.023C2.70232 18.0073 5.10557 18.3781 7.66222 18.3781C14.4544 18.3781 22.2266 15.7788 23.1427 15.4677L23.147 19.209H22.9467V19.209ZM22.7379 14.7135C22.3757 14.8328 21.4852 15.1396 20.2537 15.4677C18.3473 14.5451 17.5497 12.2516 18.4724 10.3451C19.1036 9.04102 20.4158 8.20393 21.8644 8.18129C22.0324 8.17895 22.2003 8.18747 22.3672 8.20686L22.3715 8.21964C22.9979 10.0263 23.5603 12.6043 22.7379 14.7135Z" fill="#2D383F"/>
</symbol>

<symbol id='tree' width="23" height="23" viewBox="0 0 23 23" fill="none" xmlns="http://www.w3.org/2000/svg">
<path d="M22.6246 16.6366L18.1102 11.4721H20.2913C20.546 11.4714 20.7519 11.2645 20.7514 11.0098C20.7511 10.9085 20.7175 10.81 20.6556 10.7297L17.0312 5.96629H18.8757C19.1304 5.96595 19.3365 5.75925 19.3363 5.5046C19.3361 5.39278 19.2953 5.28482 19.2215 5.20083L14.7856 0.156187C14.6172 -0.0348313 14.3257 -0.0531031 14.1347 0.115378C14.1202 0.128117 14.1066 0.141778 14.0939 0.156187L9.65332 5.19622C9.4827 5.38528 9.49763 5.67688 9.68663 5.8475C9.77229 5.92479 9.88376 5.96716 9.99916 5.96629H11.8667L10.7508 7.42343L7.76273 4.02498C7.5943 3.83396 7.30288 3.81569 7.11186 3.98417C7.09739 3.99691 7.08379 4.01057 7.07105 4.02498L3.27604 8.33645C3.10796 8.52775 3.12681 8.81912 3.31811 8.9872C3.40209 9.06098 3.51005 9.10173 3.62188 9.10191H5.08362L2.04946 13.0721C1.89919 13.2777 1.94398 13.5662 2.14958 13.7166C2.22636 13.7727 2.31864 13.8037 2.41374 13.8053H4.11988L0.370984 18.1168C0.205442 18.3103 0.228094 18.6014 0.421649 18.767C0.503959 18.8374 0.608518 18.8766 0.716823 18.8776H5.8168V22.1055C5.8168 22.5995 6.21734 23 6.71138 23H8.11779C8.61182 23.0026 9.01444 22.6042 9.01697 22.1101C9.01697 22.1085 9.01697 22.107 9.01697 22.1055V18.8776H12.8443V22.1055C12.8443 22.5995 13.2448 23 13.7388 23H15.1453C15.6393 23 16.0398 22.5995 16.0398 22.1055V17.4021H22.2788C22.5334 17.4017 22.7396 17.195 22.7393 16.9404C22.7391 16.8285 22.6984 16.7206 22.6246 16.6366ZM8.09473 22.0778L6.73904 22.1055L6.71138 18.8776H8.09473V22.0778ZM12.8443 17.9554H1.73129L5.50324 13.6532C5.67397 13.4642 5.65916 13.1726 5.47021 13.0019C5.38214 12.9223 5.2668 12.8798 5.14818 12.8831H3.34981L6.38398 8.91285C6.53932 8.71105 6.50168 8.42152 6.29988 8.26618C6.21953 8.20434 6.12109 8.17067 6.0197 8.17044H4.63634L7.40306 5.021L10.1698 8.16122L8.22385 10.7343C8.06851 10.9361 8.10615 11.2256 8.30795 11.3809C8.3883 11.4428 8.48674 11.4764 8.58813 11.4767H10.7738L6.25948 16.6412C6.0914 16.8325 6.11025 17.1239 6.30156 17.292C6.38554 17.3657 6.4935 17.4065 6.60532 17.4067H12.8443V17.9554ZM15.1176 22.0686L13.7665 22.1055L13.7388 17.4021H15.1222L15.1176 22.0686ZM15.1453 16.4798H7.61978L12.1341 11.3153C12.3022 11.124 12.2834 10.8326 12.0921 10.6645C12.0081 10.5907 11.9001 10.55 11.7883 10.5498H9.52421L13.167 5.78185C13.3199 5.57815 13.2786 5.28908 13.0749 5.13628C12.9963 5.07737 12.901 5.04503 12.8028 5.04405H11.0367L14.4582 1.16143L17.8612 5.04405H16.0813C15.8267 5.04469 15.6207 5.25162 15.6213 5.50627C15.6215 5.60766 15.6552 5.70611 15.717 5.78646L19.3368 10.5498H17.0912C16.8365 10.5502 16.6303 10.7569 16.6306 11.0115C16.6307 11.1233 16.6716 11.2313 16.7453 11.3153L21.2597 16.4798H15.1453Z" fill="#2D383F"/>
</symbol>

<symbol id='mount' width="24" height="20" viewBox="0 0 24 20" fill="none" xmlns="http://www.w3.org/2000/svg">
<path d="M23.4153 19.1881L19.3747 9.79026L15.5583 0.907601C15.4551 0.6652 15.1749 0.552438 14.9325 0.655659C14.8192 0.703961 14.7289 0.794242 14.6806 0.907601L11.2744 8.8123L9.93871 11.9179L7.00963 5.15811C6.90634 4.91571 6.62614 4.80295 6.3838 4.90617C6.27044 4.95447 6.18016 5.04475 6.13186 5.15811L3.37928 11.5172L0.0399368 19.1834C-0.0654315 19.4248 0.0448861 19.706 0.286333 19.8114C0.347037 19.8379 0.412572 19.8515 0.478822 19.8512H22.9765C23.2399 19.851 23.4533 19.6373 23.4531 19.3738C23.4531 19.31 23.4402 19.2469 23.4153 19.1881ZM15.1147 2.29581L18.2107 9.49448H17.1231L15.1576 7.32391C14.9804 7.12892 14.6787 7.11455 14.4837 7.29177C14.4531 7.31956 14.4263 7.35122 14.4039 7.38593L13.6692 8.5213H12.4384L15.1147 2.29581ZM6.57074 6.53201L9.018 12.1898H7.68226C7.52007 12.1901 7.36914 12.2728 7.28154 12.4093L6.80449 13.1678L5.57371 11.4313C5.48474 11.303 5.33864 11.2264 5.18253 11.2262H4.54805L6.57074 6.53201ZM1.22779 18.8971L4.13302 12.1803H4.93446L6.42285 14.3031C6.51182 14.4314 6.65792 14.508 6.81403 14.5083C6.97283 14.5048 7.11947 14.4225 7.20522 14.2888L7.93987 13.1535H9.42826L11.9137 18.878L1.22779 18.8971ZM12.9584 18.8971L10.4587 13.1248L12.0282 9.4754H13.9364C14.0986 9.4751 14.2495 9.39246 14.3371 9.25596L14.8666 8.44021L16.5554 10.3055C16.6455 10.4054 16.7738 10.4626 16.9084 10.4629H18.6162L22.2466 18.9114L12.9584 18.8971Z" fill="#2D383F"/>
</symbol>

<symbol id='left' width="37" height="35" viewBox="0 0 37 35" fill="none" xmlns="http://www.w3.org/2000/svg">
<rect width="37" height="35" fill="#0266C1"/>
</symbol>

<symbol id='right' width="37" height="35" viewBox="0 0 37 35" fill="none" xmlns="http://www.w3.org/2000/svg">
<rect width="37" height="35" fill="#0266C1"/>
</symbol>

<symbol id='sun' width="23" height="22" viewBox="0 0 23 22" fill="none" xmlns="http://www.w3.org/2000/svg">
<path d="M15.655 7.10055C14.6779 6.11113 13.2984 5.47092 11.8039 5.47092C10.3095 5.47092 8.93 6.08203 7.95286 7.10055C6.97571 8.08996 6.34345 9.48679 6.34345 11C6.34345 12.5132 6.97571 13.9101 7.95286 14.8995C8.93 15.8889 10.3095 16.5291 11.8039 16.5291C13.2984 16.5291 14.6779 15.918 15.655 14.8995C16.6322 13.9101 17.2645 12.5132 17.2645 11C17.2645 9.48679 16.6609 8.08996 15.655 7.10055ZM14.6204 13.8519C13.9019 14.5794 12.896 15.0159 11.8039 15.0159C10.7118 15.0159 9.70597 14.5794 8.98748 13.8519C8.26899 13.1243 7.8379 12.1058 7.8379 11C7.8379 9.89419 8.26899 8.87568 8.98748 8.14817C9.70597 7.42065 10.7118 6.98415 11.8039 6.98415C12.896 6.98415 13.9019 7.42065 14.6204 8.14817C15.3389 8.87568 15.77 9.89419 15.77 11C15.77 12.1058 15.3389 13.1243 14.6204 13.8519Z" fill="white"/>
<path d="M21.9202 10.2434H19.7073C19.305 10.2434 18.9601 10.5926 18.9601 11C18.9601 11.4074 19.305 11.7566 19.7073 11.7566H21.9202C22.3226 11.7566 22.6675 11.4074 22.6675 11C22.6675 10.5926 22.3226 10.2434 21.9202 10.2434Z" fill="white"/>
<path d="M11.8039 18.246C11.4016 18.246 11.0567 18.5952 11.0567 19.0026V21.2434C11.0567 21.6508 11.4016 22 11.8039 22C12.2063 22 12.5512 21.6508 12.5512 21.2434V19.0026C12.5512 18.5952 12.2063 18.246 11.8039 18.246Z" fill="white"/>
<path d="M19.4774 17.7222L17.8967 16.1216C17.6381 15.8306 17.1495 15.8306 16.8621 16.1216C16.5747 16.4126 16.5747 16.8782 16.8621 17.1693L18.4428 18.7698C18.7302 19.0608 19.19 19.0608 19.4774 18.7698C19.7648 18.4788 19.7648 18.0132 19.4774 17.7222Z" fill="white"/>
<path d="M11.8039 0C11.4016 0 11.0567 0.349205 11.0567 0.756611V2.99735C11.0567 3.40475 11.4016 3.75396 11.8039 3.75396C12.2063 3.75396 12.5512 3.40475 12.5512 2.99735V0.756611C12.5512 0.349205 12.2063 0 11.8039 0Z" fill="white"/>
<path d="M19.5061 3.23018C19.2187 2.93918 18.7589 2.93918 18.4715 3.23018L16.8908 4.8307C16.6034 5.12171 16.6034 5.58732 16.8908 5.87832C17.1495 6.16932 17.6381 6.16932 17.9255 5.87832L19.5061 4.2778C19.7935 3.98679 19.7935 3.52118 19.5061 3.23018Z" fill="white"/>
<path d="M3.9006 10.2434H1.68766C1.2853 10.2434 0.94043 10.5926 0.94043 11C0.94043 11.4074 1.25656 11.7566 1.68766 11.7566H3.9006C4.30295 11.7566 4.64782 11.4074 4.64782 11C4.64782 10.5926 4.30295 10.2434 3.9006 10.2434Z" fill="white"/>
<path d="M6.71707 16.1216C6.45841 15.8306 5.96984 15.8306 5.68245 16.1216L4.10177 17.7222C3.81438 18.0132 3.81438 18.4788 4.10177 18.7698C4.38917 19.0608 4.849 19.0608 5.1364 18.7698L6.71707 17.1693C7.00446 16.8782 7.00446 16.4126 6.71707 16.1216Z" fill="white"/>
<path d="M6.71707 4.8307L5.1364 3.23018C4.849 2.93918 4.38917 2.93918 4.10177 3.23018C3.81438 3.52118 3.81438 3.98679 4.10177 4.2778L5.68245 5.87832C5.96984 6.16932 6.42967 6.16932 6.71707 5.87832C7.00446 5.58732 7.00446 5.12171 6.71707 4.8307Z" fill="white"/>
</symbol>

<symbol id='moon' width="20" height="20" viewBox="0 0 20 20" fill="none" xmlns="http://www.w3.org/2000/svg">
<path d="M19.5272 11.382C19.3228 11.3307 19.1183 11.382 18.9394 11.5103C18.2748 12.0745 17.5081 12.5362 16.6646 12.844C15.8723 13.1518 15.0033 13.3057 14.0831 13.3057C12.0128 13.3057 10.1215 12.4593 8.76681 11.0999C7.41217 9.74052 6.56872 7.84251 6.56872 5.76497C6.56872 4.89291 6.72207 4.0465 6.97767 3.27704C7.25882 2.45628 7.66777 1.71247 8.20451 1.07125C8.43454 0.789119 8.38343 0.378739 8.10227 0.147901C7.92336 0.0196574 7.71888 -0.0316401 7.51441 0.0196573C5.34188 0.609578 3.4505 1.91766 2.09586 3.66177C0.792336 5.38024 0 7.50908 0 9.84311C0 12.6388 1.12461 15.178 2.96487 17.0247C4.80513 18.8715 7.3355 20 10.1215 20C12.4729 20 14.6454 19.1792 16.3835 17.8199C18.147 16.4348 19.425 14.4599 19.9618 12.2028C20.0895 11.8181 19.8851 11.459 19.5272 11.382ZM15.6167 16.7426C14.1342 17.9225 12.2429 18.6406 10.1726 18.6406C7.74444 18.6406 5.54635 17.6403 3.96168 16.0501C2.37701 14.4599 1.3802 12.2541 1.3802 9.81746C1.3802 7.79122 2.04474 5.94451 3.1949 4.45688C3.98724 3.43094 4.98405 2.58453 6.13421 1.99461C6.00642 2.27674 5.87862 2.55888 5.77638 2.86666C5.44411 3.79002 5.29076 4.76467 5.29076 5.79062C5.29076 8.22724 6.28757 10.4587 7.87224 12.0489C9.45691 13.6391 11.6806 14.6394 14.1087 14.6394C15.1822 14.6394 16.2045 14.4599 17.1502 14.1008C17.4825 13.9726 17.8148 13.8443 18.1215 13.6904C17.5081 14.8703 16.6646 15.9219 15.6167 16.7426Z" fill="white"/>
</symbol>

<symbol id='caucasus' width="115" height="29" viewBox="0 0 115 29" fill="none" xmlns="http://www.w3.org/2000/svg">
<rect width="114.561" height="29" fill="#0266C1"/>
<path d="M42.3358 15.688H40.2918V20H38.9198V10.2H40.2918V14.456H42.3638L45.4438 10.2H46.9418L43.4418 14.946L47.1098 20H45.5138L42.3358 15.688ZM51.0625 12.51C52.0892 12.51 52.8732 12.762 53.4145 13.266C53.9652 13.77 54.2405 14.5213 54.2405 15.52V20H52.9665V19.02C52.7425 19.3653 52.4205 19.6313 52.0005 19.818C51.5898 19.9953 51.0998 20.084 50.5305 20.084C49.6998 20.084 49.0325 19.8833 48.5285 19.482C48.0338 19.0807 47.7865 18.5533 47.7865 17.9C47.7865 17.2467 48.0245 16.724 48.5005 16.332C48.9765 15.9307 49.7325 15.73 50.7685 15.73H52.8965V15.464C52.8965 14.8853 52.7285 14.442 52.3925 14.134C52.0565 13.826 51.5618 13.672 50.9085 13.672C50.4698 13.672 50.0405 13.7467 49.6205 13.896C49.2005 14.036 48.8458 14.2273 48.5565 14.47L47.9965 13.462C48.3792 13.154 48.8365 12.9207 49.3685 12.762C49.9005 12.594 50.4652 12.51 51.0625 12.51ZM50.7545 19.048C51.2678 19.048 51.7112 18.936 52.0845 18.712C52.4578 18.4787 52.7285 18.152 52.8965 17.732V16.696H50.8245C49.6858 16.696 49.1165 17.0787 49.1165 17.844C49.1165 18.2173 49.2612 18.5113 49.5505 18.726C49.8398 18.9407 50.2412 19.048 50.7545 19.048ZM61.7146 16.15C62.676 16.3927 63.1566 16.9947 63.1566 17.956C63.1566 18.6093 62.9093 19.1133 62.4146 19.468C61.9293 19.8227 61.2013 20 60.2306 20H56.6606V12.58H60.1046C60.982 12.58 61.668 12.748 62.1626 13.084C62.6573 13.4107 62.9046 13.8773 62.9046 14.484C62.9046 14.876 62.7973 15.2167 62.5826 15.506C62.3773 15.786 62.088 16.0007 61.7146 16.15ZM57.9766 15.772H59.9926C60.506 15.772 60.8933 15.6787 61.1546 15.492C61.4253 15.3053 61.5606 15.0347 61.5606 14.68C61.5606 13.9707 61.038 13.616 59.9926 13.616H57.9766V15.772ZM60.1326 18.964C60.6926 18.964 61.1126 18.8753 61.3926 18.698C61.6726 18.5207 61.8126 18.2453 61.8126 17.872C61.8126 17.4893 61.682 17.2047 61.4206 17.018C61.1686 16.8313 60.7673 16.738 60.2166 16.738H57.9766V18.964H60.1326ZM68.1443 16.864H66.6043V20H65.2603V12.58H66.6043V15.716H68.1723L70.5803 12.58H72.0223L69.2083 16.15L72.2183 20H70.6363L68.1443 16.864ZM76.1367 12.51C77.1634 12.51 77.9474 12.762 78.4887 13.266C79.0394 13.77 79.3147 14.5213 79.3147 15.52V20H78.0407V19.02C77.8167 19.3653 77.4947 19.6313 77.0747 19.818C76.6641 19.9953 76.1741 20.084 75.6047 20.084C74.7741 20.084 74.1067 19.8833 73.6027 19.482C73.1081 19.0807 72.8607 18.5533 72.8607 17.9C72.8607 17.2467 73.0987 16.724 73.5747 16.332C74.0507 15.9307 74.8067 15.73 75.8427 15.73H77.9707V15.464C77.9707 14.8853 77.8027 14.442 77.4667 14.134C77.1307 13.826 76.6361 13.672 75.9827 13.672C75.5441 13.672 75.1147 13.7467 74.6947 13.896C74.2747 14.036 73.9201 14.2273 73.6307 14.47L73.0707 13.462C73.4534 13.154 73.9107 12.9207 74.4427 12.762C74.9747 12.594 75.5394 12.51 76.1367 12.51ZM75.8287 19.048C76.3421 19.048 76.7854 18.936 77.1587 18.712C77.5321 18.4787 77.8027 18.152 77.9707 17.732V16.696H75.8987C74.7601 16.696 74.1907 17.0787 74.1907 17.844C74.1907 18.2173 74.3354 18.5113 74.6247 18.726C74.9141 18.9407 75.3154 19.048 75.8287 19.048ZM85.6298 16.136C86.1245 16.2667 86.5071 16.4767 86.7778 16.766C87.0485 17.0553 87.1838 17.4147 87.1838 17.844C87.1838 18.2827 87.0345 18.6747 86.7358 19.02C86.4371 19.356 86.0218 19.622 85.4898 19.818C84.9671 20.0047 84.3791 20.098 83.7258 20.098C83.1751 20.098 82.6338 20.028 82.1018 19.888C81.5791 19.7387 81.1125 19.5287 80.7018 19.258L81.1078 18.236C81.4625 18.46 81.8685 18.6373 82.3258 18.768C82.7831 18.8893 83.2451 18.95 83.7118 18.95C84.3465 18.95 84.8505 18.8427 85.2238 18.628C85.6065 18.404 85.7978 18.1053 85.7978 17.732C85.7978 17.3867 85.6438 17.1207 85.3358 16.934C85.0371 16.7473 84.6125 16.654 84.0618 16.654H82.7038V15.688H83.9638C84.4678 15.688 84.8645 15.5993 85.1538 15.422C85.4431 15.2447 85.5878 15.002 85.5878 14.694C85.5878 14.358 85.4151 14.0967 85.0698 13.91C84.7338 13.7233 84.2765 13.63 83.6978 13.63C82.9605 13.63 82.1811 13.8213 81.3598 14.204L80.9958 13.168C81.9011 12.7107 82.8485 12.482 83.8378 12.482C84.4351 12.482 84.9718 12.566 85.4478 12.734C85.9238 12.902 86.2971 13.14 86.5678 13.448C86.8385 13.756 86.9738 14.106 86.9738 14.498C86.9738 14.862 86.8525 15.1887 86.6098 15.478C86.3671 15.7673 86.0405 15.9867 85.6298 16.136Z" fill="white"/>
<path d="M26.4998 9C24.0187 9 22 10.9819 22 13.418C22 14.0534 22.1325 14.6601 22.3935 15.2213C23.5186 17.6383 25.6757 20.1902 26.3102 20.9146C26.3577 20.9688 26.427 21 26.4999 21C26.5729 21 26.6422 20.9688 26.6897 20.9146C27.3239 20.1903 29.481 17.6386 30.6065 15.2213C30.8677 14.6601 31 14.0534 31 13.418C30.9998 10.9819 28.981 9 26.4998 9ZM26.4998 15.7127C25.211 15.7127 24.1623 14.6832 24.1623 13.4178C24.1623 12.1524 25.211 11.1229 26.4998 11.1229C27.7886 11.1229 28.8373 12.1524 28.8373 13.4178C28.8374 14.6832 27.7888 15.7127 26.4998 15.7127Z" fill="white"/>
</symbol>

<symbol id='ingushetia' width="115" height="29" viewBox="0 0 115 29" fill="none" xmlns="http://www.w3.org/2000/svg">
<rect width="114.561" height="29" fill="#0266C1"/>
<path d="M24.4161 10.2H25.8021V17.76L31.5981 10.2H32.8861V20H31.5141V12.454L25.7041 20H24.4161V10.2ZM35.7175 12.58H37.0615V15.73H41.2895V12.58H42.6335V20H41.2895V16.892H37.0615V20H35.7175V12.58ZM50.7068 13.756H46.5908V20H45.2468V12.58H50.7068V13.756ZM58.7458 12.58L55.1478 20.742C54.8304 21.498 54.4571 22.03 54.0278 22.338C53.6078 22.646 53.0991 22.8 52.5018 22.8C52.1378 22.8 51.7831 22.7393 51.4378 22.618C51.1018 22.506 50.8218 22.338 50.5978 22.114L51.1718 21.106C51.5544 21.47 51.9978 21.652 52.5018 21.652C52.8284 21.652 53.0991 21.5633 53.3138 21.386C53.5378 21.218 53.7384 20.924 53.9158 20.504L54.1538 19.986L50.8778 12.58H52.2778L54.8678 18.516L57.4298 12.58H58.7458ZM70.6918 12.58V20H60.1218V12.58H61.4658V18.824H64.7418V12.58H66.0858V18.824H69.3478V12.58H70.6918ZM80.0075 16.332C80.0075 16.4347 79.9982 16.57 79.9795 16.738H73.9595C74.0435 17.3913 74.3282 17.9187 74.8135 18.32C75.3082 18.712 75.9195 18.908 76.6475 18.908C77.5342 18.908 78.2482 18.6093 78.7895 18.012L79.5315 18.88C79.1955 19.272 78.7755 19.5707 78.2715 19.776C77.7768 19.9813 77.2215 20.084 76.6055 20.084C75.8215 20.084 75.1262 19.9253 74.5195 19.608C73.9128 19.2813 73.4415 18.8287 73.1055 18.25C72.7788 17.6713 72.6155 17.018 72.6155 16.29C72.6155 15.5713 72.7742 14.9227 73.0915 14.344C73.4182 13.7653 73.8615 13.3173 74.4215 13C74.9908 12.6733 75.6302 12.51 76.3395 12.51C77.0488 12.51 77.6788 12.6733 78.2295 13C78.7895 13.3173 79.2235 13.7653 79.5315 14.344C79.8488 14.9227 80.0075 15.5853 80.0075 16.332ZM76.3395 13.644C75.6955 13.644 75.1542 13.84 74.7155 14.232C74.2862 14.624 74.0342 15.1373 73.9595 15.772H78.7195C78.6448 15.1467 78.3882 14.638 77.9495 14.246C77.5202 13.8447 76.9835 13.644 76.3395 13.644ZM87.3081 13.756H84.5921V20H83.2481V13.756H80.5321V12.58H87.3081V13.756ZM88.6824 12.58H90.0264V17.984L94.5764 12.58H95.7944V20H94.4504V14.596L89.9144 20H88.6824V12.58ZM104.353 12.58V20H103.149V17.648H100.993H100.839L99.2151 20H97.7731L99.5791 17.466C99.0191 17.298 98.5897 17.0227 98.2911 16.64C97.9924 16.248 97.8431 15.7627 97.8431 15.184C97.8431 14.3347 98.1324 13.6907 98.7111 13.252C99.2897 12.804 100.088 12.58 101.105 12.58H104.353ZM99.2151 15.226C99.2151 15.7207 99.3691 16.0893 99.6771 16.332C99.9944 16.5653 100.466 16.682 101.091 16.682H103.149V13.756H101.147C99.8591 13.756 99.2151 14.246 99.2151 15.226Z" fill="white"/>
<path d="M12.4998 9C10.0187 9 8 10.9819 8 13.418C8 14.0534 8.13247 14.6601 8.39354 15.2213C9.51862 17.6383 11.6757 20.1902 12.3102 20.9146C12.3577 20.9688 12.427 21 12.4999 21C12.5729 21 12.6422 20.9688 12.6897 20.9146C13.3239 20.1903 15.481 17.6386 16.6065 15.2213C16.8677 14.6601 17 14.0534 17 13.418C16.9998 10.9819 14.981 9 12.4998 9ZM12.4998 15.7127C11.211 15.7127 10.1623 14.6832 10.1623 13.4178C10.1623 12.1524 11.211 11.1229 12.4998 11.1229C13.7886 11.1229 14.8373 12.1524 14.8373 13.4178C14.8374 14.6832 13.7888 15.7127 12.4998 15.7127Z" fill="white"/>
</symbol>

<symbol id='adygea' width="115" height="29" viewBox="0 0 115 29" fill="none" xmlns="http://www.w3.org/2000/svg">
<rect width="114.561" height="29" fill="#0266C1"/>
<path d="M45.2896 17.55H40.0816L39.0036 20H37.5616L41.9996 10.2H43.3856L47.8376 20H46.3676L45.2896 17.55ZM44.7996 16.43L42.6856 11.628L40.5716 16.43H44.7996ZM56.8919 18.824V21.722H55.6319V20H49.4299V21.722H48.1559V18.824H48.5479C49.0239 18.796 49.3506 18.46 49.5279 17.816C49.7053 17.172 49.8266 16.262 49.8919 15.086L50.0039 12.58H55.7579V18.824H56.8919ZM51.1239 15.184C51.0866 16.1173 51.0073 16.892 50.8859 17.508C50.7739 18.1147 50.5639 18.5533 50.2559 18.824H54.4139V13.756H51.1939L51.1239 15.184ZM61.9888 15.1C62.9222 15.1093 63.6362 15.324 64.1308 15.744C64.6255 16.164 64.8728 16.7567 64.8728 17.522C64.8728 18.3247 64.6022 18.9453 64.0608 19.384C63.5288 19.8133 62.7635 20.0233 61.7648 20.014L58.6428 20V12.58H59.9868V15.086L61.9888 15.1ZM65.9788 12.58H67.3228V20H65.9788V12.58ZM61.6668 18.992C62.2735 19.0013 62.7308 18.88 63.0388 18.628C63.3562 18.376 63.5148 18.0027 63.5148 17.508C63.5148 17.0227 63.3608 16.668 63.0528 16.444C62.7448 16.22 62.2828 16.1033 61.6668 16.094L59.9868 16.066V18.978L61.6668 18.992ZM75.3958 13.756H71.2798V20H69.9358V12.58H75.3958V13.756ZM83.1496 16.332C83.1496 16.4347 83.1403 16.57 83.1216 16.738H77.1016C77.1856 17.3913 77.4703 17.9187 77.9556 18.32C78.4503 18.712 79.0616 18.908 79.7896 18.908C80.6763 18.908 81.3903 18.6093 81.9316 18.012L82.6736 18.88C82.3376 19.272 81.9176 19.5707 81.4136 19.776C80.9189 19.9813 80.3636 20.084 79.7476 20.084C78.9636 20.084 78.2683 19.9253 77.6616 19.608C77.0549 19.2813 76.5836 18.8287 76.2476 18.25C75.9209 17.6713 75.7576 17.018 75.7576 16.29C75.7576 15.5713 75.9163 14.9227 76.2336 14.344C76.5603 13.7653 77.0036 13.3173 77.5636 13C78.1329 12.6733 78.7723 12.51 79.4816 12.51C80.1909 12.51 80.8209 12.6733 81.3716 13C81.9316 13.3173 82.3656 13.7653 82.6736 14.344C82.9909 14.9227 83.1496 15.5853 83.1496 16.332ZM79.4816 13.644C78.8376 13.644 78.2963 13.84 77.8576 14.232C77.4283 14.624 77.1763 15.1373 77.1016 15.772H81.8616C81.7869 15.1467 81.5303 14.638 81.0916 14.246C80.6623 13.8447 80.1256 13.644 79.4816 13.644ZM90.9795 12.58V20H89.7755V17.648H87.6195H87.4655L85.8415 20H84.3995L86.2055 17.466C85.6455 17.298 85.2162 17.0227 84.9175 16.64C84.6189 16.248 84.4695 15.7627 84.4695 15.184C84.4695 14.3347 84.7589 13.6907 85.3375 13.252C85.9162 12.804 86.7142 12.58 87.7315 12.58H90.9795ZM85.8415 15.226C85.8415 15.7207 85.9955 16.0893 86.3035 16.332C86.6209 16.5653 87.0922 16.682 87.7175 16.682H89.7755V13.756H87.7735C86.4855 13.756 85.8415 14.246 85.8415 15.226Z" fill="white"/>
<path d="M25.4998 8C23.0187 8 21 10.1471 21 12.7861C21 13.4745 21.1325 14.1317 21.3935 14.7397C22.5186 17.3582 24.6757 20.1227 25.3102 20.9075C25.3577 20.9662 25.427 21 25.4999 21C25.5729 21 25.6422 20.9662 25.6897 20.9075C26.3239 20.1228 28.481 17.3585 29.6065 14.7397C29.8677 14.1317 30 13.4745 30 12.7861C29.9997 10.1471 27.981 8 25.4998 8ZM25.4998 15.2721C24.211 15.2721 23.1623 14.1567 23.1623 12.786C23.1623 11.4151 24.211 10.2998 25.4998 10.2998C26.7886 10.2998 27.8373 11.4151 27.8373 12.786C27.8374 14.1567 26.7888 15.2721 25.4998 15.2721Z" fill="white"/>
</symbol>

<symbol id='1-days' width="64" height="22" viewBox="0 0 64 22" fill="none" xmlns="http://www.w3.org/2000/svg">
<path d="M37.4812 12.936H35.8852V15H34.7212V12.936H30.0532V12.096L34.3492 6.6H35.6452L31.5292 11.904H34.7572V10.08H35.8852V11.904H37.4812V12.936ZM48.4312 13.992V16.476H47.3512V15H42.0352V16.476H40.9432V13.992H41.2792C41.6872 13.968 41.9672 13.68 42.1192 13.128C42.2712 12.576 42.3752 11.796 42.4312 10.788L42.5272 8.64H47.4592V13.992H48.4312ZM43.4872 10.872C43.4552 11.672 43.3872 12.336 43.2832 12.864C43.1872 13.384 43.0072 13.76 42.7432 13.992H46.3072V9.648H43.5472L43.4872 10.872ZM49.9319 8.64H51.0839V11.34H54.7079V8.64H55.8599V15H54.7079V12.336H51.0839V15H49.9319V8.64ZM63.1999 8.64V15H62.1679V12.984H60.3199H60.1879L58.7959 15H57.5599L59.1079 12.828C58.6279 12.684 58.2599 12.448 58.0039 12.12C57.7479 11.784 57.6199 11.368 57.6199 10.872C57.6199 10.144 57.8679 9.592 58.3639 9.216C58.8599 8.832 59.5439 8.64 60.4159 8.64H63.1999ZM58.7959 10.908C58.7959 11.332 58.9279 11.648 59.1919 11.856C59.4639 12.056 59.8679 12.156 60.4039 12.156H62.1679V9.648H60.4519C59.3479 9.648 58.7959 10.068 58.7959 10.908Z" fill="white"/>
<path d="M15.655 7.10055C14.6779 6.11113 13.2984 5.47092 11.8039 5.47092C10.3095 5.47092 8.93 6.08203 7.95286 7.10055C6.97571 8.08996 6.34345 9.48679 6.34345 11C6.34345 12.5132 6.97571 13.9101 7.95286 14.8995C8.93 15.8889 10.3095 16.5291 11.8039 16.5291C13.2984 16.5291 14.6779 15.918 15.655 14.8995C16.6322 13.9101 17.2645 12.5132 17.2645 11C17.2645 9.48679 16.6609 8.08996 15.655 7.10055ZM14.6204 13.8519C13.9019 14.5794 12.896 15.0159 11.8039 15.0159C10.7118 15.0159 9.70597 14.5794 8.98748 13.8519C8.26899 13.1243 7.8379 12.1058 7.8379 11C7.8379 9.89419 8.26899 8.87568 8.98748 8.14817C9.70597 7.42065 10.7118 6.98415 11.8039 6.98415C12.896 6.98415 13.9019 7.42065 14.6204 8.14817C15.3389 8.87568 15.77 9.89419 15.77 11C15.77 12.1058 15.3389 13.1243 14.6204 13.8519Z" fill="white"/>
<path d="M21.9202 10.2434H19.7073C19.305 10.2434 18.9601 10.5926 18.9601 11C18.9601 11.4074 19.305 11.7566 19.7073 11.7566H21.9202C22.3226 11.7566 22.6675 11.4074 22.6675 11C22.6675 10.5926 22.3226 10.2434 21.9202 10.2434Z" fill="white"/>
<path d="M11.8039 18.246C11.4016 18.246 11.0567 18.5952 11.0567 19.0026V21.2434C11.0567 21.6508 11.4016 22 11.8039 22C12.2063 22 12.5512 21.6508 12.5512 21.2434V19.0026C12.5512 18.5952 12.2063 18.246 11.8039 18.246Z" fill="white"/>
<path d="M19.4774 17.7222L17.8967 16.1216C17.6381 15.8306 17.1495 15.8306 16.8621 16.1216C16.5747 16.4126 16.5747 16.8782 16.8621 17.1693L18.4428 18.7698C18.7302 19.0608 19.19 19.0608 19.4774 18.7698C19.7648 18.4788 19.7648 18.0132 19.4774 17.7222Z" fill="white"/>
<path d="M11.8039 0C11.4016 0 11.0567 0.349205 11.0567 0.756611V2.99735C11.0567 3.40475 11.4016 3.75396 11.8039 3.75396C12.2063 3.75396 12.5512 3.40475 12.5512 2.99735V0.756611C12.5512 0.349205 12.2063 0 11.8039 0Z" fill="white"/>
<path d="M19.5061 3.23018C19.2187 2.93918 18.7589 2.93918 18.4715 3.23018L16.8908 4.8307C16.6034 5.12171 16.6034 5.58732 16.8908 5.87832C17.1495 6.16932 17.6381 6.16932 17.9255 5.87832L19.5061 4.2778C19.7935 3.98679 19.7935 3.52118 19.5061 3.23018Z" fill="white"/>
<path d="M3.9006 10.2434H1.68766C1.2853 10.2434 0.94043 10.5926 0.94043 11C0.94043 11.4074 1.25656 11.7566 1.68766 11.7566H3.9006C4.30295 11.7566 4.64782 11.4074 4.64782 11C4.64782 10.5926 4.30295 10.2434 3.9006 10.2434Z" fill="white"/>
<path d="M6.71707 16.1216C6.45841 15.8306 5.96984 15.8306 5.68245 16.1216L4.10177 17.7222C3.81438 18.0132 3.81438 18.4788 4.10177 18.7698C4.38917 19.0608 4.849 19.0608 5.13639 18.7698L6.71707 17.1693C7.00446 16.8782 7.00446 16.4126 6.71707 16.1216Z" fill="white"/>
<path d="M6.71707 4.8307L5.13639 3.23018C4.849 2.93918 4.38917 2.93918 4.10177 3.23018C3.81438 3.52118 3.81438 3.98679 4.10177 4.2778L5.68245 5.87832C5.96984 6.16932 6.42967 6.16932 6.71707 5.87832C7.00446 5.58732 7.00446 5.12171 6.71707 4.8307Z" fill="white"/>
</symbol>

<symbol id='1-nights' width="68" height="20" viewBox="0 0 68 20" fill="none" xmlns="http://www.w3.org/2000/svg">
<path d="M19.5272 11.382C19.3228 11.3307 19.1183 11.382 18.9394 11.5103C18.2748 12.0745 17.5081 12.5362 16.6646 12.844C15.8723 13.1518 15.0033 13.3057 14.0831 13.3057C12.0128 13.3057 10.1215 12.4593 8.76681 11.0999C7.41217 9.74052 6.56872 7.84251 6.56872 5.76497C6.56872 4.89291 6.72207 4.0465 6.97767 3.27704C7.25882 2.45628 7.66777 1.71247 8.20451 1.07125C8.43454 0.789119 8.38343 0.378739 8.10227 0.147901C7.92336 0.0196574 7.71888 -0.0316401 7.51441 0.0196573C5.34188 0.609578 3.4505 1.91766 2.09586 3.66177C0.792336 5.38024 0 7.50908 0 9.84311C0 12.6388 1.12461 15.178 2.96487 17.0247C4.80513 18.8715 7.3355 20 10.1215 20C12.4729 20 14.6454 19.1792 16.3835 17.8199C18.147 16.4348 19.425 14.4599 19.9618 12.2028C20.0895 11.8181 19.8851 11.459 19.5272 11.382ZM15.6167 16.7426C14.1342 17.9225 12.2429 18.6406 10.1726 18.6406C7.74444 18.6406 5.54635 17.6403 3.96168 16.0501C2.37701 14.4599 1.3802 12.2541 1.3802 9.81746C1.3802 7.79122 2.04474 5.94451 3.1949 4.45688C3.98724 3.43094 4.98405 2.58453 6.13421 1.99461C6.00642 2.27674 5.87862 2.55888 5.77638 2.86666C5.44411 3.79002 5.29076 4.76467 5.29076 5.79062C5.29076 8.22724 6.28757 10.4587 7.87224 12.0489C9.45691 13.6391 11.6806 14.6394 14.1087 14.6394C15.1822 14.6394 16.2045 14.4599 17.1502 14.1008C17.4825 13.9726 17.8148 13.8443 18.1215 13.6904C17.5081 14.8703 16.6646 15.9219 15.6167 16.7426Z" fill="white"/>
<path d="M30.4741 10.128C31.2981 10.208 31.9261 10.464 32.3581 10.896C32.7901 11.32 33.0061 11.864 33.0061 12.528C33.0061 13.008 32.8861 13.444 32.6461 13.836C32.4061 14.22 32.0461 14.528 31.5661 14.76C31.0941 14.984 30.5141 15.096 29.8261 15.096C29.2261 15.096 28.6501 15.008 28.0981 14.832C27.5461 14.648 27.0941 14.396 26.7421 14.076L27.2941 13.128C27.5821 13.4 27.9501 13.62 28.3981 13.788C28.8461 13.948 29.3221 14.028 29.8261 14.028C30.4501 14.028 30.9341 13.896 31.2781 13.632C31.6301 13.368 31.8061 13.004 31.8061 12.54C31.8061 12.076 31.6341 11.716 31.2901 11.46C30.9461 11.204 30.4261 11.076 29.7301 11.076H29.0581V10.236L31.1701 7.644H27.1261V6.6H32.6701V7.416L30.4741 10.128ZM37.888 8.64H39.04V11.34H42.664V8.64H43.816V15H42.664V12.336H39.04V15H37.888V8.64ZM48.7799 15.072C48.1479 15.072 47.5799 14.932 47.0759 14.652C46.5719 14.372 46.1759 13.988 45.8879 13.5C45.6079 13.004 45.4679 12.444 45.4679 11.82C45.4679 11.196 45.6079 10.64 45.8879 10.152C46.1759 9.656 46.5719 9.272 47.0759 9C47.5799 8.72 48.1479 8.58 48.7799 8.58C49.4119 8.58 49.9759 8.72 50.4719 9C50.9759 9.272 51.3679 9.656 51.6479 10.152C51.9359 10.64 52.0799 11.196 52.0799 11.82C52.0799 12.444 51.9359 13.004 51.6479 13.5C51.3679 13.988 50.9759 14.372 50.4719 14.652C49.9759 14.932 49.4119 15.072 48.7799 15.072ZM48.7799 14.064C49.1879 14.064 49.5519 13.972 49.8719 13.788C50.1999 13.596 50.4559 13.332 50.6399 12.996C50.8239 12.652 50.9159 12.26 50.9159 11.82C50.9159 11.38 50.8239 10.992 50.6399 10.656C50.4559 10.312 50.1999 10.048 49.8719 9.864C49.5519 9.68 49.1879 9.588 48.7799 9.588C48.3719 9.588 48.0039 9.68 47.6759 9.864C47.3559 10.048 47.0999 10.312 46.9079 10.656C46.7239 10.992 46.6319 11.38 46.6319 11.82C46.6319 12.26 46.7239 12.652 46.9079 12.996C47.0999 13.332 47.3559 13.596 47.6759 13.788C48.0039 13.972 48.3719 14.064 48.7799 14.064ZM58.8194 8.64V15H57.6674V12.432C56.9794 12.752 56.2954 12.912 55.6154 12.912C54.8234 12.912 54.2114 12.728 53.7794 12.36C53.3474 11.992 53.1314 11.44 53.1314 10.704V8.64H54.2834V10.632C54.2834 11.072 54.4194 11.404 54.6914 11.628C54.9714 11.852 55.3594 11.964 55.8554 11.964C56.4154 11.964 57.0194 11.824 57.6674 11.544V8.64H58.8194ZM61.0559 8.64H62.2079V13.272L66.1079 8.64H67.1519V15H65.9999V10.368L62.1119 15H61.0559V8.64Z" fill="white"/>
</symbol>

<symbol id='2-days' width="71" height="22" viewBox="0 0 71 22" fill="none" xmlns="http://www.w3.org/2000/svg">
<path d="M32.976 9.948C34.176 9.948 35.056 10.176 35.616 10.632C36.184 11.08 36.468 11.696 36.468 12.48C36.468 12.976 36.348 13.424 36.108 13.824C35.876 14.216 35.52 14.528 35.04 14.76C34.568 14.984 33.984 15.096 33.288 15.096C32.696 15.096 32.124 15.008 31.572 14.832C31.02 14.648 30.564 14.396 30.204 14.076L30.756 13.128C31.044 13.4 31.412 13.62 31.86 13.788C32.308 13.948 32.78 14.028 33.276 14.028C33.908 14.028 34.396 13.896 34.74 13.632C35.092 13.36 35.268 12.992 35.268 12.528C35.268 12.024 35.076 11.644 34.692 11.388C34.308 11.124 33.652 10.992 32.724 10.992H30.816L31.26 6.6H36V7.644H32.268L32.04 9.948H32.976ZM47.6973 13.992V16.476H46.6173V15H41.3013V16.476H40.2093V13.992H40.5453C40.9533 13.968 41.2333 13.68 41.3853 13.128C41.5373 12.576 41.6413 11.796 41.6973 10.788L41.7933 8.64H46.7253V13.992H47.6973ZM42.7533 10.872C42.7213 11.672 42.6533 12.336 42.5493 12.864C42.4533 13.384 42.2733 13.76 42.0093 13.992H45.5733V9.648H42.8133L42.7533 10.872ZM49.198 8.64H50.35V11.34H53.974V8.64H55.126V15H53.974V12.336H50.35V15H49.198V8.64ZM63.114 11.856C63.114 11.944 63.106 12.06 63.09 12.204H57.93C58.002 12.764 58.246 13.216 58.662 13.56C59.086 13.896 59.61 14.064 60.234 14.064C60.994 14.064 61.606 13.808 62.07 13.296L62.706 14.04C62.418 14.376 62.058 14.632 61.626 14.808C61.202 14.984 60.726 15.072 60.198 15.072C59.526 15.072 58.93 14.936 58.41 14.664C57.89 14.384 57.486 13.996 57.198 13.5C56.918 13.004 56.778 12.444 56.778 11.82C56.778 11.204 56.914 10.648 57.186 10.152C57.466 9.656 57.846 9.272 58.326 9C58.814 8.72 59.362 8.58 59.97 8.58C60.578 8.58 61.118 8.72 61.59 9C62.07 9.272 62.442 9.656 62.706 10.152C62.978 10.648 63.114 11.216 63.114 11.856ZM59.97 9.552C59.418 9.552 58.954 9.72 58.578 10.056C58.21 10.392 57.994 10.832 57.93 11.376H62.01C61.946 10.84 61.726 10.404 61.35 10.068C60.982 9.724 60.522 9.552 59.97 9.552ZM64.9012 8.64H66.0532V13.272L69.9532 8.64H70.9972V15H69.8452V10.368L65.9572 15H64.9012V8.64ZM67.8772 7.812C67.2852 7.812 66.8252 7.672 66.4972 7.392C66.1692 7.104 66.0012 6.692 65.9932 6.156H66.7732C66.7812 6.452 66.8812 6.692 67.0732 6.876C67.2732 7.052 67.5372 7.14 67.8652 7.14C68.1932 7.14 68.4572 7.052 68.6572 6.876C68.8572 6.692 68.9612 6.452 68.9692 6.156H69.7732C69.7652 6.692 69.5932 7.104 69.2572 7.392C68.9212 7.672 68.4612 7.812 67.8772 7.812Z" fill="white"/>
<path d="M15.5681 7.10055C14.591 6.11113 13.2115 5.47092 11.717 5.47092C10.2226 5.47092 8.84309 6.08203 7.86594 7.10055C6.8888 8.08996 6.25653 9.48679 6.25653 11C6.25653 12.5132 6.8888 13.9101 7.86594 14.8995C8.84309 15.8889 10.2226 16.5291 11.717 16.5291C13.2115 16.5291 14.591 15.918 15.5681 14.8995C16.5453 13.9101 17.1775 12.5132 17.1775 11C17.1775 9.48679 16.574 8.08996 15.5681 7.10055ZM14.5335 13.8519C13.815 14.5794 12.8091 15.0159 11.717 15.0159C10.6249 15.0159 9.61905 14.5794 8.90057 13.8519C8.18208 13.1243 7.75099 12.1058 7.75099 11C7.75099 9.89419 8.18208 8.87568 8.90057 8.14817C9.61905 7.42065 10.6249 6.98415 11.717 6.98415C12.8091 6.98415 13.815 7.42065 14.5335 8.14817C15.252 8.87568 15.6831 9.89419 15.6831 11C15.6831 12.1058 15.252 13.1243 14.5335 13.8519Z" fill="white"/>
<path d="M21.8333 10.2434H19.6204C19.218 10.2434 18.8732 10.5926 18.8732 11C18.8732 11.4074 19.218 11.7566 19.6204 11.7566H21.8333C22.2357 11.7566 22.5806 11.4074 22.5806 11C22.5806 10.5926 22.2357 10.2434 21.8333 10.2434Z" fill="white"/>
<path d="M11.717 18.246C11.3147 18.246 10.9698 18.5952 10.9698 19.0026V21.2434C10.9698 21.6508 11.3147 22 11.717 22C12.1194 22 12.4643 21.6508 12.4643 21.2434V19.0026C12.4643 18.5952 12.1194 18.246 11.717 18.246Z" fill="white"/>
<path d="M19.3905 17.7222L17.8098 16.1216C17.5512 15.8306 17.0626 15.8306 16.7752 16.1216C16.4878 16.4126 16.4878 16.8782 16.7752 17.1693L18.3559 18.7698C18.6433 19.0608 19.1031 19.0608 19.3905 18.7698C19.6779 18.4788 19.6779 18.0132 19.3905 17.7222Z" fill="white"/>
<path d="M11.717 0C11.3147 0 10.9698 0.349205 10.9698 0.756611V2.99735C10.9698 3.40475 11.3147 3.75396 11.717 3.75396C12.1194 3.75396 12.4643 3.40475 12.4643 2.99735V0.756611C12.4643 0.349205 12.1194 0 11.717 0Z" fill="white"/>
<path d="M19.4192 3.23018C19.1318 2.93918 18.672 2.93918 18.3846 3.23018L16.8039 4.8307C16.5165 5.12171 16.5165 5.58732 16.8039 5.87832C17.0626 6.16932 17.5512 6.16932 17.8386 5.87832L19.4192 4.2778C19.7066 3.98679 19.7066 3.52118 19.4192 3.23018Z" fill="white"/>
<path d="M3.81368 10.2434H1.60074C1.19839 10.2434 0.853516 10.5926 0.853516 11C0.853516 11.4074 1.16965 11.7566 1.60074 11.7566H3.81368C4.21603 11.7566 4.56091 11.4074 4.56091 11C4.56091 10.5926 4.21603 10.2434 3.81368 10.2434Z" fill="white"/>
<path d="M6.63015 16.1216C6.3715 15.8306 5.88293 15.8306 5.59553 16.1216L4.01486 17.7222C3.72746 18.0132 3.72746 18.4788 4.01486 18.7698C4.30225 19.0608 4.76209 19.0608 5.04948 18.7698L6.63015 17.1693C6.91755 16.8782 6.91755 16.4126 6.63015 16.1216Z" fill="white"/>
<path d="M6.63015 4.8307L5.04948 3.23018C4.76209 2.93918 4.30225 2.93918 4.01486 3.23018C3.72746 3.52118 3.72746 3.98679 4.01486 4.2778L5.59553 5.87832C5.88293 6.16932 6.34276 6.16932 6.63015 5.87832C6.91755 5.58732 6.91755 5.12171 6.63015 4.8307Z" fill="white"/>
</symbol>

<symbol id='2-nights' width="69" height="20" viewBox="0 0 69 20" fill="none" xmlns="http://www.w3.org/2000/svg">
<path d="M19.5272 11.382C19.3228 11.3307 19.1183 11.382 18.9394 11.5103C18.2748 12.0745 17.5081 12.5362 16.6646 12.844C15.8723 13.1518 15.0033 13.3057 14.0831 13.3057C12.0128 13.3057 10.1215 12.4593 8.76681 11.0999C7.41217 9.74052 6.56872 7.84251 6.56872 5.76497C6.56872 4.89291 6.72207 4.0465 6.97767 3.27704C7.25882 2.45628 7.66777 1.71247 8.20451 1.07125C8.43454 0.789119 8.38343 0.378739 8.10227 0.147901C7.92336 0.0196573 7.71888 -0.0316401 7.51441 0.0196573C5.34188 0.609578 3.4505 1.91766 2.09586 3.66177C0.792336 5.38024 0 7.50908 0 9.84311C0 12.6388 1.12461 15.178 2.96487 17.0247C4.80513 18.8715 7.3355 20 10.1215 20C12.4729 20 14.6454 19.1792 16.3835 17.8199C18.147 16.4348 19.425 14.4599 19.9618 12.2028C20.0895 11.8181 19.8851 11.459 19.5272 11.382ZM15.6167 16.7426C14.1342 17.9225 12.2429 18.6406 10.1726 18.6406C7.74444 18.6406 5.54635 17.6403 3.96168 16.0501C2.37701 14.4599 1.3802 12.2541 1.3802 9.81746C1.3802 7.79122 2.04474 5.94451 3.1949 4.45688C3.98724 3.43094 4.98405 2.58453 6.13421 1.99461C6.00642 2.27674 5.87862 2.55888 5.77638 2.86666C5.44411 3.79002 5.29076 4.76467 5.29076 5.79062C5.29076 8.22724 6.28757 10.4587 7.87224 12.0489C9.45691 13.6391 11.6806 14.6394 14.1087 14.6394C15.1822 14.6394 16.2045 14.4599 17.1502 14.1008C17.4825 13.9726 17.8148 13.8443 18.1215 13.6904C17.5081 14.8703 16.6646 15.9219 15.6167 16.7426Z" fill="white"/>
<path d="M34.884 12.936H33.288V15H32.124V12.936H27.456V12.096L31.752 6.6H33.048L28.932 11.904H32.16V10.08H33.288V11.904H34.884V12.936ZM39.366 8.64H40.518V11.34H44.142V8.64H45.294V15H44.142V12.336H40.518V15H39.366V8.64ZM50.258 15.072C49.626 15.072 49.058 14.932 48.554 14.652C48.05 14.372 47.654 13.988 47.366 13.5C47.086 13.004 46.946 12.444 46.946 11.82C46.946 11.196 47.086 10.64 47.366 10.152C47.654 9.656 48.05 9.272 48.554 9C49.058 8.72 49.626 8.58 50.258 8.58C50.89 8.58 51.454 8.72 51.95 9C52.454 9.272 52.846 9.656 53.126 10.152C53.414 10.64 53.558 11.196 53.558 11.82C53.558 12.444 53.414 13.004 53.126 13.5C52.846 13.988 52.454 14.372 51.95 14.652C51.454 14.932 50.89 15.072 50.258 15.072ZM50.258 14.064C50.666 14.064 51.03 13.972 51.35 13.788C51.678 13.596 51.934 13.332 52.118 12.996C52.302 12.652 52.394 12.26 52.394 11.82C52.394 11.38 52.302 10.992 52.118 10.656C51.934 10.312 51.678 10.048 51.35 9.864C51.03 9.68 50.666 9.588 50.258 9.588C49.85 9.588 49.482 9.68 49.154 9.864C48.834 10.048 48.578 10.312 48.386 10.656C48.202 10.992 48.11 11.38 48.11 11.82C48.11 12.26 48.202 12.652 48.386 12.996C48.578 13.332 48.834 13.596 49.154 13.788C49.482 13.972 49.85 14.064 50.258 14.064ZM60.2975 8.64V15H59.1455V12.432C58.4575 12.752 57.7735 12.912 57.0935 12.912C56.3015 12.912 55.6895 12.728 55.2575 12.36C54.8255 11.992 54.6095 11.44 54.6095 10.704V8.64H55.7615V10.632C55.7615 11.072 55.8975 11.404 56.1695 11.628C56.4495 11.852 56.8375 11.964 57.3335 11.964C57.8935 11.964 58.4975 11.824 59.1455 11.544V8.64H60.2975ZM62.534 8.64H63.686V13.272L67.586 8.64H68.63V15H67.478V10.368L63.59 15H62.534V8.64Z" fill="white"/>
</symbol>

<symbol id='3-days' width="71" height="22" viewBox="0 0 71 22" fill="none" xmlns="http://www.w3.org/2000/svg">
<path d="M36.2932 6.6V7.416L32.8972 15H31.6252L34.9492 7.644H31.1092V9.144H29.9572V6.6H36.2932ZM47.5757 13.992V16.476H46.4957V15H41.1797V16.476H40.0877V13.992H40.4237C40.8317 13.968 41.1117 13.68 41.2637 13.128C41.4157 12.576 41.5197 11.796 41.5757 10.788L41.6717 8.64H46.6037V13.992H47.5757ZM42.6317 10.872C42.5997 11.672 42.5317 12.336 42.4277 12.864C42.3317 13.384 42.1517 13.76 41.8877 13.992H45.4517V9.648H42.6917L42.6317 10.872ZM49.0764 8.64H50.2284V11.34H53.8524V8.64H55.0044V15H53.8524V12.336H50.2284V15H49.0764V8.64ZM62.9924 11.856C62.9924 11.944 62.9844 12.06 62.9684 12.204H57.8084C57.8804 12.764 58.1244 13.216 58.5404 13.56C58.9644 13.896 59.4884 14.064 60.1124 14.064C60.8724 14.064 61.4844 13.808 61.9484 13.296L62.5844 14.04C62.2964 14.376 61.9364 14.632 61.5044 14.808C61.0804 14.984 60.6044 15.072 60.0764 15.072C59.4044 15.072 58.8084 14.936 58.2884 14.664C57.7684 14.384 57.3644 13.996 57.0764 13.5C56.7964 13.004 56.6564 12.444 56.6564 11.82C56.6564 11.204 56.7924 10.648 57.0644 10.152C57.3444 9.656 57.7244 9.272 58.2044 9C58.6924 8.72 59.2404 8.58 59.8484 8.58C60.4564 8.58 60.9964 8.72 61.4684 9C61.9484 9.272 62.3204 9.656 62.5844 10.152C62.8564 10.648 62.9924 11.216 62.9924 11.856ZM59.8484 9.552C59.2964 9.552 58.8324 9.72 58.4564 10.056C58.0884 10.392 57.8724 10.832 57.8084 11.376H61.8884C61.8244 10.84 61.6044 10.404 61.2284 10.068C60.8604 9.724 60.4004 9.552 59.8484 9.552ZM64.7796 8.64H65.9316V13.272L69.8316 8.64H70.8756V15H69.7236V10.368L65.8356 15H64.7796V8.64ZM67.7556 7.812C67.1636 7.812 66.7036 7.672 66.3756 7.392C66.0476 7.104 65.8796 6.692 65.8716 6.156H66.6516C66.6596 6.452 66.7596 6.692 66.9516 6.876C67.1516 7.052 67.4156 7.14 67.7436 7.14C68.0716 7.14 68.3356 7.052 68.5356 6.876C68.7356 6.692 68.8396 6.452 68.8476 6.156H69.6516C69.6436 6.692 69.4716 7.104 69.1356 7.392C68.7996 7.672 68.3396 7.812 67.7556 7.812Z" fill="white"/>
<path d="M15.655 7.10055C14.6779 6.11113 13.2984 5.47092 11.8039 5.47092C10.3095 5.47092 8.93 6.08203 7.95286 7.10055C6.97571 8.08996 6.34345 9.48679 6.34345 11C6.34345 12.5132 6.97571 13.9101 7.95286 14.8995C8.93 15.8889 10.3095 16.5291 11.8039 16.5291C13.2984 16.5291 14.6779 15.918 15.655 14.8995C16.6322 13.9101 17.2645 12.5132 17.2645 11C17.2645 9.48679 16.6609 8.08996 15.655 7.10055ZM14.6204 13.8519C13.9019 14.5794 12.896 15.0159 11.8039 15.0159C10.7118 15.0159 9.70597 14.5794 8.98748 13.8519C8.26899 13.1243 7.8379 12.1058 7.8379 11C7.8379 9.89419 8.26899 8.87568 8.98748 8.14817C9.70597 7.42065 10.7118 6.98415 11.8039 6.98415C12.896 6.98415 13.9019 7.42065 14.6204 8.14817C15.3389 8.87568 15.77 9.89419 15.77 11C15.77 12.1058 15.3389 13.1243 14.6204 13.8519Z" fill="white"/>
<path d="M21.9202 10.2434H19.7073C19.305 10.2434 18.9601 10.5926 18.9601 11C18.9601 11.4074 19.305 11.7566 19.7073 11.7566H21.9202C22.3226 11.7566 22.6675 11.4074 22.6675 11C22.6675 10.5926 22.3226 10.2434 21.9202 10.2434Z" fill="white"/>
<path d="M11.8039 18.246C11.4016 18.246 11.0567 18.5952 11.0567 19.0026V21.2434C11.0567 21.6508 11.4016 22 11.8039 22C12.2063 22 12.5512 21.6508 12.5512 21.2434V19.0026C12.5512 18.5952 12.2063 18.246 11.8039 18.246Z" fill="white"/>
<path d="M19.4774 17.7222L17.8967 16.1216C17.6381 15.8306 17.1495 15.8306 16.8621 16.1216C16.5747 16.4126 16.5747 16.8782 16.8621 17.1693L18.4428 18.7698C18.7302 19.0608 19.19 19.0608 19.4774 18.7698C19.7648 18.4788 19.7648 18.0132 19.4774 17.7222Z" fill="white"/>
<path d="M11.8039 0C11.4016 0 11.0567 0.349205 11.0567 0.756611V2.99735C11.0567 3.40475 11.4016 3.75396 11.8039 3.75396C12.2063 3.75396 12.5512 3.40475 12.5512 2.99735V0.756611C12.5512 0.349205 12.2063 0 11.8039 0Z" fill="white"/>
<path d="M19.5061 3.23018C19.2187 2.93918 18.7589 2.93918 18.4715 3.23018L16.8908 4.8307C16.6034 5.12171 16.6034 5.58732 16.8908 5.87832C17.1495 6.16932 17.6381 6.16932 17.9255 5.87832L19.5061 4.2778C19.7935 3.98679 19.7935 3.52118 19.5061 3.23018Z" fill="white"/>
<path d="M3.9006 10.2434H1.68766C1.2853 10.2434 0.94043 10.5926 0.94043 11C0.94043 11.4074 1.25656 11.7566 1.68766 11.7566H3.9006C4.30295 11.7566 4.64782 11.4074 4.64782 11C4.64782 10.5926 4.30295 10.2434 3.9006 10.2434Z" fill="white"/>
<path d="M6.71707 16.1216C6.45841 15.8306 5.96984 15.8306 5.68245 16.1216L4.10177 17.7222C3.81438 18.0132 3.81438 18.4788 4.10177 18.7698C4.38917 19.0608 4.849 19.0608 5.13639 18.7698L6.71707 17.1693C7.00446 16.8782 7.00446 16.4126 6.71707 16.1216Z" fill="white"/>
<path d="M6.71707 4.8307L5.13639 3.23018C4.849 2.93918 4.38917 2.93918 4.10177 3.23018C3.81438 3.52118 3.81438 3.98679 4.10177 4.2778L5.68245 5.87832C5.96984 6.16932 6.42967 6.16932 6.71707 5.87832C7.00446 5.58732 7.00446 5.12171 6.71707 4.8307Z" fill="white"/>
</symbol>

<symbol id='3-nights' width="76" height="20" viewBox="0 0 76 20" fill="none" xmlns="http://www.w3.org/2000/svg">
<path d="M19.5272 11.382C19.3228 11.3307 19.1183 11.382 18.9394 11.5103C18.2748 12.0745 17.5081 12.5362 16.6646 12.844C15.8723 13.1518 15.0033 13.3057 14.0831 13.3057C12.0128 13.3057 10.1215 12.4593 8.76681 11.0999C7.41217 9.74052 6.56872 7.84251 6.56872 5.76497C6.56872 4.89291 6.72207 4.0465 6.97767 3.27704C7.25882 2.45628 7.66777 1.71247 8.20451 1.07125C8.43454 0.789119 8.38343 0.378739 8.10227 0.147901C7.92336 0.0196573 7.71888 -0.0316401 7.51441 0.0196573C5.34188 0.609578 3.4505 1.91766 2.09586 3.66177C0.792336 5.38024 0 7.50908 0 9.84311C0 12.6388 1.12461 15.178 2.96487 17.0247C4.80513 18.8715 7.3355 20 10.1215 20C12.4729 20 14.6454 19.1792 16.3835 17.8199C18.147 16.4348 19.425 14.4599 19.9618 12.2028C20.0895 11.8181 19.8851 11.459 19.5272 11.382ZM15.6167 16.7426C14.1342 17.9225 12.2429 18.6406 10.1726 18.6406C7.74444 18.6406 5.54635 17.6403 3.96168 16.0501C2.37701 14.4599 1.3802 12.2541 1.3802 9.81746C1.3802 7.79122 2.04474 5.94451 3.1949 4.45688C3.98724 3.43094 4.98405 2.58453 6.13421 1.99461C6.00642 2.27674 5.87862 2.55888 5.77638 2.86666C5.44411 3.79002 5.29076 4.76467 5.29076 5.79062C5.29076 8.22724 6.28757 10.4587 7.87224 12.0489C9.45691 13.6391 11.6806 14.6394 14.1087 14.6394C15.1822 14.6394 16.2045 14.4599 17.1502 14.1008C17.4825 13.9726 17.8148 13.8443 18.1215 13.6904C17.5081 14.8703 16.6646 15.9219 15.6167 16.7426Z" fill="white"/>
<path d="M31.2 9.9C31.752 9.9 32.244 10.004 32.676 10.212C33.116 10.42 33.46 10.72 33.708 11.112C33.956 11.496 34.08 11.94 34.08 12.444C34.08 12.972 33.948 13.436 33.684 13.836C33.428 14.236 33.072 14.548 32.616 14.772C32.168 14.988 31.664 15.096 31.104 15.096C29.976 15.096 29.104 14.732 28.488 14.004C27.88 13.276 27.576 12.244 27.576 10.908C27.576 9.972 27.74 9.176 28.068 8.52C28.404 7.856 28.868 7.356 29.46 7.02C30.06 6.676 30.756 6.504 31.548 6.504C31.956 6.504 32.34 6.548 32.7 6.636C33.06 6.716 33.372 6.836 33.636 6.996L33.18 7.932C32.78 7.668 32.244 7.536 31.572 7.536C30.7 7.536 30.016 7.808 29.52 8.352C29.024 8.888 28.776 9.672 28.776 10.704C28.776 10.832 28.78 10.932 28.788 11.004C29.028 10.644 29.356 10.372 29.772 10.188C30.196 9.996 30.672 9.9 31.2 9.9ZM31.056 14.124C31.608 14.124 32.056 13.976 32.4 13.68C32.744 13.384 32.916 12.988 32.916 12.492C32.916 11.996 32.74 11.604 32.388 11.316C32.044 11.02 31.58 10.872 30.996 10.872C30.62 10.872 30.284 10.944 29.988 11.088C29.7 11.232 29.472 11.428 29.304 11.676C29.144 11.924 29.064 12.2 29.064 12.504C29.064 12.8 29.14 13.072 29.292 13.32C29.452 13.56 29.68 13.756 29.976 13.908C30.28 14.052 30.64 14.124 31.056 14.124ZM38.7449 8.64H39.8969V11.34H43.5209V8.64H44.6729V15H43.5209V12.336H39.8969V15H38.7449V8.64ZM49.6369 15.072C49.0049 15.072 48.4369 14.932 47.9329 14.652C47.4289 14.372 47.0329 13.988 46.7449 13.5C46.4649 13.004 46.3249 12.444 46.3249 11.82C46.3249 11.196 46.4649 10.64 46.7449 10.152C47.0329 9.656 47.4289 9.272 47.9329 9C48.4369 8.72 49.0049 8.58 49.6369 8.58C50.2689 8.58 50.8329 8.72 51.3289 9C51.8329 9.272 52.2249 9.656 52.5049 10.152C52.7929 10.64 52.9369 11.196 52.9369 11.82C52.9369 12.444 52.7929 13.004 52.5049 13.5C52.2249 13.988 51.8329 14.372 51.3289 14.652C50.8329 14.932 50.2689 15.072 49.6369 15.072ZM49.6369 14.064C50.0449 14.064 50.4089 13.972 50.7289 13.788C51.0569 13.596 51.3129 13.332 51.4969 12.996C51.6809 12.652 51.7729 12.26 51.7729 11.82C51.7729 11.38 51.6809 10.992 51.4969 10.656C51.3129 10.312 51.0569 10.048 50.7289 9.864C50.4089 9.68 50.0449 9.588 49.6369 9.588C49.2289 9.588 48.8609 9.68 48.5329 9.864C48.2129 10.048 47.9569 10.312 47.7649 10.656C47.5809 10.992 47.4889 11.38 47.4889 11.82C47.4889 12.26 47.5809 12.652 47.7649 12.996C47.9569 13.332 48.2129 13.596 48.5329 13.788C48.8609 13.972 49.2289 14.064 49.6369 14.064ZM59.6764 8.64V15H58.5244V12.432C57.8364 12.752 57.1524 12.912 56.4724 12.912C55.6804 12.912 55.0684 12.728 54.6364 12.36C54.2044 11.992 53.9884 11.44 53.9884 10.704V8.64H55.1404V10.632C55.1404 11.072 55.2764 11.404 55.5484 11.628C55.8284 11.852 56.2164 11.964 56.7124 11.964C57.2724 11.964 57.8764 11.824 58.5244 11.544V8.64H59.6764ZM67.6609 11.856C67.6609 11.944 67.6529 12.06 67.6369 12.204H62.4769C62.5489 12.764 62.7929 13.216 63.2089 13.56C63.6329 13.896 64.1569 14.064 64.7809 14.064C65.5409 14.064 66.1529 13.808 66.6169 13.296L67.2529 14.04C66.9649 14.376 66.6049 14.632 66.1729 14.808C65.7489 14.984 65.2729 15.072 64.7449 15.072C64.0729 15.072 63.4769 14.936 62.9569 14.664C62.4369 14.384 62.0329 13.996 61.7449 13.5C61.4649 13.004 61.3249 12.444 61.3249 11.82C61.3249 11.204 61.4609 10.648 61.7329 10.152C62.0129 9.656 62.3929 9.272 62.8729 9C63.3609 8.72 63.9089 8.58 64.5169 8.58C65.1249 8.58 65.6649 8.72 66.1369 9C66.6169 9.272 66.9889 9.656 67.2529 10.152C67.5249 10.648 67.6609 11.216 67.6609 11.856ZM64.5169 9.552C63.9649 9.552 63.5009 9.72 63.1249 10.056C62.7569 10.392 62.5409 10.832 62.4769 11.376H66.5569C66.4929 10.84 66.2729 10.404 65.8969 10.068C65.5289 9.724 65.0689 9.552 64.5169 9.552ZM69.448 8.64H70.6V13.272L74.5 8.64H75.544V15H74.392V10.368L70.504 15H69.448V8.64ZM72.424 7.812C71.832 7.812 71.372 7.672 71.044 7.392C70.716 7.104 70.548 6.692 70.54 6.156H71.32C71.328 6.452 71.428 6.692 71.62 6.876C71.82 7.052 72.084 7.14 72.412 7.14C72.74 7.14 73.004 7.052 73.204 6.876C73.404 6.692 73.508 6.452 73.516 6.156H74.32C74.312 6.692 74.14 7.104 73.804 7.392C73.468 7.672 73.008 7.812 72.424 7.812Z" fill="white"/>
</symbol>

<symbol id='line' width="80" height="1" viewBox="0 0 80 1" fill="none" xmlns="http://www.w3.org/2000/svg">
<rect opacity="0.284" x="0.739502" width="79.0074" height="1" fill="white"/>
</symbol>



<symbol id='elbrus-stars' width="79" height="14" viewBox="0 0 79 14" fill="none" xmlns="http://www.w3.org/2000/svg">
<path d="M7.5 11.0412L12.135 13.65L10.9087 8.72975L15 5.42084L9.60676 4.98892L7.5 0.350037L5.39326 4.98892L0 5.42084L4.09126 8.72975L2.865 13.65L7.5 11.0412Z" fill="white"/>
<path d="M23.5 11.0412L28.135 13.65L26.9087 8.72975L31 5.42084L25.6068 4.98892L23.5 0.350037L21.3933 4.98892L16 5.42084L20.0913 8.72975L18.865 13.65L23.5 11.0412Z" fill="white"/>
<path d="M39.5 11.0412L44.135 13.65L42.9087 8.72975L47 5.42084L41.6068 4.98892L39.5 0.350037L37.3933 4.98892L32 5.42084L36.0913 8.72975L34.865 13.65L39.5 11.0412Z" fill="white"/>
<path d="M55.7453 10.6054L55.5 10.4674L55.2547 10.6054L51.6307 12.6453L52.5764 8.85066L52.6535 8.54141L52.4057 8.34098L49.2878 5.81931L53.4332 5.48733L53.7267 5.46382L53.8485 5.19567L55.5 1.55921L57.1515 5.19568L57.2733 5.46382L57.5669 5.48733L61.7122 5.81931L58.5943 8.34098L58.3465 8.54141L58.4236 8.85066L59.3693 12.6453L55.7453 10.6054Z" stroke="#F3F3F3"/>
<path d="M71.7453 10.6054L71.5 10.4674L71.2547 10.6054L67.6307 12.6453L68.5764 8.85066L68.6535 8.54141L68.4057 8.34098L65.2878 5.81931L69.4332 5.48733L69.7267 5.46382L69.8485 5.19567L71.5 1.55921L73.1515 5.19568L73.2733 5.46382L73.5669 5.48733L77.7122 5.81931L74.5943 8.34098L74.3465 8.54141L74.4236 8.85066L75.3693 12.6453L71.7453 10.6054Z" stroke="white"/>
</symbol>

<symbol id='points' width="1440" height="15" viewBox="0 0 1440 15" fill="none" xmlns="http://www.w3.org/2000/svg">
<line x1="141" y1="7.5" x2="449" y2="7.49997" stroke="#D9E7EA"/>
<line x1="461" y1="7.5" x2="772" y2="7.49997" stroke="#D9E7EA"/>
<line x1="784" y1="7.5" x2="1106" y2="7.5" stroke="#D9E7EA"/>
<line x1="1118" y1="7.5" x2="1479" y2="7.49997" stroke="#D9E7EA"/>
<line x1="4.37114e-08" y1="7.5" x2="130" y2="7.50001" stroke="#D9E7EA"/>
<circle cx="136" cy="7" r="7" fill="#0266C1"/>
<circle cx="455" cy="8" r="7" fill="#0266C1"/>
<circle cx="778" cy="8" r="7" fill="#0266C1"/>
<circle cx="1112" cy="8" r="7" fill="#0266C1"/>
</symbol>


<symbol id='vk' width="29" height="29" viewBox="0 0 29 29" fill="none" xmlns="http://www.w3.org/2000/svg">
<rect opacity="0.432" x="0.5" y="0.5" width="27.3043" height="27.3043" stroke="#2D383F"/>
<path d="M22.4438 18.1795C22.401 18.1078 22.1359 17.5318 20.8604 16.348C19.5251 15.1083 19.7044 15.3096 21.3128 13.1661C22.2924 11.8607 22.684 11.0635 22.5614 10.7227C22.4448 10.3978 21.7244 10.4835 21.7244 10.4835L19.3288 10.4975C19.3288 10.4975 19.1514 10.4736 19.0189 10.5523C18.8903 10.63 18.8076 10.8094 18.8076 10.8094C18.8076 10.8094 18.4279 11.8198 17.9217 12.6788C16.8545 14.4915 16.427 14.5871 16.2526 14.4745C15.847 14.2124 15.9486 13.4202 15.9486 12.8582C15.9486 11.1014 16.2147 10.3689 15.4295 10.1796C15.1684 10.1168 14.977 10.075 14.3104 10.068C13.4554 10.059 12.7309 10.071 12.3214 10.2713C12.0483 10.4048 11.8381 10.7028 11.9666 10.7197C12.125 10.7406 12.4838 10.8164 12.6741 11.0755C12.9203 11.4093 12.9113 12.1607 12.9113 12.1607C12.9113 12.1607 13.0528 14.2284 12.5814 14.4855C12.2576 14.6619 11.8141 14.3021 10.8625 12.6569C10.3752 11.8149 10.0065 10.8831 10.0065 10.8831C10.0065 10.8831 9.93573 10.7097 9.80918 10.6171C9.65572 10.5045 9.44047 10.4686 9.44047 10.4686L7.16247 10.4825C7.16247 10.4825 6.82067 10.4925 6.69511 10.641C6.5835 10.7735 6.68614 11.0466 6.68614 11.0466C6.68614 11.0466 8.46988 15.2189 10.4888 17.3225C12.3413 19.2508 14.4439 19.1242 14.4439 19.1242H15.3966C15.3966 19.1242 15.6846 19.0923 15.831 18.9339C15.9666 18.7884 15.9616 18.5153 15.9616 18.5153C15.9616 18.5153 15.9426 17.2368 16.5366 17.0485C17.1215 16.8631 17.8729 18.2842 18.6691 18.8312C19.271 19.2448 19.7284 19.1541 19.7284 19.1541L21.8579 19.1242C21.8579 19.1242 22.972 19.0555 22.4438 18.1795Z" fill="#2D383F"/>
</symbol>

<symbol id='fb' width="30" height="29" viewBox="0 0 30 29" fill="none" xmlns="http://www.w3.org/2000/svg">
<rect opacity="0.432" x="1.44775" y="0.5" width="27.3043" height="27.3043" stroke="#2D383F"/>
<path d="M15.9846 11.941V10.172C15.9846 9.68371 16.3808 9.28745 16.8691 9.28745H17.7536V7.07617H15.9846C14.5189 7.07617 13.331 8.26407 13.331 9.7297V11.941H11.562V14.1523H13.331V21.2283H15.9846V14.1523H17.7536L18.6381 11.941H15.9846Z" fill="#2D383F"/>
</symbol>


<symbol id='insta' width="30" height="29" viewBox="0 0 30 29" fill="none" xmlns="http://www.w3.org/2000/svg">
<rect opacity="0.432" x="1.396" y="0.5" width="27.3043" height="27.3043" stroke="#2D383F"/>
<path d="M19.1192 5.31421H11.3804C8.75235 5.31421 6.61426 7.45242 6.61426 10.0805V17.8193C6.61426 20.4475 8.75235 22.5856 11.3804 22.5856H19.1192C21.7474 22.5856 23.8855 20.4474 23.8855 17.8193V10.0805C23.8856 7.45242 21.7474 5.31421 19.1192 5.31421ZM22.3532 17.8193C22.3532 19.6026 20.9025 21.0532 19.1193 21.0532H11.3804C9.59731 21.0533 8.14665 19.6026 8.14665 17.8193V10.0805C8.14665 8.29739 9.59731 6.84661 11.3804 6.84661H19.1192C20.9024 6.84661 22.3531 8.29739 22.3531 10.0805L22.3532 17.8193Z" fill="#2D383F"/>
<path d="M15.25 9.49964C12.796 9.49964 10.7996 11.4961 10.7996 13.9501C10.7996 16.404 12.796 18.4003 15.25 18.4003C17.7039 18.4003 19.7003 16.404 19.7003 13.9501C19.7003 11.4961 17.7039 9.49964 15.25 9.49964ZM15.25 16.8678C13.6411 16.8678 12.332 15.5589 12.332 13.95C12.332 12.3409 13.641 11.0319 15.25 11.0319C16.859 11.0319 18.1679 12.3409 18.1679 13.95C18.1679 15.5589 16.8589 16.8678 15.25 16.8678Z" fill="#2D383F"/>
<path d="M19.8869 8.20039C19.5917 8.20039 19.3016 8.31992 19.0931 8.52935C18.8836 8.73775 18.7631 9.02788 18.7631 9.32414C18.7631 9.61948 18.8837 9.90951 19.0931 10.1189C19.3015 10.3273 19.5917 10.4479 19.8869 10.4479C20.1832 10.4479 20.4723 10.3273 20.6818 10.1189C20.8912 9.90951 21.0107 9.61938 21.0107 9.32414C21.0107 9.02788 20.8912 8.73775 20.6818 8.52935C20.4733 8.31992 20.1832 8.20039 19.8869 8.20039Z" fill="#2D383F"/>
</symbol>


<symbol id='logo-2' width="226" height="62" viewBox="0 0 226 62" fill="none" xmlns="http://www.w3.org/2000/svg">
<g clip-path="url(#clip0_0_1)">
<path d="M22.7825 40.1768L28.2395 34.447L34.4468 40.1768H45.0878L28.1713 23.6013L11.3911 40.1768H22.7825Z" fill="#2D383F"/>
<path d="M38.4033 13.5742L30.3543 21.7596L35.6749 27.2166L38.4033 24.4881L53.3418 39.3583C49.9312 48.4305 41.2 54.9106 30.9 54.9106C17.6669 54.9106 6.95762 44.2014 6.95762 30.9682C7.02583 17.7351 17.7351 7.02583 30.9682 7.02583C42.7007 7.02583 52.5232 15.5523 54.5014 26.6709L61.7318 34.3106C61.8683 33.2192 61.9365 32.0596 61.9365 30.9682C61.9365 22.7146 58.7305 14.9384 52.8643 9.07219C46.998 3.20596 39.2219 0 30.9682 0C22.6464 0 14.9384 3.20596 9.07219 9.07219C3.20596 14.9384 0 22.6464 0 30.9682C0 39.2901 3.20596 46.998 9.07219 52.8643C14.9384 58.7305 22.7146 61.9365 30.9682 61.9365C39.2219 61.9365 46.998 58.7305 52.8643 52.8643C56.4795 49.249 59.0716 44.9517 60.504 40.2451C60.7769 39.4265 60.9815 38.5398 61.1861 37.7212L54.9106 31.1047L38.4033 13.5742Z" fill="#2D383F"/>
</g>
<path d="M93.4526 32.2034C91.7566 32.2034 90.2686 31.8994 88.9886 31.2914C87.7086 30.6674 86.7246 29.7954 86.0366 28.6754C85.3486 27.5554 85.0046 26.2674 85.0046 24.8114C85.0046 22.8914 85.4446 21.1634 86.3246 19.6274C87.2206 18.0914 88.4686 16.8914 90.0686 16.0274C91.6686 15.1634 93.4926 14.7314 95.5406 14.7314C97.0926 14.7314 98.4686 15.0114 99.6686 15.5714C100.869 16.1154 101.765 16.8914 102.357 17.8994L98.9246 20.6354C98.1086 19.3234 96.8766 18.6674 95.2286 18.6674C94.1566 18.6674 93.2126 18.9234 92.3966 19.4354C91.5806 19.9314 90.9406 20.6274 90.4766 21.5234C90.0286 22.4034 89.8046 23.3954 89.8046 24.4994C89.8046 25.6354 90.1726 26.5474 90.9086 27.2354C91.6446 27.9234 92.6446 28.2674 93.9086 28.2674C95.5086 28.2674 96.8766 27.6194 98.0126 26.3234L100.821 29.0834C99.9086 30.1874 98.8446 30.9874 97.6286 31.4834C96.4126 31.9634 95.0206 32.2034 93.4526 32.2034ZM113.818 28.6034H106.666L104.722 31.8674H99.7061L110.482 15.0674H115.162L119.218 31.8674H114.49L113.818 28.6034ZM113.098 25.0994L111.97 19.6514L108.754 25.0994H113.098ZM128.422 32.2034C126.966 32.2034 125.71 31.9634 124.654 31.4834C123.598 30.9874 122.79 30.2834 122.23 29.3714C121.67 28.4594 121.39 27.3874 121.39 26.1554C121.39 25.6434 121.454 25.0514 121.582 24.3794L123.454 15.0674H128.206L126.358 24.3074C126.262 24.7874 126.214 25.2274 126.214 25.6274C126.214 27.3874 127.142 28.2674 128.998 28.2674C130.006 28.2674 130.798 27.9634 131.374 27.3554C131.966 26.7314 132.406 25.7154 132.694 24.3074L134.542 15.0674H139.222L137.326 24.5954C136.302 29.6674 133.334 32.2034 128.422 32.2034ZM148.273 32.2034C146.577 32.2034 145.089 31.8994 143.809 31.2914C142.529 30.6674 141.545 29.7954 140.857 28.6754C140.169 27.5554 139.825 26.2674 139.825 24.8114C139.825 22.8914 140.265 21.1634 141.145 19.6274C142.041 18.0914 143.289 16.8914 144.889 16.0274C146.489 15.1634 148.313 14.7314 150.361 14.7314C151.913 14.7314 153.289 15.0114 154.489 15.5714C155.689 16.1154 156.585 16.8914 157.177 17.8994L153.745 20.6354C152.929 19.3234 151.697 18.6674 150.049 18.6674C148.977 18.6674 148.033 18.9234 147.217 19.4354C146.401 19.9314 145.761 20.6274 145.297 21.5234C144.849 22.4034 144.625 23.3954 144.625 24.4994C144.625 25.6354 144.993 26.5474 145.729 27.2354C146.465 27.9234 147.465 28.2674 148.729 28.2674C150.329 28.2674 151.697 27.6194 152.833 26.3234L155.641 29.0834C154.729 30.1874 153.665 30.9874 152.449 31.4834C151.233 31.9634 149.841 32.2034 148.273 32.2034ZM168.638 28.6034H161.486L159.542 31.8674H154.526L165.302 15.0674H169.982L174.038 31.8674H169.31L168.638 28.6034ZM167.918 25.0994L166.79 19.6514L163.574 25.0994H167.918ZM181.674 32.2034C180.282 32.2034 178.962 32.0354 177.714 31.6994C176.466 31.3634 175.45 30.9314 174.666 30.4034L176.538 26.8514C177.386 27.3954 178.29 27.8114 179.25 28.0994C180.21 28.3714 181.17 28.5074 182.13 28.5074C183.042 28.5074 183.746 28.3794 184.242 28.1234C184.754 27.8514 185.01 27.4834 185.01 27.0194C185.01 26.6194 184.778 26.3074 184.314 26.0834C183.866 25.8594 183.162 25.6194 182.202 25.3634C181.114 25.0754 180.21 24.7874 179.49 24.4994C178.77 24.1954 178.146 23.7394 177.618 23.1314C177.106 22.5234 176.85 21.7234 176.85 20.7314C176.85 19.5314 177.178 18.4834 177.834 17.5874C178.49 16.6754 179.426 15.9714 180.642 15.4754C181.858 14.9794 183.282 14.7314 184.914 14.7314C186.114 14.7314 187.234 14.8594 188.274 15.1154C189.314 15.3554 190.21 15.7074 190.962 16.1714L189.234 19.6994C188.578 19.2834 187.85 18.9714 187.05 18.7634C186.266 18.5394 185.458 18.4274 184.626 18.4274C183.682 18.4274 182.938 18.5794 182.394 18.8834C181.866 19.1874 181.602 19.5794 181.602 20.0594C181.602 20.4754 181.834 20.7954 182.298 21.0194C182.762 21.2434 183.482 21.4834 184.458 21.7394C185.546 22.0114 186.442 22.2914 187.146 22.5794C187.866 22.8674 188.482 23.3074 188.994 23.8994C189.506 24.4914 189.762 25.2674 189.762 26.2274C189.762 27.4114 189.426 28.4594 188.754 29.3714C188.098 30.2674 187.154 30.9634 185.922 31.4594C184.706 31.9554 183.29 32.2034 181.674 32.2034ZM199.133 32.2034C197.677 32.2034 196.421 31.9634 195.365 31.4834C194.309 30.9874 193.501 30.2834 192.941 29.3714C192.381 28.4594 192.101 27.3874 192.101 26.1554C192.101 25.6434 192.165 25.0514 192.293 24.3794L194.165 15.0674H198.917L197.069 24.3074C196.973 24.7874 196.925 25.2274 196.925 25.6274C196.925 27.3874 197.853 28.2674 199.709 28.2674C200.717 28.2674 201.509 27.9634 202.085 27.3554C202.677 26.7314 203.117 25.7154 203.405 24.3074L205.253 15.0674H209.933L208.037 24.5954C207.013 29.6674 204.045 32.2034 199.133 32.2034ZM216.08 32.2034C214.688 32.2034 213.368 32.0354 212.12 31.6994C210.872 31.3634 209.856 30.9314 209.072 30.4034L210.944 26.8514C211.792 27.3954 212.696 27.8114 213.656 28.0994C214.616 28.3714 215.576 28.5074 216.536 28.5074C217.448 28.5074 218.152 28.3794 218.648 28.1234C219.16 27.8514 219.416 27.4834 219.416 27.0194C219.416 26.6194 219.184 26.3074 218.72 26.0834C218.272 25.8594 217.568 25.6194 216.608 25.3634C215.52 25.0754 214.616 24.7874 213.896 24.4994C213.176 24.1954 212.552 23.7394 212.024 23.1314C211.512 22.5234 211.256 21.7234 211.256 20.7314C211.256 19.5314 211.584 18.4834 212.24 17.5874C212.896 16.6754 213.832 15.9714 215.048 15.4754C216.264 14.9794 217.688 14.7314 219.32 14.7314C220.52 14.7314 221.64 14.8594 222.68 15.1154C223.72 15.3554 224.616 15.7074 225.368 16.1714L223.64 19.6994C222.984 19.2834 222.256 18.9714 221.456 18.7634C220.672 18.5394 219.864 18.4274 219.032 18.4274C218.088 18.4274 217.344 18.5794 216.8 18.8834C216.272 19.1874 216.008 19.5794 216.008 20.0594C216.008 20.4754 216.24 20.7954 216.704 21.0194C217.168 21.2434 217.888 21.4834 218.864 21.7394C219.952 22.0114 220.848 22.2914 221.552 22.5794C222.272 22.8674 222.888 23.3074 223.4 23.8994C223.912 24.4914 224.168 25.2674 224.168 26.2274C224.168 27.4114 223.832 28.4594 223.16 29.3714C222.504 30.2674 221.56 30.9634 220.328 31.4594C219.112 31.9554 217.696 32.2034 216.08 32.2034Z" fill="#2D383F"/>
<path d="M87.3006 51.0216C86.746 51.0216 86.242 50.899 85.7886 50.6536C85.3406 50.403 84.9886 50.0616 84.7326 49.6296C84.482 49.1976 84.3566 48.7123 84.3566 48.1736C84.3566 47.635 84.482 47.1496 84.7326 46.7176C84.9886 46.2856 85.3406 45.947 85.7886 45.7016C86.242 45.451 86.746 45.3256 87.3006 45.3256C87.8553 45.3256 88.354 45.4483 88.7966 45.6936C89.2446 45.939 89.5966 46.2803 89.8526 46.7176C90.1086 47.1496 90.2366 47.635 90.2366 48.1736C90.2366 48.7123 90.1086 49.2003 89.8526 49.6376C89.5966 50.0696 89.2446 50.4083 88.7966 50.6536C88.354 50.899 87.8553 51.0216 87.3006 51.0216ZM87.3006 50.4936C87.7433 50.4936 88.1433 50.395 88.5006 50.1976C88.858 49.995 89.138 49.7176 89.3406 49.3656C89.5433 49.0083 89.6446 48.611 89.6446 48.1736C89.6446 47.7363 89.5433 47.3416 89.3406 46.9896C89.138 46.6323 88.858 46.355 88.5006 46.1576C88.1433 45.955 87.7433 45.8536 87.3006 45.8536C86.858 45.8536 86.4553 45.955 86.0926 46.1576C85.7353 46.355 85.4526 46.6323 85.2446 46.9896C85.042 47.3416 84.9406 47.7363 84.9406 48.1736C84.9406 48.611 85.042 49.0083 85.2446 49.3656C85.4526 49.7176 85.7353 49.995 86.0926 50.1976C86.4553 50.395 86.858 50.4936 87.3006 50.4936ZM93.6813 46.7336C94.076 46.7336 94.4333 46.8243 94.7533 47.0056C95.0733 47.1816 95.324 47.4323 95.5053 47.7576C95.6867 48.083 95.7773 48.4536 95.7773 48.8696C95.7773 49.291 95.6867 49.6643 95.5053 49.9896C95.324 50.315 95.0733 50.5683 94.7533 50.7496C94.4387 50.9256 94.0813 51.0136 93.6813 51.0136C93.34 51.0136 93.0307 50.9443 92.7533 50.8056C92.4813 50.6616 92.2573 50.4536 92.0813 50.1816V52.5256H91.5133V46.7656H92.0573V47.5976C92.228 47.3203 92.452 47.107 92.7293 46.9576C93.012 46.8083 93.3293 46.7336 93.6813 46.7336ZM93.6413 50.5096C93.9347 50.5096 94.2013 50.443 94.4413 50.3096C94.6813 50.171 94.868 49.9763 95.0013 49.7256C95.14 49.475 95.2093 49.1896 95.2093 48.8696C95.2093 48.5496 95.14 48.267 95.0013 48.0216C94.868 47.771 94.6813 47.5763 94.4413 47.4376C94.2013 47.299 93.9347 47.2296 93.6413 47.2296C93.3427 47.2296 93.0733 47.299 92.8333 47.4376C92.5987 47.5763 92.412 47.771 92.2733 48.0216C92.14 48.267 92.0733 48.5496 92.0733 48.8696C92.0733 49.1896 92.14 49.475 92.2733 49.7256C92.412 49.9763 92.5987 50.171 92.8333 50.3096C93.0733 50.443 93.3427 50.5096 93.6413 50.5096ZM99.9737 47.2696H97.5657V50.9736H96.9977V46.7656H99.9737V47.2696ZM102.243 46.7336C102.792 46.7336 103.213 46.8723 103.507 47.1496C103.8 47.4216 103.947 47.827 103.947 48.3656V50.9736H103.403V50.3176C103.275 50.5363 103.085 50.707 102.835 50.8296C102.589 50.9523 102.296 51.0136 101.955 51.0136C101.485 51.0136 101.112 50.9016 100.835 50.6776C100.557 50.4536 100.419 50.1576 100.419 49.7896C100.419 49.4323 100.547 49.1443 100.803 48.9256C101.064 48.707 101.477 48.5976 102.043 48.5976H103.379V48.3416C103.379 47.979 103.277 47.7043 103.075 47.5176C102.872 47.3256 102.576 47.2296 102.187 47.2296C101.92 47.2296 101.664 47.275 101.419 47.3656C101.173 47.451 100.963 47.571 100.787 47.7256L100.531 47.3016C100.744 47.1203 101 46.9816 101.299 46.8856C101.597 46.7843 101.912 46.7336 102.243 46.7336ZM102.043 50.5656C102.363 50.5656 102.637 50.4936 102.867 50.3496C103.096 50.2003 103.267 49.987 103.379 49.7096V49.0216H102.059C101.339 49.0216 100.979 49.2723 100.979 49.7736C100.979 50.019 101.072 50.2136 101.259 50.3576C101.445 50.4963 101.707 50.5656 102.043 50.5656ZM105.459 46.7656H106.027V48.6296H108.675V46.7656H109.243V50.9736H108.675V49.1176H106.027V50.9736H105.459V46.7656ZM110.857 46.7656H111.425V50.1096L114.233 46.7656H114.737V50.9736H114.169V47.6296L111.369 50.9736H110.857V46.7656ZM118.327 48.7816C118.626 48.851 118.855 48.971 119.015 49.1416C119.18 49.3123 119.263 49.5203 119.263 49.7656C119.263 50.011 119.178 50.2296 119.007 50.4216C118.842 50.6136 118.615 50.763 118.327 50.8696C118.039 50.971 117.722 51.0216 117.375 51.0216C117.071 51.0216 116.772 50.979 116.479 50.8936C116.186 50.803 115.93 50.6723 115.711 50.5016L115.903 50.0776C116.095 50.2216 116.319 50.3336 116.575 50.4136C116.831 50.4936 117.09 50.5336 117.351 50.5336C117.74 50.5336 118.058 50.4616 118.303 50.3176C118.554 50.1683 118.679 49.9683 118.679 49.7176C118.679 49.4936 118.578 49.3203 118.375 49.1976C118.172 49.0696 117.895 49.0056 117.543 49.0056H116.823V48.5896H117.511C117.826 48.5896 118.079 48.531 118.271 48.4136C118.463 48.291 118.559 48.1283 118.559 47.9256C118.559 47.7016 118.45 47.5256 118.231 47.3976C118.018 47.2696 117.738 47.2056 117.391 47.2056C116.938 47.2056 116.49 47.3203 116.047 47.5496L115.887 47.1096C116.388 46.8483 116.908 46.7176 117.447 46.7176C117.767 46.7176 118.055 46.7656 118.311 46.8616C118.572 46.9523 118.775 47.083 118.919 47.2536C119.068 47.4243 119.143 47.6216 119.143 47.8456C119.143 48.059 119.068 48.2483 118.919 48.4136C118.775 48.579 118.578 48.7016 118.327 48.7816ZM122 46.7336C122.55 46.7336 122.971 46.8723 123.264 47.1496C123.558 47.4216 123.704 47.827 123.704 48.3656V50.9736H123.16V50.3176C123.032 50.5363 122.843 50.707 122.592 50.8296C122.347 50.9523 122.054 51.0136 121.712 51.0136C121.243 51.0136 120.87 50.9016 120.592 50.6776C120.315 50.4536 120.176 50.1576 120.176 49.7896C120.176 49.4323 120.304 49.1443 120.56 48.9256C120.822 48.707 121.235 48.5976 121.8 48.5976H123.136V48.3416C123.136 47.979 123.035 47.7043 122.832 47.5176C122.63 47.3256 122.334 47.2296 121.944 47.2296C121.678 47.2296 121.422 47.275 121.176 47.3656C120.931 47.451 120.72 47.571 120.544 47.7256L120.288 47.3016C120.502 47.1203 120.758 46.9816 121.056 46.8856C121.355 46.7843 121.67 46.7336 122 46.7336ZM121.8 50.5656C122.12 50.5656 122.395 50.4936 122.624 50.3496C122.854 50.2003 123.024 49.987 123.136 49.7096V49.0216H121.816C121.096 49.0216 120.736 49.2723 120.736 49.7736C120.736 50.019 120.83 50.2136 121.016 50.3576C121.203 50.4963 121.464 50.5656 121.8 50.5656ZM129.6 50.4776V52.0296H129.064V50.9736H125.216V46.7656H125.784V50.4776H128.352V46.7656H128.92V50.4776H129.6ZM130.685 46.7656H131.253V50.1096L134.061 46.7656H134.565V50.9736H133.997V47.6296L131.197 50.9736H130.685V46.7656ZM139.425 46.7656V50.9736H138.905V49.5816H137.585H137.425L136.449 50.9736H135.833L136.881 49.5016C136.556 49.411 136.305 49.2563 136.129 49.0376C135.953 48.819 135.865 48.5416 135.865 48.2056C135.865 47.7363 136.025 47.379 136.345 47.1336C136.665 46.8883 137.102 46.7656 137.657 46.7656H139.425ZM136.441 48.2216C136.441 48.8456 136.838 49.1576 137.633 49.1576H138.905V47.2696H137.673C136.852 47.2696 136.441 47.587 136.441 48.2216ZM146.914 46.7656V50.9736H146.346V47.2696H143.706V50.9736H143.138V46.7656H146.914ZM150.265 51.0136C149.86 51.0136 149.494 50.923 149.169 50.7416C148.844 50.555 148.588 50.299 148.401 49.9736C148.214 49.6483 148.121 49.2803 148.121 48.8696C148.121 48.459 148.214 48.091 148.401 47.7656C148.588 47.4403 148.844 47.187 149.169 47.0056C149.494 46.8243 149.86 46.7336 150.265 46.7336C150.67 46.7336 151.036 46.8243 151.361 47.0056C151.686 47.187 151.94 47.4403 152.121 47.7656C152.308 48.091 152.401 48.459 152.401 48.8696C152.401 49.2803 152.308 49.6483 152.121 49.9736C151.94 50.299 151.686 50.555 151.361 50.7416C151.036 50.923 150.67 51.0136 150.265 51.0136ZM150.265 50.5096C150.564 50.5096 150.83 50.443 151.065 50.3096C151.305 50.171 151.492 49.9763 151.625 49.7256C151.758 49.475 151.825 49.1896 151.825 48.8696C151.825 48.5496 151.758 48.2643 151.625 48.0136C151.492 47.763 151.305 47.571 151.065 47.4376C150.83 47.299 150.564 47.2296 150.265 47.2296C149.966 47.2296 149.697 47.299 149.457 47.4376C149.222 47.571 149.036 47.763 148.897 48.0136C148.764 48.2643 148.697 48.5496 148.697 48.8696C148.697 49.1896 148.764 49.475 148.897 49.7256C149.036 49.9763 149.222 50.171 149.457 50.3096C149.697 50.443 149.966 50.5096 150.265 50.5096ZM156.098 50.9736L154.762 49.2136L153.418 50.9736H152.778L154.442 48.8136L152.858 46.7656H153.498L154.762 48.4136L156.026 46.7656H156.65L155.066 48.8136L156.746 50.9736H156.098ZM159.265 51.0136C158.86 51.0136 158.494 50.923 158.169 50.7416C157.844 50.555 157.588 50.299 157.401 49.9736C157.214 49.6483 157.121 49.2803 157.121 48.8696C157.121 48.459 157.214 48.091 157.401 47.7656C157.588 47.4403 157.844 47.187 158.169 47.0056C158.494 46.8243 158.86 46.7336 159.265 46.7336C159.67 46.7336 160.036 46.8243 160.361 47.0056C160.686 47.187 160.94 47.4403 161.121 47.7656C161.308 48.091 161.401 48.459 161.401 48.8696C161.401 49.2803 161.308 49.6483 161.121 49.9736C160.94 50.299 160.686 50.555 160.361 50.7416C160.036 50.923 159.67 51.0136 159.265 51.0136ZM159.265 50.5096C159.564 50.5096 159.83 50.443 160.065 50.3096C160.305 50.171 160.492 49.9763 160.625 49.7256C160.758 49.475 160.825 49.1896 160.825 48.8696C160.825 48.5496 160.758 48.2643 160.625 48.0136C160.492 47.763 160.305 47.571 160.065 47.4376C159.83 47.299 159.564 47.2296 159.265 47.2296C158.966 47.2296 158.697 47.299 158.457 47.4376C158.222 47.571 158.036 47.763 157.897 48.0136C157.764 48.2643 157.697 48.5496 157.697 48.8696C157.697 49.1896 157.764 49.475 157.897 49.7256C158.036 49.9763 158.222 50.171 158.457 50.3096C158.697 50.443 158.966 50.5096 159.265 50.5096ZM166.695 50.4776V51.9896H166.159V50.9736H162.391V51.9896H161.855V50.4776H162.095C162.378 50.4616 162.57 50.2536 162.671 49.8536C162.773 49.4536 162.842 48.8936 162.879 48.1736L162.935 46.7656H166.039V50.4776H166.695ZM163.399 48.2056C163.373 48.803 163.322 49.2963 163.247 49.6856C163.173 50.0696 163.039 50.3336 162.847 50.4776H165.471V47.2696H163.447L163.399 48.2056ZM169.538 51.0136C169.133 51.0136 168.768 50.923 168.442 50.7416C168.117 50.555 167.861 50.299 167.674 49.9736C167.488 49.6483 167.394 49.2803 167.394 48.8696C167.394 48.459 167.488 48.091 167.674 47.7656C167.861 47.4403 168.117 47.187 168.442 47.0056C168.768 46.8243 169.133 46.7336 169.538 46.7336C169.944 46.7336 170.309 46.8243 170.634 47.0056C170.96 47.187 171.213 47.4403 171.394 47.7656C171.581 48.091 171.674 48.459 171.674 48.8696C171.674 49.2803 171.581 49.6483 171.394 49.9736C171.213 50.299 170.96 50.555 170.634 50.7416C170.309 50.923 169.944 51.0136 169.538 51.0136ZM169.538 50.5096C169.837 50.5096 170.104 50.443 170.338 50.3096C170.578 50.171 170.765 49.9763 170.898 49.7256C171.032 49.475 171.098 49.1896 171.098 48.8696C171.098 48.5496 171.032 48.2643 170.898 48.0136C170.765 47.763 170.578 47.571 170.338 47.4376C170.104 47.299 169.837 47.2296 169.538 47.2296C169.24 47.2296 168.97 47.299 168.73 47.4376C168.496 47.571 168.309 47.763 168.17 48.0136C168.037 48.2643 167.97 48.5496 167.97 48.8696C167.97 49.1896 168.037 49.475 168.17 49.7256C168.309 49.9763 168.496 50.171 168.73 50.3096C168.97 50.443 169.24 50.5096 169.538 50.5096ZM175.568 48.7976C176.139 48.931 176.424 49.275 176.424 49.8296C176.424 50.1976 176.288 50.4803 176.016 50.6776C175.744 50.875 175.339 50.9736 174.8 50.9736H172.888V46.7656H174.744C175.224 46.7656 175.6 46.859 175.872 47.0456C176.144 47.2323 176.28 47.499 176.28 47.8456C176.28 48.075 176.216 48.2723 176.088 48.4376C175.966 48.5976 175.792 48.7176 175.568 48.7976ZM173.44 48.6376H174.704C175.03 48.6376 175.278 48.5763 175.448 48.4536C175.624 48.331 175.712 48.1523 175.712 47.9176C175.712 47.683 175.624 47.507 175.448 47.3896C175.278 47.2723 175.03 47.2136 174.704 47.2136H173.44V48.6376ZM174.776 50.5256C175.139 50.5256 175.411 50.467 175.592 50.3496C175.774 50.2323 175.864 50.0483 175.864 49.7976C175.864 49.547 175.782 49.363 175.616 49.2456C175.451 49.123 175.19 49.0616 174.832 49.0616H173.44V50.5256H174.776ZM182.529 48.7976C183.1 48.931 183.385 49.275 183.385 49.8296C183.385 50.1976 183.249 50.4803 182.977 50.6776C182.705 50.875 182.3 50.9736 181.761 50.9736H179.849V46.7656H181.705C182.185 46.7656 182.561 46.859 182.833 47.0456C183.105 47.2323 183.241 47.499 183.241 47.8456C183.241 48.075 183.177 48.2723 183.049 48.4376C182.927 48.5976 182.753 48.7176 182.529 48.7976ZM180.401 48.6376H181.665C181.991 48.6376 182.239 48.5763 182.409 48.4536C182.585 48.331 182.673 48.1523 182.673 47.9176C182.673 47.683 182.585 47.507 182.409 47.3896C182.239 47.2723 181.991 47.2136 181.665 47.2136H180.401V48.6376ZM181.737 50.5256C182.1 50.5256 182.372 50.467 182.553 50.3496C182.735 50.2323 182.825 50.0483 182.825 49.7976C182.825 49.547 182.743 49.363 182.577 49.2456C182.412 49.123 182.151 49.0616 181.793 49.0616H180.401V50.5256H181.737ZM189.786 47.2696H187.378V50.9736H186.81V46.7656H189.786V47.2696ZM192.148 51.0136C191.742 51.0136 191.377 50.923 191.052 50.7416C190.726 50.555 190.47 50.299 190.284 49.9736C190.097 49.6483 190.004 49.2803 190.004 48.8696C190.004 48.459 190.097 48.091 190.284 47.7656C190.47 47.4403 190.726 47.187 191.052 47.0056C191.377 46.8243 191.742 46.7336 192.148 46.7336C192.553 46.7336 192.918 46.8243 193.244 47.0056C193.569 47.187 193.822 47.4403 194.004 47.7656C194.19 48.091 194.284 48.459 194.284 48.8696C194.284 49.2803 194.19 49.6483 194.004 49.9736C193.822 50.299 193.569 50.555 193.244 50.7416C192.918 50.923 192.553 51.0136 192.148 51.0136ZM192.148 50.5096C192.446 50.5096 192.713 50.443 192.948 50.3096C193.188 50.171 193.374 49.9763 193.508 49.7256C193.641 49.475 193.708 49.1896 193.708 48.8696C193.708 48.5496 193.641 48.2643 193.508 48.0136C193.374 47.763 193.188 47.571 192.948 47.4376C192.713 47.299 192.446 47.2296 192.148 47.2296C191.849 47.2296 191.58 47.299 191.34 47.4376C191.105 47.571 190.918 47.763 190.78 48.0136C190.646 48.2643 190.58 48.5496 190.58 48.8696C190.58 49.1896 190.646 49.475 190.78 49.7256C190.918 49.9763 191.105 50.171 191.34 50.3096C191.58 50.443 191.849 50.5096 192.148 50.5096ZM197.666 46.7336C198.06 46.7336 198.418 46.8243 198.738 47.0056C199.058 47.1816 199.308 47.4323 199.49 47.7576C199.671 48.083 199.762 48.4536 199.762 48.8696C199.762 49.291 199.671 49.6643 199.49 49.9896C199.308 50.315 199.058 50.5683 198.738 50.7496C198.423 50.9256 198.066 51.0136 197.666 51.0136C197.324 51.0136 197.015 50.9443 196.738 50.8056C196.466 50.6616 196.242 50.4536 196.066 50.1816V52.5256H195.498V46.7656H196.042V47.5976C196.212 47.3203 196.436 47.107 196.714 46.9576C196.996 46.8083 197.314 46.7336 197.666 46.7336ZM197.626 50.5096C197.919 50.5096 198.186 50.443 198.426 50.3096C198.666 50.171 198.852 49.9763 198.986 49.7256C199.124 49.475 199.194 49.1896 199.194 48.8696C199.194 48.5496 199.124 48.267 198.986 48.0216C198.852 47.771 198.666 47.5763 198.426 47.4376C198.186 47.299 197.919 47.2296 197.626 47.2296C197.327 47.2296 197.058 47.299 196.818 47.4376C196.583 47.5763 196.396 47.771 196.258 48.0216C196.124 48.267 196.058 48.5496 196.058 48.8696C196.058 49.1896 196.124 49.475 196.258 49.7256C196.396 49.9763 196.583 50.171 196.818 50.3096C197.058 50.443 197.327 50.5096 197.626 50.5096ZM202.75 48.2536C203.278 48.259 203.681 48.3763 203.958 48.6056C204.235 48.835 204.374 49.1656 204.374 49.5976C204.374 50.0456 204.225 50.3896 203.926 50.6296C203.627 50.8696 203.201 50.987 202.646 50.9816L200.982 50.9736V46.7656H201.55V48.2376L202.75 48.2536ZM205.078 46.7656H205.646V50.9736H205.078V46.7656ZM202.614 50.5496C203.003 50.555 203.297 50.4776 203.494 50.3176C203.697 50.1523 203.798 49.9123 203.798 49.5976C203.798 49.2883 203.699 49.059 203.502 48.9096C203.305 48.7603 203.009 48.683 202.614 48.6776L201.55 48.6616V50.5336L202.614 50.5496Z" fill="#2D383F"/>
<defs>
<clipPath id="clip0_0_1">
<rect width="61.8683" height="61.8683" fill="white"/>
</clipPath>
</defs>
</symbol>



</svg>
