<svg>

<symbol id="top-section-vk" width="22" height="22" viewBox="0 0 22 22" fill="none" xmlns="http://www.w3.org/2000/svg">
<rect opacity="0.432" width="21.3043" height="21.3043" fill="#0266C1"/>
<path d="M16.8931 13.6836C16.8608 13.6296 16.6613 13.196 15.7012 12.305C14.6961 11.3719 14.8311 11.5234 16.0417 9.91003C16.779 8.92745 17.0738 8.32741 16.9816 8.07089C16.8938 7.82637 16.3515 7.89088 16.3515 7.89088L14.5484 7.90138C14.5484 7.90138 14.4149 7.88337 14.3151 7.94263C14.2184 8.00113 14.1561 8.13614 14.1561 8.13614C14.1561 8.13614 13.8703 8.8967 13.4893 9.54325C12.686 10.9076 12.3642 10.9796 12.233 10.8948C11.9277 10.6976 12.0042 10.1013 12.0042 9.67826C12.0042 8.35591 12.2045 7.80462 11.6134 7.66211C11.4169 7.61485 11.2729 7.58335 10.7711 7.5781C10.1275 7.57135 9.58226 7.58035 9.27398 7.73111C9.06847 7.83162 8.91021 8.05589 9.00696 8.06864C9.12622 8.08439 9.39624 8.14139 9.5395 8.33641C9.72477 8.58768 9.71802 9.15322 9.71802 9.15322C9.71802 9.15322 9.82453 10.7096 9.46975 10.9031C9.22598 11.0359 8.89221 10.7651 8.1759 9.52675C7.80913 8.89295 7.53161 8.19165 7.53161 8.19165C7.53161 8.19165 7.47835 8.06114 7.38309 7.99138C7.26759 7.90663 7.10557 7.87962 7.10557 7.87962L5.39095 7.89013C5.39095 7.89013 5.13368 7.89763 5.03917 8.00938C4.95516 8.10914 5.03242 8.31466 5.03242 8.31466C5.03242 8.31466 6.37502 11.4551 7.89463 13.0385C9.28899 14.4899 10.8716 14.3946 10.8716 14.3946H11.5887C11.5887 14.3946 11.8054 14.3706 11.9157 14.2513C12.0177 14.1418 12.0139 13.9363 12.0139 13.9363C12.0139 13.9363 11.9997 12.974 12.4467 12.8322C12.887 12.6927 13.4525 13.7623 14.0518 14.1741C14.5049 14.4854 14.8491 14.4171 14.8491 14.4171L16.452 14.3946C16.452 14.3946 17.2906 14.3429 16.8931 13.6836Z" fill="white"/>
</symbol>

<symbol id="top-section-fb" width="22" height="22" viewBox="0 0 22 22" fill="none" xmlns="http://www.w3.org/2000/svg">
<rect opacity="0.432" x="0.347656" width="21.3043" height="21.3043" fill="#0266C1"/>
<path d="M11.6657 8.98786V7.65633C11.6657 7.28883 11.964 6.99057 12.3315 6.99057H12.9972V5.32617H11.6657C10.5626 5.32617 9.66844 6.22029 9.66844 7.32345V8.98786H8.33691V10.6523H9.66844V15.9783H11.6657V10.6523H12.9972L13.663 8.98786H11.6657Z" fill="white"/>
</symbol>

<symbol id="top-section-insta" width="22" height="22" viewBox="0 0 22 22" fill="none" xmlns="http://www.w3.org/2000/svg">
<rect opacity="0.432" x="0.695801" width="21.3043" height="21.3043" fill="#0266C1"/>
<path d="M14.4124 4H8.58745C6.60933 4 5 5.60941 5 7.58753V13.4125C5 15.3907 6.60933 17 8.58745 17H14.4124C16.3907 17 18 15.3906 18 13.4125V7.58753C18.0001 5.60941 16.3907 4 14.4124 4ZM16.8467 13.4125C16.8467 14.7547 15.7547 15.8466 14.4125 15.8466H8.58745C7.24533 15.8467 6.15342 14.7547 6.15342 13.4125V7.58753C6.15342 6.24541 7.24533 5.15342 8.58745 5.15342H14.4124C15.7546 5.15342 16.8466 6.24541 16.8466 7.58753L16.8467 13.4125Z" fill="white"/>
<path d="M11.5001 7.15033C9.65297 7.15033 8.1503 8.65301 8.1503 10.5001C8.1503 12.3471 9.65297 13.8497 11.5001 13.8497C13.3471 13.8497 14.8498 12.3471 14.8498 10.5001C14.8498 8.65301 13.3471 7.15033 11.5001 7.15033ZM11.5001 12.6962C10.289 12.6962 9.30372 11.7111 9.30372 10.5C9.30372 9.28893 10.289 8.30368 11.5001 8.30368C12.7112 8.30368 13.6964 9.28893 13.6964 10.5C13.6964 11.7111 12.7111 12.6962 11.5001 12.6962Z" fill="white"/>
<path d="M14.9903 6.1724C14.768 6.1724 14.5497 6.26236 14.3928 6.41999C14.235 6.57686 14.1444 6.79524 14.1444 7.01823C14.1444 7.24053 14.2351 7.45883 14.3928 7.61646C14.5496 7.77333 14.768 7.86406 14.9903 7.86406C15.2133 7.86406 15.4309 7.77333 15.5885 7.61646C15.7462 7.45883 15.8362 7.24045 15.8362 7.01823C15.8362 6.79524 15.7462 6.57686 15.5885 6.41999C15.4317 6.26236 15.2133 6.1724 14.9903 6.1724Z" fill="white"/>
</symbol>

<symbol id='logo-1' width="62" height="62" viewBox="0 0 62 62" fill="none" xmlns="http://www.w3.org/2000/svg">
<path d="M38.4033 13.5742L30.3543 21.7596L35.6749 27.2166L38.4033 24.4881L53.3418 39.3583C49.9312 48.4305 41.2 54.9106 30.9 54.9106C17.6669 54.9106 6.95762 44.2014 6.95762 30.9682C7.02583 17.7351 17.7351 7.02583 30.9682 7.02583C42.7007 7.02583 52.5232 15.5523 54.5014 26.6709L61.7318 34.3106C61.8683 33.2192 61.9365 32.0596 61.9365 30.9682C61.9365 22.7146 58.7305 14.9384 52.8643 9.07219C46.998 3.20596 39.2219 0 30.9682 0C22.6464 0 14.9384 3.20596 9.07219 9.07219C3.20596 14.9384 0 22.6464 0 30.9682C0 39.2901 3.20596 46.998 9.07219 52.8643C14.9384 58.7305 22.7146 61.9365 30.9682 61.9365C39.2219 61.9365 46.998 58.7305 52.8643 52.8643C56.4795 49.249 59.0716 44.9517 60.504 40.2451C60.7769 39.4265 60.9815 38.5398 61.1861 37.7212L54.9106 31.1047L38.4033 13.5742Z" fill="white"/>
</symbol>

<symbol id='logo-2' width="35" height="18" viewBox="0 0 35 18" fill="none" xmlns="http://www.w3.org/2000/svg">
<path d="M11.7825 17.1768L17.2395 11.447L23.4468 17.1768H34.0878L17.1713 0.601318L0.391113 17.1768H11.7825Z" fill="white"/>
</symbol>

<symbol id="back-button" width="37" height="35" viewBox="0 0 37 35" fill="none" xmlns="http://www.w3.org/2000/svg">
<rect width="37" height="35" fill="#0266C1"/>
<path d="M11.6464 18.3536C11.4512 18.1583 11.4512 17.8417 11.6464 17.6464L14.8284 14.4645C15.0237 14.2692 15.3403 14.2692 15.5355 14.4645C15.7308 14.6597 15.7308 14.9763 15.5355 15.1716L12.7071 18L15.5355 20.8284C15.7308 21.0237 15.7308 21.3403 15.5355 21.5355C15.3403 21.7308 15.0237 21.7308 14.8284 21.5355L11.6464 18.3536ZM25 18.5H12V17.5H25V18.5Z" fill="white"/>
</symbol>

<symbol id="next-button" width="37" height="35" viewBox="0 0 37 35" fill="none" xmlns="http://www.w3.org/2000/svg">
<rect width="37" height="35" fill="#0266C1"/>
<path d="M26.3536 18.3536C26.5488 18.1583 26.5488 17.8417 26.3536 17.6464L23.1716 14.4645C22.9763 14.2692 22.6597 14.2692 22.4645 14.4645C22.2692 14.6597 22.2692 14.9763 22.4645 15.1716L25.2929 18L22.4645 20.8284C22.2692 21.0237 22.2692 21.3403 22.4645 21.5355C22.6597 21.7308 22.9763 21.7308 23.1716 21.5355L26.3536 18.3536ZM13 18.5H26V17.5H13V18.5Z" fill="white"/>
</symbol>

<symbol id='map' width="25" height="25" viewBox="0 0 25 25" fill="none" xmlns="http://www.w3.org/2000/svg">
<path d="M24.1702 22.2803V6.70123C24.1821 6.44571 23.9845 6.22897 23.7291 6.2171C23.6746 6.21456 23.6201 6.22168 23.5681 6.23812V6.26127L21.4841 6.91426C21.7023 6.33016 21.8319 5.71665 21.8685 5.09423C21.8685 2.28077 19.5878 0 16.7743 0C13.9608 0 11.6801 2.28077 11.6801 5.09423C11.7126 5.68754 11.8327 6.27279 12.0367 6.8309L8.5911 5.59902C8.5511 5.5941 8.51069 5.5941 8.47069 5.59902H8.43364C8.37813 5.60001 8.32319 5.61101 8.27155 5.63144L1.12574 8.41011C0.960927 8.47281 0.846018 8.62361 0.829346 8.79913V16.246V24.3967C0.830098 24.6525 1.03804 24.8592 1.29385 24.8585C1.3504 24.8583 1.40644 24.8478 1.45918 24.8274L8.44291 22.1229L16.4084 24.9756C16.5046 25.0081 16.6087 25.0081 16.7048 24.9756L23.846 22.7434C24.0467 22.6806 24.1798 22.4904 24.1702 22.2803ZM16.7743 0.926224C19.0762 0.926224 20.9423 2.79228 20.9423 5.09423C20.9423 6.905 18.2238 11.9066 16.7743 14.3565C15.3248 11.8881 12.6063 6.88184 12.6063 5.09423C12.6063 2.79228 14.4723 0.926224 16.7743 0.926224ZM23.2579 21.9608L17.0244 23.9105V20.3769C17.0244 20.1212 16.817 19.9138 16.5613 19.9138C16.3055 19.9138 16.0981 20.1212 16.0981 20.3769V23.8781L8.90139 21.3032V18.3392C8.90139 18.0835 8.69403 17.8761 8.43828 17.8761C8.18252 17.8761 7.97516 18.0835 7.97516 18.3392V21.3032L1.75557 23.7252V16.5655L4.04334 15.6393C4.28816 15.5652 4.42651 15.3067 4.35241 15.0618C4.27831 14.817 4.01978 14.6787 3.77497 14.7528C3.74938 14.7605 3.72449 14.7705 3.70058 14.7825L1.75551 15.5652V9.11867L7.97511 6.71049V8.09983C7.97511 8.35558 8.18246 8.56294 8.43822 8.56294C8.69397 8.56294 8.90133 8.35558 8.90133 8.09983V6.69197L12.4534 7.96553C13.5925 10.5687 14.9029 13.0936 16.376 15.5235C16.5086 15.7422 16.7934 15.8119 17.0121 15.6793C17.0758 15.6407 17.1292 15.5872 17.1679 15.5235C18.6337 13.1079 19.9394 10.5985 21.0765 8.01184L23.2439 7.33106L23.2578 14.9215L20.9098 15.4911C20.6541 15.5218 20.4716 15.754 20.5023 16.0098C20.533 16.2655 20.7652 16.448 21.021 16.4173C21.0579 16.4218 21.0952 16.4218 21.1321 16.4173L23.2578 15.8986V21.9608H23.2579Z" fill="#2D383F"/>
</symbol>

<symbol id='skate' width="24" height="22" viewBox="0 0 24 22" fill="none" xmlns="http://www.w3.org/2000/svg">
<path d="M23.6583 14.6155C24.404 12.2804 23.7904 9.63006 23.1385 7.79353C23.1342 7.72248 23.1123 7.65361 23.0746 7.59326C22.853 6.99671 22.6484 6.50669 22.4737 6.15302C22.7953 6.02497 23.0075 5.71508 23.0106 5.36898V1.8195C23.0106 1.34881 22.6291 0.967282 22.1584 0.967282H11.6889C11.4536 0.966856 11.2625 1.15727 11.2621 1.39264C11.2621 1.40143 11.2624 1.41022 11.2628 1.41896C11.4077 3.9756 11.2202 5.70986 10.6791 6.93279C10.6683 6.94494 10.6583 6.95777 10.6492 6.97114C10.6476 6.9924 10.6476 7.01381 10.6492 7.03506C10.4427 7.48024 10.1633 7.88775 9.82259 8.24095L9.78424 8.26651C9.78424 8.26651 9.78424 8.26651 9.78424 8.29634C9.28468 8.77278 8.70853 9.16171 8.07981 9.44683C6.98439 9.93286 5.86021 10.3512 4.71355 10.6996L4.49624 10.772C0.512129 12.093 -0.00772321 14.4877 0.000798953 15.6893C-0.000266318 15.7064 -0.000266318 15.7234 0.000798953 15.7404V18.7829C0.00143811 18.9309 0.07883 19.068 0.205331 19.145C1.18176 19.7391 2.23574 20.1951 3.33723 20.5001C3.56375 20.5638 3.79907 20.4318 3.86278 20.2052C3.87476 20.1625 3.88003 20.1182 3.87838 20.074V19.976H4.50476V20.4021C4.50204 20.6131 4.65433 20.7944 4.86269 20.8282C5.23341 20.8878 5.60412 20.9347 5.96631 20.9645C6.08498 20.9745 6.20243 20.9343 6.29015 20.8537C6.37783 20.7724 6.42731 20.658 6.42651 20.5384V20.0015H7.05289V20.6066C7.05289 20.8419 7.24368 21.0327 7.479 21.0327C7.83693 21.0327 8.19486 21.0327 8.57835 20.9816C8.8003 20.9638 8.97107 20.7781 8.97037 20.5555V20.0015H9.59675V20.3765C9.59372 20.6118 9.782 20.8051 10.0173 20.8081C10.042 20.8084 10.0666 20.8066 10.091 20.8026C10.8732 20.6828 11.6442 20.499 12.3963 20.2529L12.4645 20.2231C15.4472 18.5187 17.3391 19.9206 17.4158 19.9802C17.4902 20.038 17.5816 20.0694 17.6758 20.0697H18.2041C18.4395 20.0697 18.6302 19.8789 18.6302 19.6436V18.9235H19.2396V19.6351C19.2396 19.8704 19.4304 20.0612 19.6657 20.0612H21.0378C21.2731 20.0612 21.4639 19.8704 21.4639 19.6351V18.9235H22.0945V19.6351C22.0945 19.8704 22.2853 20.0612 22.5206 20.0612H23.5731C23.8084 20.0612 23.9992 19.8704 23.9992 19.6351V15.0416C24.0034 14.8359 23.8599 14.6566 23.6583 14.6155ZM13.5468 1.82802H13.8962H22.1371V5.35619H13.5468V1.82802ZM8.1906 10.3246L8.19486 10.3502C8.54416 10.6338 8.86651 10.949 9.15786 11.2919C9.08058 11.4204 9.04073 11.568 9.04281 11.718C9.03988 12.1675 9.40191 12.5342 9.85135 12.5371C10.3008 12.5401 10.6676 12.178 10.6705 11.7286C10.6733 11.3051 10.3509 10.9504 9.92912 10.9126C9.6596 10.5452 9.35254 10.2067 9.01298 9.90277C9.39377 9.68604 9.75202 9.43197 10.0825 9.14429C10.4958 9.532 10.8803 9.94927 11.233 10.3928C11.0848 10.8171 11.3086 11.2813 11.7329 11.4296C12.1572 11.5778 12.6214 11.354 12.7697 10.9297C12.9179 10.5053 12.6941 10.0412 12.2698 9.89291C12.1817 9.86213 12.0891 9.84673 11.9957 9.84737H11.8935C11.5197 9.37684 11.1125 8.93396 10.6748 8.52218C10.8779 8.2721 11.0576 8.00398 11.2117 7.72109C11.8714 8.06448 12.5089 8.44873 13.1207 8.87159C13.1165 9.32576 13.4813 9.69733 13.9354 9.70154C14.3896 9.70575 14.7612 9.34094 14.7654 8.88677C14.7696 8.43259 14.4048 8.06102 13.9506 8.05681C13.8209 8.05559 13.6927 8.0851 13.5766 8.14294C12.9327 7.70703 12.2624 7.31144 11.5696 6.95836C12.0341 5.72265 12.2344 4.08213 12.1406 1.84506H12.6988V5.37324C12.6988 5.84393 13.0803 6.22545 13.551 6.22545H21.5363C21.6471 6.45129 21.8346 6.84331 22.0391 7.35464H21.8644C19.2758 7.37334 17.1925 9.48694 17.2112 12.0755C17.2218 13.5465 17.9224 14.9272 19.1032 15.8044C15.656 16.712 10.4703 17.79 6.10693 17.5088C6.91227 14.2917 5.94927 12.3103 5.32289 11.441C6.2983 11.1211 7.25561 10.7484 8.1906 10.3246ZM4.46641 11.6839C4.92661 12.2251 6.12823 14.0445 5.24619 17.3895C3.71082 17.2688 2.2196 16.8182 0.874321 16.0685C0.859034 15.9712 0.849074 15.873 0.844493 15.7745V15.7447C0.810404 14.8371 1.15129 12.8727 4.46641 11.6839ZM22.9467 19.209V18.4974C22.9467 18.262 22.7559 18.0713 22.5206 18.0713H21.042C20.8067 18.0713 20.6159 18.262 20.6159 18.4974V19.209H20.0918V18.4974C20.0918 18.262 19.901 18.0713 19.6657 18.0713H18.1956C17.9603 18.0713 17.7695 18.262 17.7695 18.4974V19.1919C17.19 18.8297 15.0722 17.7772 12.0682 19.4561C11.5337 19.6325 10.9886 19.7748 10.4362 19.8822V19.5882C10.4362 19.3529 10.2454 19.1621 10.0101 19.1621H8.54C8.30469 19.1621 8.1139 19.3529 8.1139 19.5882V20.172H7.89658V19.5754C7.89658 19.3401 7.70579 19.1493 7.47047 19.1493H5.99188C5.75656 19.1493 5.56577 19.3401 5.56577 19.5754V20.0825L5.34846 20.0527V19.5754C5.34846 19.3401 5.15767 19.1493 4.92235 19.1493H3.44375C3.22702 19.1478 3.04364 19.3091 3.01764 19.5243C2.26136 19.2753 1.53308 18.9482 0.844493 18.5485V17.023C2.70232 18.0073 5.10557 18.3781 7.66222 18.3781C14.4544 18.3781 22.2266 15.7788 23.1427 15.4677L23.147 19.209H22.9467V19.209ZM22.7379 14.7135C22.3757 14.8328 21.4852 15.1396 20.2537 15.4677C18.3473 14.5451 17.5497 12.2516 18.4724 10.3451C19.1036 9.04102 20.4158 8.20393 21.8644 8.18129C22.0324 8.17895 22.2003 8.18747 22.3672 8.20686L22.3715 8.21964C22.9979 10.0263 23.5603 12.6043 22.7379 14.7135Z" fill="#2D383F"/>
</symbol>

<symbol id='tree' width="23" height="23" viewBox="0 0 23 23" fill="none" xmlns="http://www.w3.org/2000/svg">
<path d="M22.6246 16.6366L18.1102 11.4721H20.2913C20.546 11.4714 20.7519 11.2645 20.7514 11.0098C20.7511 10.9085 20.7175 10.81 20.6556 10.7297L17.0312 5.96629H18.8757C19.1304 5.96595 19.3365 5.75925 19.3363 5.5046C19.3361 5.39278 19.2953 5.28482 19.2215 5.20083L14.7856 0.156187C14.6172 -0.0348313 14.3257 -0.0531031 14.1347 0.115378C14.1202 0.128117 14.1066 0.141778 14.0939 0.156187L9.65332 5.19622C9.4827 5.38528 9.49763 5.67688 9.68663 5.8475C9.77229 5.92479 9.88376 5.96716 9.99916 5.96629H11.8667L10.7508 7.42343L7.76273 4.02498C7.5943 3.83396 7.30288 3.81569 7.11186 3.98417C7.09739 3.99691 7.08379 4.01057 7.07105 4.02498L3.27604 8.33645C3.10796 8.52775 3.12681 8.81912 3.31811 8.9872C3.40209 9.06098 3.51005 9.10173 3.62188 9.10191H5.08362L2.04946 13.0721C1.89919 13.2777 1.94398 13.5662 2.14958 13.7166C2.22636 13.7727 2.31864 13.8037 2.41374 13.8053H4.11988L0.370984 18.1168C0.205442 18.3103 0.228094 18.6014 0.421649 18.767C0.503959 18.8374 0.608518 18.8766 0.716823 18.8776H5.8168V22.1055C5.8168 22.5995 6.21734 23 6.71138 23H8.11779C8.61182 23.0026 9.01444 22.6042 9.01697 22.1101C9.01697 22.1085 9.01697 22.107 9.01697 22.1055V18.8776H12.8443V22.1055C12.8443 22.5995 13.2448 23 13.7388 23H15.1453C15.6393 23 16.0398 22.5995 16.0398 22.1055V17.4021H22.2788C22.5334 17.4017 22.7396 17.195 22.7393 16.9404C22.7391 16.8285 22.6984 16.7206 22.6246 16.6366ZM8.09473 22.0778L6.73904 22.1055L6.71138 18.8776H8.09473V22.0778ZM12.8443 17.9554H1.73129L5.50324 13.6532C5.67397 13.4642 5.65916 13.1726 5.47021 13.0019C5.38214 12.9223 5.2668 12.8798 5.14818 12.8831H3.34981L6.38398 8.91285C6.53932 8.71105 6.50168 8.42152 6.29988 8.26618C6.21953 8.20434 6.12109 8.17067 6.0197 8.17044H4.63634L7.40306 5.021L10.1698 8.16122L8.22385 10.7343C8.06851 10.9361 8.10615 11.2256 8.30795 11.3809C8.3883 11.4428 8.48674 11.4764 8.58813 11.4767H10.7738L6.25948 16.6412C6.0914 16.8325 6.11025 17.1239 6.30156 17.292C6.38554 17.3657 6.4935 17.4065 6.60532 17.4067H12.8443V17.9554ZM15.1176 22.0686L13.7665 22.1055L13.7388 17.4021H15.1222L15.1176 22.0686ZM15.1453 16.4798H7.61978L12.1341 11.3153C12.3022 11.124 12.2834 10.8326 12.0921 10.6645C12.0081 10.5907 11.9001 10.55 11.7883 10.5498H9.52421L13.167 5.78185C13.3199 5.57815 13.2786 5.28908 13.0749 5.13628C12.9963 5.07737 12.901 5.04503 12.8028 5.04405H11.0367L14.4582 1.16143L17.8612 5.04405H16.0813C15.8267 5.04469 15.6207 5.25162 15.6213 5.50627C15.6215 5.60766 15.6552 5.70611 15.717 5.78646L19.3368 10.5498H17.0912C16.8365 10.5502 16.6303 10.7569 16.6306 11.0115C16.6307 11.1233 16.6716 11.2313 16.7453 11.3153L21.2597 16.4798H15.1453Z" fill="#2D383F"/>
</symbol>

<symbol id='mount' width="24" height="20" viewBox="0 0 24 20" fill="none" xmlns="http://www.w3.org/2000/svg">
<path d="M23.4153 19.1881L19.3747 9.79026L15.5583 0.907601C15.4551 0.6652 15.1749 0.552438 14.9325 0.655659C14.8192 0.703961 14.7289 0.794242 14.6806 0.907601L11.2744 8.8123L9.93871 11.9179L7.00963 5.15811C6.90634 4.91571 6.62614 4.80295 6.3838 4.90617C6.27044 4.95447 6.18016 5.04475 6.13186 5.15811L3.37928 11.5172L0.0399368 19.1834C-0.0654315 19.4248 0.0448861 19.706 0.286333 19.8114C0.347037 19.8379 0.412572 19.8515 0.478822 19.8512H22.9765C23.2399 19.851 23.4533 19.6373 23.4531 19.3738C23.4531 19.31 23.4402 19.2469 23.4153 19.1881ZM15.1147 2.29581L18.2107 9.49448H17.1231L15.1576 7.32391C14.9804 7.12892 14.6787 7.11455 14.4837 7.29177C14.4531 7.31956 14.4263 7.35122 14.4039 7.38593L13.6692 8.5213H12.4384L15.1147 2.29581ZM6.57074 6.53201L9.018 12.1898H7.68226C7.52007 12.1901 7.36914 12.2728 7.28154 12.4093L6.80449 13.1678L5.57371 11.4313C5.48474 11.303 5.33864 11.2264 5.18253 11.2262H4.54805L6.57074 6.53201ZM1.22779 18.8971L4.13302 12.1803H4.93446L6.42285 14.3031C6.51182 14.4314 6.65792 14.508 6.81403 14.5083C6.97283 14.5048 7.11947 14.4225 7.20522 14.2888L7.93987 13.1535H9.42826L11.9137 18.878L1.22779 18.8971ZM12.9584 18.8971L10.4587 13.1248L12.0282 9.4754H13.9364C14.0986 9.4751 14.2495 9.39246 14.3371 9.25596L14.8666 8.44021L16.5554 10.3055C16.6455 10.4054 16.7738 10.4626 16.9084 10.4629H18.6162L22.2466 18.9114L12.9584 18.8971Z" fill="#2D383F"/>
</symbol>

<symbol id='left' width="37" height="35" viewBox="0 0 37 35" fill="none" xmlns="http://www.w3.org/2000/svg">
<rect width="37" height="35" fill="#0266C1"/>
</symbol>

<symbol id='right' width="37" height="35" viewBox="0 0 37 35" fill="none" xmlns="http://www.w3.org/2000/svg">
<rect width="37" height="35" fill="#0266C1"/>
</symbol>

<symbol id='sun' width="21" height="22" viewBox="0 0 21 22" fill="none" xmlns="http://www.w3.org/2000/svg">
<path d="M15.655 7.10055C14.6779 6.11113 13.2984 5.47092 11.8039 5.47092C10.3095 5.47092 8.93 6.08203 7.95286 7.10055C6.97571 8.08996 6.34345 9.48679 6.34345 11C6.34345 12.5132 6.97571 13.9101 7.95286 14.8995C8.93 15.8889 10.3095 16.5291 11.8039 16.5291C13.2984 16.5291 14.6779 15.918 15.655 14.8995C16.6322 13.9101 17.2645 12.5132 17.2645 11C17.2645 9.48679 16.6609 8.08996 15.655 7.10055ZM14.6204 13.8519C13.9019 14.5794 12.896 15.0159 11.8039 15.0159C10.7118 15.0159 9.70597 14.5794 8.98748 13.8519C8.26899 13.1243 7.8379 12.1058 7.8379 11C7.8379 9.89419 8.26899 8.87568 8.98748 8.14817C9.70597 7.42065 10.7118 6.98415 11.8039 6.98415C12.896 6.98415 13.9019 7.42065 14.6204 8.14817C15.3389 8.87568 15.77 9.89419 15.77 11C15.77 12.1058 15.3389 13.1243 14.6204 13.8519Z" fill="white"/>
<path d="M21.9202 10.2434H19.7073C19.305 10.2434 18.9601 10.5926 18.9601 11C18.9601 11.4074 19.305 11.7566 19.7073 11.7566H21.9202C22.3226 11.7566 22.6675 11.4074 22.6675 11C22.6675 10.5926 22.3226 10.2434 21.9202 10.2434Z" fill="white"/>
<path d="M11.8039 18.246C11.4016 18.246 11.0567 18.5952 11.0567 19.0026V21.2434C11.0567 21.6508 11.4016 22 11.8039 22C12.2063 22 12.5512 21.6508 12.5512 21.2434V19.0026C12.5512 18.5952 12.2063 18.246 11.8039 18.246Z" fill="white"/>
<path d="M19.4774 17.7222L17.8967 16.1216C17.6381 15.8306 17.1495 15.8306 16.8621 16.1216C16.5747 16.4126 16.5747 16.8782 16.8621 17.1693L18.4428 18.7698C18.7302 19.0608 19.19 19.0608 19.4774 18.7698C19.7648 18.4788 19.7648 18.0132 19.4774 17.7222Z" fill="white"/>
<path d="M11.8039 0C11.4016 0 11.0567 0.349205 11.0567 0.756611V2.99735C11.0567 3.40475 11.4016 3.75396 11.8039 3.75396C12.2063 3.75396 12.5512 3.40475 12.5512 2.99735V0.756611C12.5512 0.349205 12.2063 0 11.8039 0Z" fill="white"/>
<path d="M19.5061 3.23018C19.2187 2.93918 18.7589 2.93918 18.4715 3.23018L16.8908 4.8307C16.6034 5.12171 16.6034 5.58732 16.8908 5.87832C17.1495 6.16932 17.6381 6.16932 17.9255 5.87832L19.5061 4.2778C19.7935 3.98679 19.7935 3.52118 19.5061 3.23018Z" fill="white"/>
<path d="M3.9006 10.2434H1.68766C1.2853 10.2434 0.94043 10.5926 0.94043 11C0.94043 11.4074 1.25656 11.7566 1.68766 11.7566H3.9006C4.30295 11.7566 4.64782 11.4074 4.64782 11C4.64782 10.5926 4.30295 10.2434 3.9006 10.2434Z" fill="white"/>
<path d="M6.71707 16.1216C6.45841 15.8306 5.96984 15.8306 5.68245 16.1216L4.10177 17.7222C3.81438 18.0132 3.81438 18.4788 4.10177 18.7698C4.38917 19.0608 4.849 19.0608 5.1364 18.7698L6.71707 17.1693C7.00446 16.8782 7.00446 16.4126 6.71707 16.1216Z" fill="white"/>
<path d="M6.71707 4.8307L5.1364 3.23018C4.849 2.93918 4.38917 2.93918 4.10177 3.23018C3.81438 3.52118 3.81438 3.98679 4.10177 4.2778L5.68245 5.87832C5.96984 6.16932 6.42967 6.16932 6.71707 5.87832C7.00446 5.58732 7.00446 5.12171 6.71707 4.8307Z" fill="white"/>
</symbol>

<symbol id='moon' width="20" height="19" viewBox="0 0 20 19" fill="none" xmlns="http://www.w3.org/2000/svg">
<path d="M19.5272 11.382C19.3228 11.3307 19.1183 11.382 18.9394 11.5103C18.2748 12.0745 17.5081 12.5362 16.6646 12.844C15.8723 13.1518 15.0033 13.3057 14.0831 13.3057C12.0128 13.3057 10.1215 12.4593 8.76681 11.0999C7.41217 9.74052 6.56872 7.84251 6.56872 5.76497C6.56872 4.89291 6.72207 4.0465 6.97767 3.27704C7.25882 2.45628 7.66777 1.71247 8.20451 1.07125C8.43454 0.789119 8.38343 0.378739 8.10227 0.147901C7.92336 0.0196574 7.71888 -0.0316401 7.51441 0.0196573C5.34188 0.609578 3.4505 1.91766 2.09586 3.66177C0.792336 5.38024 0 7.50908 0 9.84311C0 12.6388 1.12461 15.178 2.96487 17.0247C4.80513 18.8715 7.3355 20 10.1215 20C12.4729 20 14.6454 19.1792 16.3835 17.8199C18.147 16.4348 19.425 14.4599 19.9618 12.2028C20.0895 11.8181 19.8851 11.459 19.5272 11.382ZM15.6167 16.7426C14.1342 17.9225 12.2429 18.6406 10.1726 18.6406C7.74444 18.6406 5.54635 17.6403 3.96168 16.0501C2.37701 14.4599 1.3802 12.2541 1.3802 9.81746C1.3802 7.79122 2.04474 5.94451 3.1949 4.45688C3.98724 3.43094 4.98405 2.58453 6.13421 1.99461C6.00642 2.27674 5.87862 2.55888 5.77638 2.86666C5.44411 3.79002 5.29076 4.76467 5.29076 5.79062C5.29076 8.22724 6.28757 10.4587 7.87224 12.0489C9.45691 13.6391 11.6806 14.6394 14.1087 14.6394C15.1822 14.6394 16.2045 14.4599 17.1502 14.1008C17.4825 13.9726 17.8148 13.8443 18.1215 13.6904C17.5081 14.8703 16.6646 15.9219 15.6167 16.7426Z" fill="white"/>
</symbol>

<symbol id='location' width="9" height="12" viewBox="0 0 9 12" fill="none" xmlns="http://www.w3.org/2000/svg">
<path d="M4.49981 0.188232C2.01874 0.188232 0 2.02964 0 4.293C0 4.88337 0.132472 5.44704 0.39354 5.96849C1.51862 8.21417 3.67571 10.5851 4.31017 11.2582C4.35771 11.3085 4.42701 11.3375 4.49994 11.3375C4.57287 11.3375 4.64217 11.3085 4.6897 11.2582C5.32392 10.5852 7.48101 8.21439 8.60646 5.96849C8.86765 5.44704 9 4.88337 9 4.293C8.99975 2.02964 6.98101 0.188232 4.49981 0.188232ZM4.49981 6.42502C3.21099 6.42502 2.16234 5.46849 2.16234 4.29288C2.16234 3.11716 3.21099 2.16063 4.49981 2.16063C5.78864 2.16063 6.83728 3.11716 6.83728 4.29288C6.83741 5.46849 5.78876 6.42502 4.49981 6.42502Z" fill="white"/>
</symbol>

<symbol id='line' width="80" height="1" viewBox="0 0 80 1" fill="none" xmlns="http://www.w3.org/2000/svg">
<rect opacity="0.284" x="0.739502" width="79.0074" height="1" fill="white"/>
</symbol>

<symbol id='elbrus-stars' width="79" height="14" viewBox="0 0 79 14" fill="none" xmlns="http://www.w3.org/2000/svg">
<path d="M7.5 11.0412L12.135 13.65L10.9087 8.72975L15 5.42084L9.60676 4.98892L7.5 0.350037L5.39326 4.98892L0 5.42084L4.09126 8.72975L2.865 13.65L7.5 11.0412Z" fill="white"/>
<path d="M23.5 11.0412L28.135 13.65L26.9087 8.72975L31 5.42084L25.6068 4.98892L23.5 0.350037L21.3933 4.98892L16 5.42084L20.0913 8.72975L18.865 13.65L23.5 11.0412Z" fill="white"/>
<path d="M39.5 11.0412L44.135 13.65L42.9087 8.72975L47 5.42084L41.6068 4.98892L39.5 0.350037L37.3933 4.98892L32 5.42084L36.0913 8.72975L34.865 13.65L39.5 11.0412Z" fill="white"/>
<path d="M55.7453 10.6054L55.5 10.4674L55.2547 10.6054L51.6307 12.6453L52.5764 8.85066L52.6535 8.54141L52.4057 8.34098L49.2878 5.81931L53.4332 5.48733L53.7267 5.46382L53.8485 5.19567L55.5 1.55921L57.1515 5.19568L57.2733 5.46382L57.5669 5.48733L61.7122 5.81931L58.5943 8.34098L58.3465 8.54141L58.4236 8.85066L59.3693 12.6453L55.7453 10.6054Z" stroke="#F3F3F3"/>
<path d="M71.7453 10.6054L71.5 10.4674L71.2547 10.6054L67.6307 12.6453L68.5764 8.85066L68.6535 8.54141L68.4057 8.34098L65.2878 5.81931L69.4332 5.48733L69.7267 5.46382L69.8485 5.19567L71.5 1.55921L73.1515 5.19568L73.2733 5.46382L73.5669 5.48733L77.7122 5.81931L74.5943 8.34098L74.3465 8.54141L74.4236 8.85066L75.3693 12.6453L71.7453 10.6054Z" stroke="white"/>
</symbol>

<symbol id='table-stars' width="79" height="14" viewBox="0 0 79 14" fill="none" xmlns="http://www.w3.org/2000/svg">
<path d="M7.5 11.0412L12.135 13.65L10.9087 8.72975L15 5.42084L9.60676 4.98892L7.5 0.350037L5.39326 4.98892L0 5.42084L4.09126 8.72975L2.865 13.65L7.5 11.0412Z" fill="white"/>
<path d="M23.5 11.0412L28.135 13.65L26.9087 8.72975L31 5.42084L25.6068 4.98892L23.5 0.350037L21.3933 4.98892L16 5.42084L20.0913 8.72975L18.865 13.65L23.5 11.0412Z" fill="white"/>
<path d="M55.7453 10.6054L55.5 10.4674L55.2547 10.6054L51.6307 12.6453L52.5764 8.85066L52.6535 8.54141L52.4057 8.34098L49.2878 5.81931L53.4332 5.48733L53.7267 5.46382L53.8485 5.19567L55.5 1.55921L57.1515 5.19568L57.2733 5.46382L57.5669 5.48733L61.7122 5.81931L58.5943 8.34098L58.3465 8.54141L58.4236 8.85066L59.3693 12.6453L55.7453 10.6054Z" stroke="#F3F3F3"/>
<path d="M39.7453 10.6054L39.5 10.4674L39.2547 10.6054L35.6307 12.6453L36.5764 8.85066L36.6535 8.54141L36.4057 8.34098L33.2878 5.81931L37.4332 5.48733L37.7267 5.46382L37.8485 5.19567L39.5 1.55921L41.1515 5.19568L41.2733 5.46382L41.5669 5.48733L45.7122 5.81931L42.5943 8.34098L42.3465 8.54141L42.4236 8.85066L43.3693 12.6453L39.7453 10.6054Z" stroke="#F3F3F3"/>
<path d="M71.7453 10.6054L71.5 10.4674L71.2547 10.6054L67.6307 12.6453L68.5764 8.85066L68.6535 8.54141L68.4057 8.34098L65.2878 5.81931L69.4332 5.48733L69.7267 5.46382L69.8485 5.19567L71.5 1.55921L73.1515 5.19568L73.2733 5.46382L73.5669 5.48733L77.7122 5.81931L74.5943 8.34098L74.3465 8.54141L74.4236 8.85066L75.3693 12.6453L71.7453 10.6054Z" stroke="white"/>
</symbol>


<symbol id='points' width="14" height="14" viewBox="0 0 14 14" fill="none" xmlns="http://www.w3.org/2000/svg">
<circle cx="7" cy="7" r="7" fill="#0266C1"/>
</symbol>

<symbol id='lines' width="308" height="1" viewBox="0 0 308 1" fill="none" xmlns="http://www.w3.org/2000/svg">
<line x1="-4.37114e-08" y1="0.5" x2="308" y2="0.499973" stroke="#D9E7EA"/>
</symbol>

<symbol id='arrow' width="9" height="14" viewBox="0 0 9 14" fill="none" xmlns="http://www.w3.org/2000/svg">
<path d="M1 13L7 7L0.999999 1" stroke="#2D383F" stroke-width="2"/>
</symbol>

<symbol id='vk' width="26" height="25" viewBox="0 0 26 25" fill="none" xmlns="http://www.w3.org/2000/svg">
<rect x="0.987305" y="0.5" width="23.6627" height="23.0488" stroke="#9AC2E6"/>
<path d="M19.1294 14.8853C19.1139 14.8529 19.0995 14.826 19.0861 14.8044C18.8648 14.4157 18.4419 13.9386 17.8175 13.373L17.8044 13.36L17.7978 13.3537L17.7911 13.3472H17.7844C17.501 13.0838 17.3216 12.9067 17.2465 12.816C17.109 12.6433 17.0782 12.4685 17.1533 12.2913C17.2064 12.1575 17.4058 11.8748 17.7511 11.443C17.9327 11.2141 18.0765 11.0307 18.1828 10.8925C18.9488 9.89942 19.281 9.26481 19.1791 8.98845L19.1395 8.92386C19.1129 8.88498 19.0443 8.84942 18.9337 8.81698C18.8229 8.78461 18.6812 8.77925 18.5085 8.80083L16.5957 8.81371C16.5647 8.803 16.5205 8.804 16.4628 8.81698C16.4053 8.82995 16.3765 8.83646 16.3765 8.83646L16.3432 8.85268L16.3167 8.87217C16.2946 8.88505 16.2702 8.90771 16.2437 8.94011C16.2172 8.97239 16.1951 9.01027 16.1774 9.05344C15.9691 9.57587 15.7324 10.0616 15.4666 10.5106C15.3028 10.7784 15.1523 11.0104 15.0149 11.2069C14.8777 11.4033 14.7626 11.548 14.6696 11.6407C14.5766 11.7336 14.4926 11.8079 14.4172 11.8641C14.3419 11.9203 14.2844 11.9441 14.2446 11.9354C14.2047 11.9267 14.1671 11.9181 14.1316 11.9095C14.0696 11.8706 14.0198 11.8177 13.9822 11.7508C13.9445 11.6839 13.9191 11.5997 13.9058 11.4982C13.8926 11.3967 13.8848 11.3093 13.8825 11.2359C13.8805 11.1626 13.8814 11.0588 13.8859 10.925C13.8905 10.7911 13.8926 10.7005 13.8926 10.653C13.8926 10.4889 13.8959 10.3108 13.9024 10.1187C13.9091 9.92653 13.9146 9.77429 13.9191 9.66214C13.9236 9.54988 13.9257 9.4311 13.9257 9.30589C13.9257 9.18067 13.9179 9.08247 13.9024 9.0112C13.8872 8.94002 13.8638 8.87092 13.8329 8.80393C13.8018 8.73702 13.7564 8.68525 13.6967 8.6485C13.637 8.6118 13.5627 8.58267 13.4742 8.56103C13.2395 8.50924 12.9407 8.48123 12.5775 8.47687C11.754 8.46825 11.2248 8.52011 10.9901 8.63237C10.8971 8.67981 10.813 8.74461 10.7378 8.82659C10.658 8.92162 10.6469 8.97347 10.7045 8.982C10.9702 9.02082 11.1583 9.11366 11.269 9.26045L11.3089 9.33824C11.3399 9.39436 11.3709 9.49371 11.4019 9.63617C11.4329 9.77863 11.4529 9.93621 11.4617 10.1088C11.4838 10.4241 11.4838 10.6939 11.4617 10.9184C11.4395 11.143 11.4186 11.3178 11.3986 11.443C11.3786 11.5682 11.3487 11.6697 11.3089 11.7474C11.269 11.8251 11.2425 11.8726 11.2292 11.8899C11.2159 11.9071 11.2048 11.918 11.196 11.9222C11.1385 11.9437 11.0786 11.9547 11.0166 11.9547C10.9546 11.9547 10.8794 11.9244 10.7908 11.864C10.7023 11.8035 10.6104 11.7204 10.5152 11.6146C10.42 11.5088 10.3126 11.3609 10.193 11.171C10.0735 10.981 9.94954 10.7565 9.82113 10.4974L9.71489 10.3096C9.64847 10.1887 9.55774 10.0127 9.44261 9.78178C9.32741 9.55074 9.22559 9.32726 9.13708 9.11137C9.10169 9.0207 9.04854 8.95168 8.9777 8.90417L8.94446 8.88469C8.92236 8.86745 8.88688 8.84914 8.83821 8.82963C8.78948 8.81015 8.73862 8.79618 8.68544 8.78758L6.86559 8.80046C6.67962 8.80046 6.55344 8.84154 6.487 8.92359L6.46041 8.9624C6.44713 8.98402 6.44043 9.01855 6.44043 9.06607C6.44043 9.11357 6.45371 9.17187 6.4803 9.2409C6.74597 9.84974 7.03487 10.4369 7.34702 11.0025C7.65917 11.5681 7.93041 12.0237 8.1606 12.3689C8.39084 12.7144 8.62552 13.0404 8.86464 13.3469C9.10376 13.6535 9.26205 13.85 9.33949 13.9363C9.41702 14.0227 9.47793 14.0874 9.5222 14.1306L9.68827 14.286C9.79454 14.3896 9.95059 14.5137 10.1565 14.6583C10.3624 14.803 10.5904 14.9455 10.8406 15.0859C11.0908 15.2262 11.3819 15.3406 11.7141 15.4291C12.0461 15.5176 12.3694 15.5532 12.6838 15.536H13.4476C13.6025 15.523 13.7199 15.4755 13.7996 15.3935L13.826 15.3611C13.8438 15.3353 13.8605 15.2952 13.8758 15.2414C13.8914 15.1874 13.8991 15.128 13.8991 15.0633C13.8945 14.8777 13.909 14.7104 13.9422 14.5614C13.9753 14.4125 14.013 14.3003 14.0552 14.2246C14.0974 14.1491 14.145 14.0854 14.1979 14.0337C14.251 13.9819 14.2888 13.9505 14.311 13.9397C14.3331 13.9289 14.3507 13.9215 14.364 13.9171C14.4703 13.8825 14.5953 13.916 14.7394 14.0175C14.8833 14.119 15.0183 14.2443 15.1446 14.3932C15.2708 14.5422 15.4224 14.7094 15.5995 14.8951C15.7767 15.0807 15.9316 15.2188 16.0644 15.3096L16.1972 15.3873C16.2859 15.4392 16.401 15.4867 16.5427 15.5298C16.6842 15.573 16.8081 15.5838 16.9145 15.5622L18.6148 15.5363C18.7829 15.5363 18.9138 15.5092 19.0066 15.4553C19.0996 15.4013 19.1549 15.3419 19.1727 15.2772C19.1905 15.2125 19.1914 15.139 19.1761 15.0569C19.1603 14.975 19.1448 14.9177 19.1294 14.8853Z" fill="#494949"/>
</symbol>

<symbol id='vk-bottom' width="29" height="29" viewBox="0 0 29 29" fill="none" xmlns="http://www.w3.org/2000/svg">
<rect opacity="0.432" x="0.5" y="0.5" width="27.3043" height="27.3043" stroke="#2D383F"/>
<path d="M22.4438 18.1795C22.401 18.1078 22.1359 17.5318 20.8604 16.348C19.5251 15.1083 19.7044 15.3096 21.3128 13.1661C22.2924 11.8607 22.684 11.0635 22.5614 10.7227C22.4448 10.3978 21.7244 10.4835 21.7244 10.4835L19.3288 10.4975C19.3288 10.4975 19.1514 10.4736 19.0189 10.5523C18.8903 10.63 18.8076 10.8094 18.8076 10.8094C18.8076 10.8094 18.4279 11.8198 17.9217 12.6788C16.8545 14.4915 16.427 14.5871 16.2526 14.4745C15.847 14.2124 15.9486 13.4202 15.9486 12.8582C15.9486 11.1014 16.2147 10.3689 15.4295 10.1796C15.1684 10.1168 14.977 10.075 14.3104 10.068C13.4554 10.059 12.7309 10.071 12.3214 10.2713C12.0483 10.4048 11.8381 10.7028 11.9666 10.7197C12.125 10.7406 12.4838 10.8164 12.6741 11.0755C12.9203 11.4093 12.9113 12.1607 12.9113 12.1607C12.9113 12.1607 13.0528 14.2284 12.5814 14.4855C12.2576 14.6619 11.8141 14.3021 10.8625 12.6569C10.3752 11.8149 10.0065 10.8831 10.0065 10.8831C10.0065 10.8831 9.93573 10.7097 9.80918 10.6171C9.65572 10.5045 9.44047 10.4686 9.44047 10.4686L7.16247 10.4825C7.16247 10.4825 6.82067 10.4925 6.69511 10.641C6.5835 10.7735 6.68614 11.0466 6.68614 11.0466C6.68614 11.0466 8.46988 15.2189 10.4888 17.3225C12.3413 19.2508 14.4439 19.1242 14.4439 19.1242H15.3966C15.3966 19.1242 15.6846 19.0923 15.831 18.9339C15.9666 18.7884 15.9616 18.5153 15.9616 18.5153C15.9616 18.5153 15.9426 17.2368 16.5366 17.0485C17.1215 16.8631 17.8729 18.2842 18.6691 18.8312C19.271 19.2448 19.7284 19.1541 19.7284 19.1541L21.8579 19.1242C21.8579 19.1242 22.972 19.0555 22.4438 18.1795Z" fill="#2D383F"/>
</symbol>

<symbol id='fb' width="30" height="29" viewBox="0 0 30 29" fill="none" xmlns="http://www.w3.org/2000/svg">
<rect opacity="0.432" x="1.44775" y="0.5" width="27.3043" height="27.3043" stroke="#2D383F"/>
<path d="M15.9846 11.941V10.172C15.9846 9.68371 16.3808 9.28745 16.8691 9.28745H17.7536V7.07617H15.9846C14.5189 7.07617 13.331 8.26407 13.331 9.7297V11.941H11.562V14.1523H13.331V21.2283H15.9846V14.1523H17.7536L18.6381 11.941H15.9846Z" fill="#2D383F"/>
</symbol>

<symbol id='insta' width="30" height="29" viewBox="0 0 30 29" fill="none" xmlns="http://www.w3.org/2000/svg">
<rect opacity="0.432" x="1.396" y="0.5" width="27.3043" height="27.3043" stroke="#2D383F"/>
<path d="M19.1192 5.31421H11.3804C8.75235 5.31421 6.61426 7.45242 6.61426 10.0805V17.8193C6.61426 20.4475 8.75235 22.5856 11.3804 22.5856H19.1192C21.7474 22.5856 23.8855 20.4474 23.8855 17.8193V10.0805C23.8856 7.45242 21.7474 5.31421 19.1192 5.31421ZM22.3532 17.8193C22.3532 19.6026 20.9025 21.0532 19.1193 21.0532H11.3804C9.59731 21.0533 8.14665 19.6026 8.14665 17.8193V10.0805C8.14665 8.29739 9.59731 6.84661 11.3804 6.84661H19.1192C20.9024 6.84661 22.3531 8.29739 22.3531 10.0805L22.3532 17.8193Z" fill="#2D383F"/>
<path d="M15.25 9.49964C12.796 9.49964 10.7996 11.4961 10.7996 13.9501C10.7996 16.404 12.796 18.4003 15.25 18.4003C17.7039 18.4003 19.7003 16.404 19.7003 13.9501C19.7003 11.4961 17.7039 9.49964 15.25 9.49964ZM15.25 16.8678C13.6411 16.8678 12.332 15.5589 12.332 13.95C12.332 12.3409 13.641 11.0319 15.25 11.0319C16.859 11.0319 18.1679 12.3409 18.1679 13.95C18.1679 15.5589 16.8589 16.8678 15.25 16.8678Z" fill="#2D383F"/>
<path d="M19.8869 8.20039C19.5917 8.20039 19.3016 8.31992 19.0931 8.52935C18.8836 8.73775 18.7631 9.02788 18.7631 9.32414C18.7631 9.61948 18.8837 9.90951 19.0931 10.1189C19.3015 10.3273 19.5917 10.4479 19.8869 10.4479C20.1832 10.4479 20.4723 10.3273 20.6818 10.1189C20.8912 9.90951 21.0107 9.61938 21.0107 9.32414C21.0107 9.02788 20.8912 8.73775 20.6818 8.52935C20.4733 8.31992 20.1832 8.20039 19.8869 8.20039Z" fill="#2D383F"/>
</symbol>

<symbol id='logo-2' width="226" height="71" viewBox="0 0 226 71" fill="none" xmlns="http://www.w3.org/2000/svg">
<g clip-path="url(#clip0_2_1014)">
<path d="M22.7825 40.1768L28.2395 34.447L34.4468 40.1768H45.0878L28.1713 23.6013L11.3911 40.1768H22.7825Z" fill="#2D383F"/>
<path d="M38.4033 13.5742L30.3543 21.7596L35.6749 27.2166L38.4033 24.4881L53.3418 39.3583C49.9312 48.4305 41.2 54.9106 30.9 54.9106C17.6669 54.9106 6.95762 44.2014 6.95762 30.9682C7.02583 17.7351 17.7351 7.02583 30.9682 7.02583C42.7007 7.02583 52.5232 15.5523 54.5014 26.6709L61.7318 34.3106C61.8683 33.2192 61.9365 32.0596 61.9365 30.9682C61.9365 22.7146 58.7305 14.9384 52.8643 9.07219C46.998 3.20596 39.2219 0 30.9682 0C22.6464 0 14.9384 3.20596 9.07219 9.07219C3.20596 14.9384 0 22.6464 0 30.9682C0 39.2901 3.20596 46.998 9.07219 52.8643C14.9384 58.7305 22.7146 61.9365 30.9682 61.9365C39.2219 61.9365 46.998 58.7305 52.8643 52.8643C56.4795 49.249 59.0716 44.9517 60.504 40.2451C60.7769 39.4265 60.9815 38.5398 61.1861 37.7212L54.9106 31.1047L38.4033 13.5742Z" fill="#2D383F"/>
</g>
<path d="M93.4526 32.2034C91.7566 32.2034 90.2686 31.8994 88.9886 31.2914C87.7086 30.6674 86.7246 29.7954 86.0366 28.6754C85.3486 27.5554 85.0046 26.2674 85.0046 24.8114C85.0046 22.8914 85.4446 21.1634 86.3246 19.6274C87.2206 18.0914 88.4686 16.8914 90.0686 16.0274C91.6686 15.1634 93.4926 14.7314 95.5406 14.7314C97.0926 14.7314 98.4686 15.0114 99.6686 15.5714C100.869 16.1154 101.765 16.8914 102.357 17.8994L98.9246 20.6354C98.1086 19.3234 96.8766 18.6674 95.2286 18.6674C94.1566 18.6674 93.2126 18.9234 92.3966 19.4354C91.5806 19.9314 90.9406 20.6274 90.4766 21.5234C90.0286 22.4034 89.8046 23.3954 89.8046 24.4994C89.8046 25.6354 90.1726 26.5474 90.9086 27.2354C91.6446 27.9234 92.6446 28.2674 93.9086 28.2674C95.5086 28.2674 96.8766 27.6194 98.0126 26.3234L100.821 29.0834C99.9086 30.1874 98.8446 30.9874 97.6286 31.4834C96.4126 31.9634 95.0206 32.2034 93.4526 32.2034ZM113.818 28.6034H106.666L104.722 31.8674H99.7061L110.482 15.0674H115.162L119.218 31.8674H114.49L113.818 28.6034ZM113.098 25.0994L111.97 19.6514L108.754 25.0994H113.098ZM128.422 32.2034C126.966 32.2034 125.71 31.9634 124.654 31.4834C123.598 30.9874 122.79 30.2834 122.23 29.3714C121.67 28.4594 121.39 27.3874 121.39 26.1554C121.39 25.6434 121.454 25.0514 121.582 24.3794L123.454 15.0674H128.206L126.358 24.3074C126.262 24.7874 126.214 25.2274 126.214 25.6274C126.214 27.3874 127.142 28.2674 128.998 28.2674C130.006 28.2674 130.798 27.9634 131.374 27.3554C131.966 26.7314 132.406 25.7154 132.694 24.3074L134.542 15.0674H139.222L137.326 24.5954C136.302 29.6674 133.334 32.2034 128.422 32.2034ZM148.273 32.2034C146.577 32.2034 145.089 31.8994 143.809 31.2914C142.529 30.6674 141.545 29.7954 140.857 28.6754C140.169 27.5554 139.825 26.2674 139.825 24.8114C139.825 22.8914 140.265 21.1634 141.145 19.6274C142.041 18.0914 143.289 16.8914 144.889 16.0274C146.489 15.1634 148.313 14.7314 150.361 14.7314C151.913 14.7314 153.289 15.0114 154.489 15.5714C155.689 16.1154 156.585 16.8914 157.177 17.8994L153.745 20.6354C152.929 19.3234 151.697 18.6674 150.049 18.6674C148.977 18.6674 148.033 18.9234 147.217 19.4354C146.401 19.9314 145.761 20.6274 145.297 21.5234C144.849 22.4034 144.625 23.3954 144.625 24.4994C144.625 25.6354 144.993 26.5474 145.729 27.2354C146.465 27.9234 147.465 28.2674 148.729 28.2674C150.329 28.2674 151.697 27.6194 152.833 26.3234L155.641 29.0834C154.729 30.1874 153.665 30.9874 152.449 31.4834C151.233 31.9634 149.841 32.2034 148.273 32.2034ZM168.638 28.6034H161.486L159.542 31.8674H154.526L165.302 15.0674H169.982L174.038 31.8674H169.31L168.638 28.6034ZM167.918 25.0994L166.79 19.6514L163.574 25.0994H167.918ZM181.674 32.2034C180.282 32.2034 178.962 32.0354 177.714 31.6994C176.466 31.3634 175.45 30.9314 174.666 30.4034L176.538 26.8514C177.386 27.3954 178.29 27.8114 179.25 28.0994C180.21 28.3714 181.17 28.5074 182.13 28.5074C183.042 28.5074 183.746 28.3794 184.242 28.1234C184.754 27.8514 185.01 27.4834 185.01 27.0194C185.01 26.6194 184.778 26.3074 184.314 26.0834C183.866 25.8594 183.162 25.6194 182.202 25.3634C181.114 25.0754 180.21 24.7874 179.49 24.4994C178.77 24.1954 178.146 23.7394 177.618 23.1314C177.106 22.5234 176.85 21.7234 176.85 20.7314C176.85 19.5314 177.178 18.4834 177.834 17.5874C178.49 16.6754 179.426 15.9714 180.642 15.4754C181.858 14.9794 183.282 14.7314 184.914 14.7314C186.114 14.7314 187.234 14.8594 188.274 15.1154C189.314 15.3554 190.21 15.7074 190.962 16.1714L189.234 19.6994C188.578 19.2834 187.85 18.9714 187.05 18.7634C186.266 18.5394 185.458 18.4274 184.626 18.4274C183.682 18.4274 182.938 18.5794 182.394 18.8834C181.866 19.1874 181.602 19.5794 181.602 20.0594C181.602 20.4754 181.834 20.7954 182.298 21.0194C182.762 21.2434 183.482 21.4834 184.458 21.7394C185.546 22.0114 186.442 22.2914 187.146 22.5794C187.866 22.8674 188.482 23.3074 188.994 23.8994C189.506 24.4914 189.762 25.2674 189.762 26.2274C189.762 27.4114 189.426 28.4594 188.754 29.3714C188.098 30.2674 187.154 30.9634 185.922 31.4594C184.706 31.9554 183.29 32.2034 181.674 32.2034ZM199.133 32.2034C197.677 32.2034 196.421 31.9634 195.365 31.4834C194.309 30.9874 193.501 30.2834 192.941 29.3714C192.381 28.4594 192.101 27.3874 192.101 26.1554C192.101 25.6434 192.165 25.0514 192.293 24.3794L194.165 15.0674H198.917L197.069 24.3074C196.973 24.7874 196.925 25.2274 196.925 25.6274C196.925 27.3874 197.853 28.2674 199.709 28.2674C200.717 28.2674 201.509 27.9634 202.085 27.3554C202.677 26.7314 203.117 25.7154 203.405 24.3074L205.253 15.0674H209.933L208.037 24.5954C207.013 29.6674 204.045 32.2034 199.133 32.2034ZM216.08 32.2034C214.688 32.2034 213.368 32.0354 212.12 31.6994C210.872 31.3634 209.856 30.9314 209.072 30.4034L210.944 26.8514C211.792 27.3954 212.696 27.8114 213.656 28.0994C214.616 28.3714 215.576 28.5074 216.536 28.5074C217.448 28.5074 218.152 28.3794 218.648 28.1234C219.16 27.8514 219.416 27.4834 219.416 27.0194C219.416 26.6194 219.184 26.3074 218.72 26.0834C218.272 25.8594 217.568 25.6194 216.608 25.3634C215.52 25.0754 214.616 24.7874 213.896 24.4994C213.176 24.1954 212.552 23.7394 212.024 23.1314C211.512 22.5234 211.256 21.7234 211.256 20.7314C211.256 19.5314 211.584 18.4834 212.24 17.5874C212.896 16.6754 213.832 15.9714 215.048 15.4754C216.264 14.9794 217.688 14.7314 219.32 14.7314C220.52 14.7314 221.64 14.8594 222.68 15.1154C223.72 15.3554 224.616 15.7074 225.368 16.1714L223.64 19.6994C222.984 19.2834 222.256 18.9714 221.456 18.7634C220.672 18.5394 219.864 18.4274 219.032 18.4274C218.088 18.4274 217.344 18.5794 216.8 18.8834C216.272 19.1874 216.008 19.5794 216.008 20.0594C216.008 20.4754 216.24 20.7954 216.704 21.0194C217.168 21.2434 217.888 21.4834 218.864 21.7394C219.952 22.0114 220.848 22.2914 221.552 22.5794C222.272 22.8674 222.888 23.3074 223.4 23.8994C223.912 24.4914 224.168 25.2674 224.168 26.2274C224.168 27.4114 223.832 28.4594 223.16 29.3714C222.504 30.2674 221.56 30.9634 220.328 31.4594C219.112 31.9554 217.696 32.2034 216.08 32.2034Z" fill="#2D383F"/>
<path d="M87.3006 51.0216C86.746 51.0216 86.242 50.899 85.7886 50.6536C85.3406 50.403 84.9886 50.0616 84.7326 49.6296C84.482 49.1976 84.3566 48.7123 84.3566 48.1736C84.3566 47.635 84.482 47.1496 84.7326 46.7176C84.9886 46.2856 85.3406 45.947 85.7886 45.7016C86.242 45.451 86.746 45.3256 87.3006 45.3256C87.8553 45.3256 88.354 45.4483 88.7966 45.6936C89.2446 45.939 89.5966 46.2803 89.8526 46.7176C90.1086 47.1496 90.2366 47.635 90.2366 48.1736C90.2366 48.7123 90.1086 49.2003 89.8526 49.6376C89.5966 50.0696 89.2446 50.4083 88.7966 50.6536C88.354 50.899 87.8553 51.0216 87.3006 51.0216ZM87.3006 50.4936C87.7433 50.4936 88.1433 50.395 88.5006 50.1976C88.858 49.995 89.138 49.7176 89.3406 49.3656C89.5433 49.0083 89.6446 48.611 89.6446 48.1736C89.6446 47.7363 89.5433 47.3416 89.3406 46.9896C89.138 46.6323 88.858 46.355 88.5006 46.1576C88.1433 45.955 87.7433 45.8536 87.3006 45.8536C86.858 45.8536 86.4553 45.955 86.0926 46.1576C85.7353 46.355 85.4526 46.6323 85.2446 46.9896C85.042 47.3416 84.9406 47.7363 84.9406 48.1736C84.9406 48.611 85.042 49.0083 85.2446 49.3656C85.4526 49.7176 85.7353 49.995 86.0926 50.1976C86.4553 50.395 86.858 50.4936 87.3006 50.4936ZM93.6813 46.7336C94.076 46.7336 94.4333 46.8243 94.7533 47.0056C95.0733 47.1816 95.324 47.4323 95.5053 47.7576C95.6867 48.083 95.7773 48.4536 95.7773 48.8696C95.7773 49.291 95.6867 49.6643 95.5053 49.9896C95.324 50.315 95.0733 50.5683 94.7533 50.7496C94.4387 50.9256 94.0813 51.0136 93.6813 51.0136C93.34 51.0136 93.0307 50.9443 92.7533 50.8056C92.4813 50.6616 92.2573 50.4536 92.0813 50.1816V52.5256H91.5133V46.7656H92.0573V47.5976C92.228 47.3203 92.452 47.107 92.7293 46.9576C93.012 46.8083 93.3293 46.7336 93.6813 46.7336ZM93.6413 50.5096C93.9347 50.5096 94.2013 50.443 94.4413 50.3096C94.6813 50.171 94.868 49.9763 95.0013 49.7256C95.14 49.475 95.2093 49.1896 95.2093 48.8696C95.2093 48.5496 95.14 48.267 95.0013 48.0216C94.868 47.771 94.6813 47.5763 94.4413 47.4376C94.2013 47.299 93.9347 47.2296 93.6413 47.2296C93.3427 47.2296 93.0733 47.299 92.8333 47.4376C92.5987 47.5763 92.412 47.771 92.2733 48.0216C92.14 48.267 92.0733 48.5496 92.0733 48.8696C92.0733 49.1896 92.14 49.475 92.2733 49.7256C92.412 49.9763 92.5987 50.171 92.8333 50.3096C93.0733 50.443 93.3427 50.5096 93.6413 50.5096ZM99.9737 47.2696H97.5657V50.9736H96.9977V46.7656H99.9737V47.2696ZM102.243 46.7336C102.792 46.7336 103.213 46.8723 103.507 47.1496C103.8 47.4216 103.947 47.827 103.947 48.3656V50.9736H103.403V50.3176C103.275 50.5363 103.085 50.707 102.835 50.8296C102.589 50.9523 102.296 51.0136 101.955 51.0136C101.485 51.0136 101.112 50.9016 100.835 50.6776C100.557 50.4536 100.419 50.1576 100.419 49.7896C100.419 49.4323 100.547 49.1443 100.803 48.9256C101.064 48.707 101.477 48.5976 102.043 48.5976H103.379V48.3416C103.379 47.979 103.277 47.7043 103.075 47.5176C102.872 47.3256 102.576 47.2296 102.187 47.2296C101.92 47.2296 101.664 47.275 101.419 47.3656C101.173 47.451 100.963 47.571 100.787 47.7256L100.531 47.3016C100.744 47.1203 101 46.9816 101.299 46.8856C101.597 46.7843 101.912 46.7336 102.243 46.7336ZM102.043 50.5656C102.363 50.5656 102.637 50.4936 102.867 50.3496C103.096 50.2003 103.267 49.987 103.379 49.7096V49.0216H102.059C101.339 49.0216 100.979 49.2723 100.979 49.7736C100.979 50.019 101.072 50.2136 101.259 50.3576C101.445 50.4963 101.707 50.5656 102.043 50.5656ZM105.459 46.7656H106.027V48.6296H108.675V46.7656H109.243V50.9736H108.675V49.1176H106.027V50.9736H105.459V46.7656ZM110.857 46.7656H111.425V50.1096L114.233 46.7656H114.737V50.9736H114.169V47.6296L111.369 50.9736H110.857V46.7656ZM118.327 48.7816C118.626 48.851 118.855 48.971 119.015 49.1416C119.18 49.3123 119.263 49.5203 119.263 49.7656C119.263 50.011 119.178 50.2296 119.007 50.4216C118.842 50.6136 118.615 50.763 118.327 50.8696C118.039 50.971 117.722 51.0216 117.375 51.0216C117.071 51.0216 116.772 50.979 116.479 50.8936C116.186 50.803 115.93 50.6723 115.711 50.5016L115.903 50.0776C116.095 50.2216 116.319 50.3336 116.575 50.4136C116.831 50.4936 117.09 50.5336 117.351 50.5336C117.74 50.5336 118.058 50.4616 118.303 50.3176C118.554 50.1683 118.679 49.9683 118.679 49.7176C118.679 49.4936 118.578 49.3203 118.375 49.1976C118.172 49.0696 117.895 49.0056 117.543 49.0056H116.823V48.5896H117.511C117.826 48.5896 118.079 48.531 118.271 48.4136C118.463 48.291 118.559 48.1283 118.559 47.9256C118.559 47.7016 118.45 47.5256 118.231 47.3976C118.018 47.2696 117.738 47.2056 117.391 47.2056C116.938 47.2056 116.49 47.3203 116.047 47.5496L115.887 47.1096C116.388 46.8483 116.908 46.7176 117.447 46.7176C117.767 46.7176 118.055 46.7656 118.311 46.8616C118.572 46.9523 118.775 47.083 118.919 47.2536C119.068 47.4243 119.143 47.6216 119.143 47.8456C119.143 48.059 119.068 48.2483 118.919 48.4136C118.775 48.579 118.578 48.7016 118.327 48.7816ZM122 46.7336C122.55 46.7336 122.971 46.8723 123.264 47.1496C123.558 47.4216 123.704 47.827 123.704 48.3656V50.9736H123.16V50.3176C123.032 50.5363 122.843 50.707 122.592 50.8296C122.347 50.9523 122.054 51.0136 121.712 51.0136C121.243 51.0136 120.87 50.9016 120.592 50.6776C120.315 50.4536 120.176 50.1576 120.176 49.7896C120.176 49.4323 120.304 49.1443 120.56 48.9256C120.822 48.707 121.235 48.5976 121.8 48.5976H123.136V48.3416C123.136 47.979 123.035 47.7043 122.832 47.5176C122.63 47.3256 122.334 47.2296 121.944 47.2296C121.678 47.2296 121.422 47.275 121.176 47.3656C120.931 47.451 120.72 47.571 120.544 47.7256L120.288 47.3016C120.502 47.1203 120.758 46.9816 121.056 46.8856C121.355 46.7843 121.67 46.7336 122 46.7336ZM121.8 50.5656C122.12 50.5656 122.395 50.4936 122.624 50.3496C122.854 50.2003 123.024 49.987 123.136 49.7096V49.0216H121.816C121.096 49.0216 120.736 49.2723 120.736 49.7736C120.736 50.019 120.83 50.2136 121.016 50.3576C121.203 50.4963 121.464 50.5656 121.8 50.5656ZM129.6 50.4776V52.0296H129.064V50.9736H125.216V46.7656H125.784V50.4776H128.352V46.7656H128.92V50.4776H129.6ZM130.685 46.7656H131.253V50.1096L134.061 46.7656H134.565V50.9736H133.997V47.6296L131.197 50.9736H130.685V46.7656ZM139.425 46.7656V50.9736H138.905V49.5816H137.585H137.425L136.449 50.9736H135.833L136.881 49.5016C136.556 49.411 136.305 49.2563 136.129 49.0376C135.953 48.819 135.865 48.5416 135.865 48.2056C135.865 47.7363 136.025 47.379 136.345 47.1336C136.665 46.8883 137.102 46.7656 137.657 46.7656H139.425ZM136.441 48.2216C136.441 48.8456 136.838 49.1576 137.633 49.1576H138.905V47.2696H137.673C136.852 47.2696 136.441 47.587 136.441 48.2216ZM146.914 46.7656V50.9736H146.346V47.2696H143.706V50.9736H143.138V46.7656H146.914ZM150.265 51.0136C149.86 51.0136 149.494 50.923 149.169 50.7416C148.844 50.555 148.588 50.299 148.401 49.9736C148.214 49.6483 148.121 49.2803 148.121 48.8696C148.121 48.459 148.214 48.091 148.401 47.7656C148.588 47.4403 148.844 47.187 149.169 47.0056C149.494 46.8243 149.86 46.7336 150.265 46.7336C150.67 46.7336 151.036 46.8243 151.361 47.0056C151.686 47.187 151.94 47.4403 152.121 47.7656C152.308 48.091 152.401 48.459 152.401 48.8696C152.401 49.2803 152.308 49.6483 152.121 49.9736C151.94 50.299 151.686 50.555 151.361 50.7416C151.036 50.923 150.67 51.0136 150.265 51.0136ZM150.265 50.5096C150.564 50.5096 150.83 50.443 151.065 50.3096C151.305 50.171 151.492 49.9763 151.625 49.7256C151.758 49.475 151.825 49.1896 151.825 48.8696C151.825 48.5496 151.758 48.2643 151.625 48.0136C151.492 47.763 151.305 47.571 151.065 47.4376C150.83 47.299 150.564 47.2296 150.265 47.2296C149.966 47.2296 149.697 47.299 149.457 47.4376C149.222 47.571 149.036 47.763 148.897 48.0136C148.764 48.2643 148.697 48.5496 148.697 48.8696C148.697 49.1896 148.764 49.475 148.897 49.7256C149.036 49.9763 149.222 50.171 149.457 50.3096C149.697 50.443 149.966 50.5096 150.265 50.5096ZM156.098 50.9736L154.762 49.2136L153.418 50.9736H152.778L154.442 48.8136L152.858 46.7656H153.498L154.762 48.4136L156.026 46.7656H156.65L155.066 48.8136L156.746 50.9736H156.098ZM159.265 51.0136C158.86 51.0136 158.494 50.923 158.169 50.7416C157.844 50.555 157.588 50.299 157.401 49.9736C157.214 49.6483 157.121 49.2803 157.121 48.8696C157.121 48.459 157.214 48.091 157.401 47.7656C157.588 47.4403 157.844 47.187 158.169 47.0056C158.494 46.8243 158.86 46.7336 159.265 46.7336C159.67 46.7336 160.036 46.8243 160.361 47.0056C160.686 47.187 160.94 47.4403 161.121 47.7656C161.308 48.091 161.401 48.459 161.401 48.8696C161.401 49.2803 161.308 49.6483 161.121 49.9736C160.94 50.299 160.686 50.555 160.361 50.7416C160.036 50.923 159.67 51.0136 159.265 51.0136ZM159.265 50.5096C159.564 50.5096 159.83 50.443 160.065 50.3096C160.305 50.171 160.492 49.9763 160.625 49.7256C160.758 49.475 160.825 49.1896 160.825 48.8696C160.825 48.5496 160.758 48.2643 160.625 48.0136C160.492 47.763 160.305 47.571 160.065 47.4376C159.83 47.299 159.564 47.2296 159.265 47.2296C158.966 47.2296 158.697 47.299 158.457 47.4376C158.222 47.571 158.036 47.763 157.897 48.0136C157.764 48.2643 157.697 48.5496 157.697 48.8696C157.697 49.1896 157.764 49.475 157.897 49.7256C158.036 49.9763 158.222 50.171 158.457 50.3096C158.697 50.443 158.966 50.5096 159.265 50.5096ZM166.695 50.4776V51.9896H166.159V50.9736H162.391V51.9896H161.855V50.4776H162.095C162.378 50.4616 162.57 50.2536 162.671 49.8536C162.773 49.4536 162.842 48.8936 162.879 48.1736L162.935 46.7656H166.039V50.4776H166.695ZM163.399 48.2056C163.373 48.803 163.322 49.2963 163.247 49.6856C163.173 50.0696 163.039 50.3336 162.847 50.4776H165.471V47.2696H163.447L163.399 48.2056ZM169.538 51.0136C169.133 51.0136 168.768 50.923 168.442 50.7416C168.117 50.555 167.861 50.299 167.674 49.9736C167.488 49.6483 167.394 49.2803 167.394 48.8696C167.394 48.459 167.488 48.091 167.674 47.7656C167.861 47.4403 168.117 47.187 168.442 47.0056C168.768 46.8243 169.133 46.7336 169.538 46.7336C169.944 46.7336 170.309 46.8243 170.634 47.0056C170.96 47.187 171.213 47.4403 171.394 47.7656C171.581 48.091 171.674 48.459 171.674 48.8696C171.674 49.2803 171.581 49.6483 171.394 49.9736C171.213 50.299 170.96 50.555 170.634 50.7416C170.309 50.923 169.944 51.0136 169.538 51.0136ZM169.538 50.5096C169.837 50.5096 170.104 50.443 170.338 50.3096C170.578 50.171 170.765 49.9763 170.898 49.7256C171.032 49.475 171.098 49.1896 171.098 48.8696C171.098 48.5496 171.032 48.2643 170.898 48.0136C170.765 47.763 170.578 47.571 170.338 47.4376C170.104 47.299 169.837 47.2296 169.538 47.2296C169.24 47.2296 168.97 47.299 168.73 47.4376C168.496 47.571 168.309 47.763 168.17 48.0136C168.037 48.2643 167.97 48.5496 167.97 48.8696C167.97 49.1896 168.037 49.475 168.17 49.7256C168.309 49.9763 168.496 50.171 168.73 50.3096C168.97 50.443 169.24 50.5096 169.538 50.5096ZM175.568 48.7976C176.139 48.931 176.424 49.275 176.424 49.8296C176.424 50.1976 176.288 50.4803 176.016 50.6776C175.744 50.875 175.339 50.9736 174.8 50.9736H172.888V46.7656H174.744C175.224 46.7656 175.6 46.859 175.872 47.0456C176.144 47.2323 176.28 47.499 176.28 47.8456C176.28 48.075 176.216 48.2723 176.088 48.4376C175.966 48.5976 175.792 48.7176 175.568 48.7976ZM173.44 48.6376H174.704C175.03 48.6376 175.278 48.5763 175.448 48.4536C175.624 48.331 175.712 48.1523 175.712 47.9176C175.712 47.683 175.624 47.507 175.448 47.3896C175.278 47.2723 175.03 47.2136 174.704 47.2136H173.44V48.6376ZM174.776 50.5256C175.139 50.5256 175.411 50.467 175.592 50.3496C175.774 50.2323 175.864 50.0483 175.864 49.7976C175.864 49.547 175.782 49.363 175.616 49.2456C175.451 49.123 175.19 49.0616 174.832 49.0616H173.44V50.5256H174.776ZM182.529 48.7976C183.1 48.931 183.385 49.275 183.385 49.8296C183.385 50.1976 183.249 50.4803 182.977 50.6776C182.705 50.875 182.3 50.9736 181.761 50.9736H179.849V46.7656H181.705C182.185 46.7656 182.561 46.859 182.833 47.0456C183.105 47.2323 183.241 47.499 183.241 47.8456C183.241 48.075 183.177 48.2723 183.049 48.4376C182.927 48.5976 182.753 48.7176 182.529 48.7976ZM180.401 48.6376H181.665C181.991 48.6376 182.239 48.5763 182.409 48.4536C182.585 48.331 182.673 48.1523 182.673 47.9176C182.673 47.683 182.585 47.507 182.409 47.3896C182.239 47.2723 181.991 47.2136 181.665 47.2136H180.401V48.6376ZM181.737 50.5256C182.1 50.5256 182.372 50.467 182.553 50.3496C182.735 50.2323 182.825 50.0483 182.825 49.7976C182.825 49.547 182.743 49.363 182.577 49.2456C182.412 49.123 182.151 49.0616 181.793 49.0616H180.401V50.5256H181.737ZM189.786 47.2696H187.378V50.9736H186.81V46.7656H189.786V47.2696ZM192.148 51.0136C191.742 51.0136 191.377 50.923 191.052 50.7416C190.726 50.555 190.47 50.299 190.284 49.9736C190.097 49.6483 190.004 49.2803 190.004 48.8696C190.004 48.459 190.097 48.091 190.284 47.7656C190.47 47.4403 190.726 47.187 191.052 47.0056C191.377 46.8243 191.742 46.7336 192.148 46.7336C192.553 46.7336 192.918 46.8243 193.244 47.0056C193.569 47.187 193.822 47.4403 194.004 47.7656C194.19 48.091 194.284 48.459 194.284 48.8696C194.284 49.2803 194.19 49.6483 194.004 49.9736C193.822 50.299 193.569 50.555 193.244 50.7416C192.918 50.923 192.553 51.0136 192.148 51.0136ZM192.148 50.5096C192.446 50.5096 192.713 50.443 192.948 50.3096C193.188 50.171 193.374 49.9763 193.508 49.7256C193.641 49.475 193.708 49.1896 193.708 48.8696C193.708 48.5496 193.641 48.2643 193.508 48.0136C193.374 47.763 193.188 47.571 192.948 47.4376C192.713 47.299 192.446 47.2296 192.148 47.2296C191.849 47.2296 191.58 47.299 191.34 47.4376C191.105 47.571 190.918 47.763 190.78 48.0136C190.646 48.2643 190.58 48.5496 190.58 48.8696C190.58 49.1896 190.646 49.475 190.78 49.7256C190.918 49.9763 191.105 50.171 191.34 50.3096C191.58 50.443 191.849 50.5096 192.148 50.5096ZM197.666 46.7336C198.06 46.7336 198.418 46.8243 198.738 47.0056C199.058 47.1816 199.308 47.4323 199.49 47.7576C199.671 48.083 199.762 48.4536 199.762 48.8696C199.762 49.291 199.671 49.6643 199.49 49.9896C199.308 50.315 199.058 50.5683 198.738 50.7496C198.423 50.9256 198.066 51.0136 197.666 51.0136C197.324 51.0136 197.015 50.9443 196.738 50.8056C196.466 50.6616 196.242 50.4536 196.066 50.1816V52.5256H195.498V46.7656H196.042V47.5976C196.212 47.3203 196.436 47.107 196.714 46.9576C196.996 46.8083 197.314 46.7336 197.666 46.7336ZM197.626 50.5096C197.919 50.5096 198.186 50.443 198.426 50.3096C198.666 50.171 198.852 49.9763 198.986 49.7256C199.124 49.475 199.194 49.1896 199.194 48.8696C199.194 48.5496 199.124 48.267 198.986 48.0216C198.852 47.771 198.666 47.5763 198.426 47.4376C198.186 47.299 197.919 47.2296 197.626 47.2296C197.327 47.2296 197.058 47.299 196.818 47.4376C196.583 47.5763 196.396 47.771 196.258 48.0216C196.124 48.267 196.058 48.5496 196.058 48.8696C196.058 49.1896 196.124 49.475 196.258 49.7256C196.396 49.9763 196.583 50.171 196.818 50.3096C197.058 50.443 197.327 50.5096 197.626 50.5096ZM202.75 48.2536C203.278 48.259 203.681 48.3763 203.958 48.6056C204.235 48.835 204.374 49.1656 204.374 49.5976C204.374 50.0456 204.225 50.3896 203.926 50.6296C203.627 50.8696 203.201 50.987 202.646 50.9816L200.982 50.9736V46.7656H201.55V48.2376L202.75 48.2536ZM205.078 46.7656H205.646V50.9736H205.078V46.7656ZM202.614 50.5496C203.003 50.555 203.297 50.4776 203.494 50.3176C203.697 50.1523 203.798 49.9123 203.798 49.5976C203.798 49.2883 203.699 49.059 203.502 48.9096C203.305 48.7603 203.009 48.683 202.614 48.6776L201.55 48.6616V50.5336L202.614 50.5496Z" fill="#2D383F"/>
<defs>
<clipPath id="clip0_2_1014">
<rect width="61.8683" height="61.8683" fill="white"/>
</clipPath>
</defs>
</symbol>

</svg>
