<svg>

<symbol id="top-section-vk" width="22" height="22" viewBox="0 0 22 22" fill="none" xmlns="http://www.w3.org/2000/svg">
<rect opacity="0.432" width="21.3043" height="21.3043" fill="#0266C1"/>
<path d="M16.8931 13.6836C16.8608 13.6296 16.6613 13.196 15.7012 12.305C14.6961 11.3719 14.8311 11.5234 16.0417 9.91003C16.779 8.92745 17.0738 8.32741 16.9816 8.07089C16.8938 7.82637 16.3515 7.89088 16.3515 7.89088L14.5484 7.90138C14.5484 7.90138 14.4149 7.88337 14.3151 7.94263C14.2184 8.00113 14.1561 8.13614 14.1561 8.13614C14.1561 8.13614 13.8703 8.8967 13.4893 9.54325C12.686 10.9076 12.3642 10.9796 12.233 10.8948C11.9277 10.6976 12.0042 10.1013 12.0042 9.67826C12.0042 8.35591 12.2045 7.80462 11.6134 7.66211C11.4169 7.61485 11.2729 7.58335 10.7711 7.5781C10.1275 7.57135 9.58226 7.58035 9.27398 7.73111C9.06847 7.83162 8.91021 8.05589 9.00696 8.06864C9.12622 8.08439 9.39624 8.14139 9.5395 8.33641C9.72477 8.58768 9.71802 9.15322 9.71802 9.15322C9.71802 9.15322 9.82453 10.7096 9.46975 10.9031C9.22598 11.0359 8.89221 10.7651 8.1759 9.52675C7.80913 8.89295 7.53161 8.19165 7.53161 8.19165C7.53161 8.19165 7.47835 8.06114 7.38309 7.99138C7.26759 7.90663 7.10557 7.87962 7.10557 7.87962L5.39095 7.89013C5.39095 7.89013 5.13368 7.89763 5.03917 8.00938C4.95516 8.10914 5.03242 8.31466 5.03242 8.31466C5.03242 8.31466 6.37502 11.4551 7.89463 13.0385C9.28899 14.4899 10.8716 14.3946 10.8716 14.3946H11.5887C11.5887 14.3946 11.8054 14.3706 11.9157 14.2513C12.0177 14.1418 12.0139 13.9363 12.0139 13.9363C12.0139 13.9363 11.9997 12.974 12.4467 12.8322C12.887 12.6927 13.4525 13.7623 14.0518 14.1741C14.5049 14.4854 14.8491 14.4171 14.8491 14.4171L16.452 14.3946C16.452 14.3946 17.2906 14.3429 16.8931 13.6836Z" fill="white"/>
</symbol>

<symbol id="top-section-fb" width="22" height="22" viewBox="0 0 22 22" fill="none" xmlns="http://www.w3.org/2000/svg">
<rect opacity="0.432" x="0.347656" width="21.3043" height="21.3043" fill="#0266C1"/>
<path d="M11.6657 8.98786V7.65633C11.6657 7.28883 11.964 6.99057 12.3315 6.99057H12.9972V5.32617H11.6657C10.5626 5.32617 9.66844 6.22029 9.66844 7.32345V8.98786H8.33691V10.6523H9.66844V15.9783H11.6657V10.6523H12.9972L13.663 8.98786H11.6657Z" fill="white"/>
</symbol>

<symbol id="top-section-insta" width="22" height="22" viewBox="0 0 22 22" fill="none" xmlns="http://www.w3.org/2000/svg">
<rect opacity="0.432" x="0.695801" width="21.3043" height="21.3043" fill="#0266C1"/>
<path d="M14.4124 4H8.58745C6.60933 4 5 5.60941 5 7.58753V13.4125C5 15.3907 6.60933 17 8.58745 17H14.4124C16.3907 17 18 15.3906 18 13.4125V7.58753C18.0001 5.60941 16.3907 4 14.4124 4ZM16.8467 13.4125C16.8467 14.7547 15.7547 15.8466 14.4125 15.8466H8.58745C7.24533 15.8467 6.15342 14.7547 6.15342 13.4125V7.58753C6.15342 6.24541 7.24533 5.15342 8.58745 5.15342H14.4124C15.7546 5.15342 16.8466 6.24541 16.8466 7.58753L16.8467 13.4125Z" fill="white"/>
<path d="M11.5001 7.15033C9.65297 7.15033 8.1503 8.65301 8.1503 10.5001C8.1503 12.3471 9.65297 13.8497 11.5001 13.8497C13.3471 13.8497 14.8498 12.3471 14.8498 10.5001C14.8498 8.65301 13.3471 7.15033 11.5001 7.15033ZM11.5001 12.6962C10.289 12.6962 9.30372 11.7111 9.30372 10.5C9.30372 9.28893 10.289 8.30368 11.5001 8.30368C12.7112 8.30368 13.6964 9.28893 13.6964 10.5C13.6964 11.7111 12.7111 12.6962 11.5001 12.6962Z" fill="white"/>
<path d="M14.9903 6.1724C14.768 6.1724 14.5497 6.26236 14.3928 6.41999C14.235 6.57686 14.1444 6.79524 14.1444 7.01823C14.1444 7.24053 14.2351 7.45883 14.3928 7.61646C14.5496 7.77333 14.768 7.86406 14.9903 7.86406C15.2133 7.86406 15.4309 7.77333 15.5885 7.61646C15.7462 7.45883 15.8362 7.24045 15.8362 7.01823C15.8362 6.79524 15.7462 6.57686 15.5885 6.41999C15.4317 6.26236 15.2133 6.1724 14.9903 6.1724Z" fill="white"/>
</symbol>

<symbol id='logo-1' width="62" height="62" viewBox="0 0 62 62" fill="none" xmlns="http://www.w3.org/2000/svg">
<path d="M38.4033 13.5742L30.3543 21.7596L35.6749 27.2166L38.4033 24.4881L53.3418 39.3583C49.9312 48.4305 41.2 54.9106 30.9 54.9106C17.6669 54.9106 6.95762 44.2014 6.95762 30.9682C7.02583 17.7351 17.7351 7.02583 30.9682 7.02583C42.7007 7.02583 52.5232 15.5523 54.5014 26.6709L61.7318 34.3106C61.8683 33.2192 61.9365 32.0596 61.9365 30.9682C61.9365 22.7146 58.7305 14.9384 52.8643 9.07219C46.998 3.20596 39.2219 0 30.9682 0C22.6464 0 14.9384 3.20596 9.07219 9.07219C3.20596 14.9384 0 22.6464 0 30.9682C0 39.2901 3.20596 46.998 9.07219 52.8643C14.9384 58.7305 22.7146 61.9365 30.9682 61.9365C39.2219 61.9365 46.998 58.7305 52.8643 52.8643C56.4795 49.249 59.0716 44.9517 60.504 40.2451C60.7769 39.4265 60.9815 38.5398 61.1861 37.7212L54.9106 31.1047L38.4033 13.5742Z" fill="white"/>
</symbol>

<symbol id='logo-2' width="35" height="18" viewBox="0 0 35 18" fill="none" xmlns="http://www.w3.org/2000/svg">
<path d="M11.7825 17.1768L17.2395 11.447L23.4468 17.1768H34.0878L17.1713 0.601318L0.391113 17.1768H11.7825Z" fill="white"/>
</symbol>

<symbol id="back-button" width="37" height="35" viewBox="0 0 37 35" fill="none" xmlns="http://www.w3.org/2000/svg">
<rect width="37" height="35" fill="#0266C1"/>
<path d="M11.6464 18.3536C11.4512 18.1583 11.4512 17.8417 11.6464 17.6464L14.8284 14.4645C15.0237 14.2692 15.3403 14.2692 15.5355 14.4645C15.7308 14.6597 15.7308 14.9763 15.5355 15.1716L12.7071 18L15.5355 20.8284C15.7308 21.0237 15.7308 21.3403 15.5355 21.5355C15.3403 21.7308 15.0237 21.7308 14.8284 21.5355L11.6464 18.3536ZM25 18.5H12V17.5H25V18.5Z" fill="white"/>
</symbol>

<symbol id="next-button" width="37" height="35" viewBox="0 0 37 35" fill="none" xmlns="http://www.w3.org/2000/svg">
<rect width="37" height="35" fill="#0266C1"/>
<path d="M26.3536 18.3536C26.5488 18.1583 26.5488 17.8417 26.3536 17.6464L23.1716 14.4645C22.9763 14.2692 22.6597 14.2692 22.4645 14.4645C22.2692 14.6597 22.2692 14.9763 22.4645 15.1716L25.2929 18L22.4645 20.8284C22.2692 21.0237 22.2692 21.3403 22.4645 21.5355C22.6597 21.7308 22.9763 21.7308 23.1716 21.5355L26.3536 18.3536ZM13 18.5H26V17.5H13V18.5Z" fill="white"/>
</symbol>

<symbol id='map' width="25" height="25" viewBox="0 0 25 25" fill="none" xmlns="http://www.w3.org/2000/svg">
<path d="M24.1702 22.2803V6.70123C24.1821 6.44571 23.9845 6.22897 23.7291 6.2171C23.6746 6.21456 23.6201 6.22168 23.5681 6.23812V6.26127L21.4841 6.91426C21.7023 6.33016 21.8319 5.71665 21.8685 5.09423C21.8685 2.28077 19.5878 0 16.7743 0C13.9608 0 11.6801 2.28077 11.6801 5.09423C11.7126 5.68754 11.8327 6.27279 12.0367 6.8309L8.5911 5.59902C8.5511 5.5941 8.51069 5.5941 8.47069 5.59902H8.43364C8.37813 5.60001 8.32319 5.61101 8.27155 5.63144L1.12574 8.41011C0.960927 8.47281 0.846018 8.62361 0.829346 8.79913V16.246V24.3967C0.830098 24.6525 1.03804 24.8592 1.29385 24.8585C1.3504 24.8583 1.40644 24.8478 1.45918 24.8274L8.44291 22.1229L16.4084 24.9756C16.5046 25.0081 16.6087 25.0081 16.7048 24.9756L23.846 22.7434C24.0467 22.6806 24.1798 22.4904 24.1702 22.2803ZM16.7743 0.926224C19.0762 0.926224 20.9423 2.79228 20.9423 5.09423C20.9423 6.905 18.2238 11.9066 16.7743 14.3565C15.3248 11.8881 12.6063 6.88184 12.6063 5.09423C12.6063 2.79228 14.4723 0.926224 16.7743 0.926224ZM23.2579 21.9608L17.0244 23.9105V20.3769C17.0244 20.1212 16.817 19.9138 16.5613 19.9138C16.3055 19.9138 16.0981 20.1212 16.0981 20.3769V23.8781L8.90139 21.3032V18.3392C8.90139 18.0835 8.69403 17.8761 8.43828 17.8761C8.18252 17.8761 7.97516 18.0835 7.97516 18.3392V21.3032L1.75557 23.7252V16.5655L4.04334 15.6393C4.28816 15.5652 4.42651 15.3067 4.35241 15.0618C4.27831 14.817 4.01978 14.6787 3.77497 14.7528C3.74938 14.7605 3.72449 14.7705 3.70058 14.7825L1.75551 15.5652V9.11867L7.97511 6.71049V8.09983C7.97511 8.35558 8.18246 8.56294 8.43822 8.56294C8.69397 8.56294 8.90133 8.35558 8.90133 8.09983V6.69197L12.4534 7.96553C13.5925 10.5687 14.9029 13.0936 16.376 15.5235C16.5086 15.7422 16.7934 15.8119 17.0121 15.6793C17.0758 15.6407 17.1292 15.5872 17.1679 15.5235C18.6337 13.1079 19.9394 10.5985 21.0765 8.01184L23.2439 7.33106L23.2578 14.9215L20.9098 15.4911C20.6541 15.5218 20.4716 15.754 20.5023 16.0098C20.533 16.2655 20.7652 16.448 21.021 16.4173C21.0579 16.4218 21.0952 16.4218 21.1321 16.4173L23.2578 15.8986V21.9608H23.2579Z" fill="#2D383F"/>
</symbol>

<symbol id='skate' width="24" height="22" viewBox="0 0 24 22" fill="none" xmlns="http://www.w3.org/2000/svg">
<path d="M23.6583 14.6155C24.404 12.2804 23.7904 9.63006 23.1385 7.79353C23.1342 7.72248 23.1123 7.65361 23.0746 7.59326C22.853 6.99671 22.6484 6.50669 22.4737 6.15302C22.7953 6.02497 23.0075 5.71508 23.0106 5.36898V1.8195C23.0106 1.34881 22.6291 0.967282 22.1584 0.967282H11.6889C11.4536 0.966856 11.2625 1.15727 11.2621 1.39264C11.2621 1.40143 11.2624 1.41022 11.2628 1.41896C11.4077 3.9756 11.2202 5.70986 10.6791 6.93279C10.6683 6.94494 10.6583 6.95777 10.6492 6.97114C10.6476 6.9924 10.6476 7.01381 10.6492 7.03506C10.4427 7.48024 10.1633 7.88775 9.82259 8.24095L9.78424 8.26651C9.78424 8.26651 9.78424 8.26651 9.78424 8.29634C9.28468 8.77278 8.70853 9.16171 8.07981 9.44683C6.98439 9.93286 5.86021 10.3512 4.71355 10.6996L4.49624 10.772C0.512129 12.093 -0.00772321 14.4877 0.000798953 15.6893C-0.000266318 15.7064 -0.000266318 15.7234 0.000798953 15.7404V18.7829C0.00143811 18.9309 0.07883 19.068 0.205331 19.145C1.18176 19.7391 2.23574 20.1951 3.33723 20.5001C3.56375 20.5638 3.79907 20.4318 3.86278 20.2052C3.87476 20.1625 3.88003 20.1182 3.87838 20.074V19.976H4.50476V20.4021C4.50204 20.6131 4.65433 20.7944 4.86269 20.8282C5.23341 20.8878 5.60412 20.9347 5.96631 20.9645C6.08498 20.9745 6.20243 20.9343 6.29015 20.8537C6.37783 20.7724 6.42731 20.658 6.42651 20.5384V20.0015H7.05289V20.6066C7.05289 20.8419 7.24368 21.0327 7.479 21.0327C7.83693 21.0327 8.19486 21.0327 8.57835 20.9816C8.8003 20.9638 8.97107 20.7781 8.97037 20.5555V20.0015H9.59675V20.3765C9.59372 20.6118 9.782 20.8051 10.0173 20.8081C10.042 20.8084 10.0666 20.8066 10.091 20.8026C10.8732 20.6828 11.6442 20.499 12.3963 20.2529L12.4645 20.2231C15.4472 18.5187 17.3391 19.9206 17.4158 19.9802C17.4902 20.038 17.5816 20.0694 17.6758 20.0697H18.2041C18.4395 20.0697 18.6302 19.8789 18.6302 19.6436V18.9235H19.2396V19.6351C19.2396 19.8704 19.4304 20.0612 19.6657 20.0612H21.0378C21.2731 20.0612 21.4639 19.8704 21.4639 19.6351V18.9235H22.0945V19.6351C22.0945 19.8704 22.2853 20.0612 22.5206 20.0612H23.5731C23.8084 20.0612 23.9992 19.8704 23.9992 19.6351V15.0416C24.0034 14.8359 23.8599 14.6566 23.6583 14.6155ZM13.5468 1.82802H13.8962H22.1371V5.35619H13.5468V1.82802ZM8.1906 10.3246L8.19486 10.3502C8.54416 10.6338 8.86651 10.949 9.15786 11.2919C9.08058 11.4204 9.04073 11.568 9.04281 11.718C9.03988 12.1675 9.40191 12.5342 9.85135 12.5371C10.3008 12.5401 10.6676 12.178 10.6705 11.7286C10.6733 11.3051 10.3509 10.9504 9.92912 10.9126C9.6596 10.5452 9.35254 10.2067 9.01298 9.90277C9.39377 9.68604 9.75202 9.43197 10.0825 9.14429C10.4958 9.532 10.8803 9.94927 11.233 10.3928C11.0848 10.8171 11.3086 11.2813 11.7329 11.4296C12.1572 11.5778 12.6214 11.354 12.7697 10.9297C12.9179 10.5053 12.6941 10.0412 12.2698 9.89291C12.1817 9.86213 12.0891 9.84673 11.9957 9.84737H11.8935C11.5197 9.37684 11.1125 8.93396 10.6748 8.52218C10.8779 8.2721 11.0576 8.00398 11.2117 7.72109C11.8714 8.06448 12.5089 8.44873 13.1207 8.87159C13.1165 9.32576 13.4813 9.69733 13.9354 9.70154C14.3896 9.70575 14.7612 9.34094 14.7654 8.88677C14.7696 8.43259 14.4048 8.06102 13.9506 8.05681C13.8209 8.05559 13.6927 8.0851 13.5766 8.14294C12.9327 7.70703 12.2624 7.31144 11.5696 6.95836C12.0341 5.72265 12.2344 4.08213 12.1406 1.84506H12.6988V5.37324C12.6988 5.84393 13.0803 6.22545 13.551 6.22545H21.5363C21.6471 6.45129 21.8346 6.84331 22.0391 7.35464H21.8644C19.2758 7.37334 17.1925 9.48694 17.2112 12.0755C17.2218 13.5465 17.9224 14.9272 19.1032 15.8044C15.656 16.712 10.4703 17.79 6.10693 17.5088C6.91227 14.2917 5.94927 12.3103 5.32289 11.441C6.2983 11.1211 7.25561 10.7484 8.1906 10.3246ZM4.46641 11.6839C4.92661 12.2251 6.12823 14.0445 5.24619 17.3895C3.71082 17.2688 2.2196 16.8182 0.874321 16.0685C0.859034 15.9712 0.849074 15.873 0.844493 15.7745V15.7447C0.810404 14.8371 1.15129 12.8727 4.46641 11.6839ZM22.9467 19.209V18.4974C22.9467 18.262 22.7559 18.0713 22.5206 18.0713H21.042C20.8067 18.0713 20.6159 18.262 20.6159 18.4974V19.209H20.0918V18.4974C20.0918 18.262 19.901 18.0713 19.6657 18.0713H18.1956C17.9603 18.0713 17.7695 18.262 17.7695 18.4974V19.1919C17.19 18.8297 15.0722 17.7772 12.0682 19.4561C11.5337 19.6325 10.9886 19.7748 10.4362 19.8822V19.5882C10.4362 19.3529 10.2454 19.1621 10.0101 19.1621H8.54C8.30469 19.1621 8.1139 19.3529 8.1139 19.5882V20.172H7.89658V19.5754C7.89658 19.3401 7.70579 19.1493 7.47047 19.1493H5.99188C5.75656 19.1493 5.56577 19.3401 5.56577 19.5754V20.0825L5.34846 20.0527V19.5754C5.34846 19.3401 5.15767 19.1493 4.92235 19.1493H3.44375C3.22702 19.1478 3.04364 19.3091 3.01764 19.5243C2.26136 19.2753 1.53308 18.9482 0.844493 18.5485V17.023C2.70232 18.0073 5.10557 18.3781 7.66222 18.3781C14.4544 18.3781 22.2266 15.7788 23.1427 15.4677L23.147 19.209H22.9467V19.209ZM22.7379 14.7135C22.3757 14.8328 21.4852 15.1396 20.2537 15.4677C18.3473 14.5451 17.5497 12.2516 18.4724 10.3451C19.1036 9.04102 20.4158 8.20393 21.8644 8.18129C22.0324 8.17895 22.2003 8.18747 22.3672 8.20686L22.3715 8.21964C22.9979 10.0263 23.5603 12.6043 22.7379 14.7135Z" fill="#2D383F"/>
</symbol>

<symbol id='tree' width="23" height="23" viewBox="0 0 23 23" fill="none" xmlns="http://www.w3.org/2000/svg">
<path d="M22.6246 16.6366L18.1102 11.4721H20.2913C20.546 11.4714 20.7519 11.2645 20.7514 11.0098C20.7511 10.9085 20.7175 10.81 20.6556 10.7297L17.0312 5.96629H18.8757C19.1304 5.96595 19.3365 5.75925 19.3363 5.5046C19.3361 5.39278 19.2953 5.28482 19.2215 5.20083L14.7856 0.156187C14.6172 -0.0348313 14.3257 -0.0531031 14.1347 0.115378C14.1202 0.128117 14.1066 0.141778 14.0939 0.156187L9.65332 5.19622C9.4827 5.38528 9.49763 5.67688 9.68663 5.8475C9.77229 5.92479 9.88376 5.96716 9.99916 5.96629H11.8667L10.7508 7.42343L7.76273 4.02498C7.5943 3.83396 7.30288 3.81569 7.11186 3.98417C7.09739 3.99691 7.08379 4.01057 7.07105 4.02498L3.27604 8.33645C3.10796 8.52775 3.12681 8.81912 3.31811 8.9872C3.40209 9.06098 3.51005 9.10173 3.62188 9.10191H5.08362L2.04946 13.0721C1.89919 13.2777 1.94398 13.5662 2.14958 13.7166C2.22636 13.7727 2.31864 13.8037 2.41374 13.8053H4.11988L0.370984 18.1168C0.205442 18.3103 0.228094 18.6014 0.421649 18.767C0.503959 18.8374 0.608518 18.8766 0.716823 18.8776H5.8168V22.1055C5.8168 22.5995 6.21734 23 6.71138 23H8.11779C8.61182 23.0026 9.01444 22.6042 9.01697 22.1101C9.01697 22.1085 9.01697 22.107 9.01697 22.1055V18.8776H12.8443V22.1055C12.8443 22.5995 13.2448 23 13.7388 23H15.1453C15.6393 23 16.0398 22.5995 16.0398 22.1055V17.4021H22.2788C22.5334 17.4017 22.7396 17.195 22.7393 16.9404C22.7391 16.8285 22.6984 16.7206 22.6246 16.6366ZM8.09473 22.0778L6.73904 22.1055L6.71138 18.8776H8.09473V22.0778ZM12.8443 17.9554H1.73129L5.50324 13.6532C5.67397 13.4642 5.65916 13.1726 5.47021 13.0019C5.38214 12.9223 5.2668 12.8798 5.14818 12.8831H3.34981L6.38398 8.91285C6.53932 8.71105 6.50168 8.42152 6.29988 8.26618C6.21953 8.20434 6.12109 8.17067 6.0197 8.17044H4.63634L7.40306 5.021L10.1698 8.16122L8.22385 10.7343C8.06851 10.9361 8.10615 11.2256 8.30795 11.3809C8.3883 11.4428 8.48674 11.4764 8.58813 11.4767H10.7738L6.25948 16.6412C6.0914 16.8325 6.11025 17.1239 6.30156 17.292C6.38554 17.3657 6.4935 17.4065 6.60532 17.4067H12.8443V17.9554ZM15.1176 22.0686L13.7665 22.1055L13.7388 17.4021H15.1222L15.1176 22.0686ZM15.1453 16.4798H7.61978L12.1341 11.3153C12.3022 11.124 12.2834 10.8326 12.0921 10.6645C12.0081 10.5907 11.9001 10.55 11.7883 10.5498H9.52421L13.167 5.78185C13.3199 5.57815 13.2786 5.28908 13.0749 5.13628C12.9963 5.07737 12.901 5.04503 12.8028 5.04405H11.0367L14.4582 1.16143L17.8612 5.04405H16.0813C15.8267 5.04469 15.6207 5.25162 15.6213 5.50627C15.6215 5.60766 15.6552 5.70611 15.717 5.78646L19.3368 10.5498H17.0912C16.8365 10.5502 16.6303 10.7569 16.6306 11.0115C16.6307 11.1233 16.6716 11.2313 16.7453 11.3153L21.2597 16.4798H15.1453Z" fill="#2D383F"/>
</symbol>

<symbol id='mount' width="24" height="20" viewBox="0 0 24 20" fill="none" xmlns="http://www.w3.org/2000/svg">
<path d="M23.4153 19.1881L19.3747 9.79026L15.5583 0.907601C15.4551 0.6652 15.1749 0.552438 14.9325 0.655659C14.8192 0.703961 14.7289 0.794242 14.6806 0.907601L11.2744 8.8123L9.93871 11.9179L7.00963 5.15811C6.90634 4.91571 6.62614 4.80295 6.3838 4.90617C6.27044 4.95447 6.18016 5.04475 6.13186 5.15811L3.37928 11.5172L0.0399368 19.1834C-0.0654315 19.4248 0.0448861 19.706 0.286333 19.8114C0.347037 19.8379 0.412572 19.8515 0.478822 19.8512H22.9765C23.2399 19.851 23.4533 19.6373 23.4531 19.3738C23.4531 19.31 23.4402 19.2469 23.4153 19.1881ZM15.1147 2.29581L18.2107 9.49448H17.1231L15.1576 7.32391C14.9804 7.12892 14.6787 7.11455 14.4837 7.29177C14.4531 7.31956 14.4263 7.35122 14.4039 7.38593L13.6692 8.5213H12.4384L15.1147 2.29581ZM6.57074 6.53201L9.018 12.1898H7.68226C7.52007 12.1901 7.36914 12.2728 7.28154 12.4093L6.80449 13.1678L5.57371 11.4313C5.48474 11.303 5.33864 11.2264 5.18253 11.2262H4.54805L6.57074 6.53201ZM1.22779 18.8971L4.13302 12.1803H4.93446L6.42285 14.3031C6.51182 14.4314 6.65792 14.508 6.81403 14.5083C6.97283 14.5048 7.11947 14.4225 7.20522 14.2888L7.93987 13.1535H9.42826L11.9137 18.878L1.22779 18.8971ZM12.9584 18.8971L10.4587 13.1248L12.0282 9.4754H13.9364C14.0986 9.4751 14.2495 9.39246 14.3371 9.25596L14.8666 8.44021L16.5554 10.3055C16.6455 10.4054 16.7738 10.4626 16.9084 10.4629H18.6162L22.2466 18.9114L12.9584 18.8971Z" fill="#2D383F"/>
</symbol>

<symbol id='left' width="37" height="35" viewBox="0 0 37 35" fill="none" xmlns="http://www.w3.org/2000/svg">
<rect width="37" height="35" fill="#0266C1"/>
</symbol>

<symbol id='right' width="37" height="35" viewBox="0 0 37 35" fill="none" xmlns="http://www.w3.org/2000/svg">
<rect width="37" height="35" fill="#0266C1"/>
</symbol>

<symbol id='sun' width="21" height="22" viewBox="0 0 21 22" fill="none" xmlns="http://www.w3.org/2000/svg">
<path d="M15.655 7.10055C14.6779 6.11113 13.2984 5.47092 11.8039 5.47092C10.3095 5.47092 8.93 6.08203 7.95286 7.10055C6.97571 8.08996 6.34345 9.48679 6.34345 11C6.34345 12.5132 6.97571 13.9101 7.95286 14.8995C8.93 15.8889 10.3095 16.5291 11.8039 16.5291C13.2984 16.5291 14.6779 15.918 15.655 14.8995C16.6322 13.9101 17.2645 12.5132 17.2645 11C17.2645 9.48679 16.6609 8.08996 15.655 7.10055ZM14.6204 13.8519C13.9019 14.5794 12.896 15.0159 11.8039 15.0159C10.7118 15.0159 9.70597 14.5794 8.98748 13.8519C8.26899 13.1243 7.8379 12.1058 7.8379 11C7.8379 9.89419 8.26899 8.87568 8.98748 8.14817C9.70597 7.42065 10.7118 6.98415 11.8039 6.98415C12.896 6.98415 13.9019 7.42065 14.6204 8.14817C15.3389 8.87568 15.77 9.89419 15.77 11C15.77 12.1058 15.3389 13.1243 14.6204 13.8519Z" fill="white"/>
<path d="M21.9202 10.2434H19.7073C19.305 10.2434 18.9601 10.5926 18.9601 11C18.9601 11.4074 19.305 11.7566 19.7073 11.7566H21.9202C22.3226 11.7566 22.6675 11.4074 22.6675 11C22.6675 10.5926 22.3226 10.2434 21.9202 10.2434Z" fill="white"/>
<path d="M11.8039 18.246C11.4016 18.246 11.0567 18.5952 11.0567 19.0026V21.2434C11.0567 21.6508 11.4016 22 11.8039 22C12.2063 22 12.5512 21.6508 12.5512 21.2434V19.0026C12.5512 18.5952 12.2063 18.246 11.8039 18.246Z" fill="white"/>
<path d="M19.4774 17.7222L17.8967 16.1216C17.6381 15.8306 17.1495 15.8306 16.8621 16.1216C16.5747 16.4126 16.5747 16.8782 16.8621 17.1693L18.4428 18.7698C18.7302 19.0608 19.19 19.0608 19.4774 18.7698C19.7648 18.4788 19.7648 18.0132 19.4774 17.7222Z" fill="white"/>
<path d="M11.8039 0C11.4016 0 11.0567 0.349205 11.0567 0.756611V2.99735C11.0567 3.40475 11.4016 3.75396 11.8039 3.75396C12.2063 3.75396 12.5512 3.40475 12.5512 2.99735V0.756611C12.5512 0.349205 12.2063 0 11.8039 0Z" fill="white"/>
<path d="M19.5061 3.23018C19.2187 2.93918 18.7589 2.93918 18.4715 3.23018L16.8908 4.8307C16.6034 5.12171 16.6034 5.58732 16.8908 5.87832C17.1495 6.16932 17.6381 6.16932 17.9255 5.87832L19.5061 4.2778C19.7935 3.98679 19.7935 3.52118 19.5061 3.23018Z" fill="white"/>
<path d="M3.9006 10.2434H1.68766C1.2853 10.2434 0.94043 10.5926 0.94043 11C0.94043 11.4074 1.25656 11.7566 1.68766 11.7566H3.9006C4.30295 11.7566 4.64782 11.4074 4.64782 11C4.64782 10.5926 4.30295 10.2434 3.9006 10.2434Z" fill="white"/>
<path d="M6.71707 16.1216C6.45841 15.8306 5.96984 15.8306 5.68245 16.1216L4.10177 17.7222C3.81438 18.0132 3.81438 18.4788 4.10177 18.7698C4.38917 19.0608 4.849 19.0608 5.1364 18.7698L6.71707 17.1693C7.00446 16.8782 7.00446 16.4126 6.71707 16.1216Z" fill="white"/>
<path d="M6.71707 4.8307L5.1364 3.23018C4.849 2.93918 4.38917 2.93918 4.10177 3.23018C3.81438 3.52118 3.81438 3.98679 4.10177 4.2778L5.68245 5.87832C5.96984 6.16932 6.42967 6.16932 6.71707 5.87832C7.00446 5.58732 7.00446 5.12171 6.71707 4.8307Z" fill="white"/>
</symbol>

<symbol id='moon' width="20" height="19" viewBox="0 0 20 19" fill="none" xmlns="http://www.w3.org/2000/svg">
<path d="M19.5272 11.382C19.3228 11.3307 19.1183 11.382 18.9394 11.5103C18.2748 12.0745 17.5081 12.5362 16.6646 12.844C15.8723 13.1518 15.0033 13.3057 14.0831 13.3057C12.0128 13.3057 10.1215 12.4593 8.76681 11.0999C7.41217 9.74052 6.56872 7.84251 6.56872 5.76497C6.56872 4.89291 6.72207 4.0465 6.97767 3.27704C7.25882 2.45628 7.66777 1.71247 8.20451 1.07125C8.43454 0.789119 8.38343 0.378739 8.10227 0.147901C7.92336 0.0196574 7.71888 -0.0316401 7.51441 0.0196573C5.34188 0.609578 3.4505 1.91766 2.09586 3.66177C0.792336 5.38024 0 7.50908 0 9.84311C0 12.6388 1.12461 15.178 2.96487 17.0247C4.80513 18.8715 7.3355 20 10.1215 20C12.4729 20 14.6454 19.1792 16.3835 17.8199C18.147 16.4348 19.425 14.4599 19.9618 12.2028C20.0895 11.8181 19.8851 11.459 19.5272 11.382ZM15.6167 16.7426C14.1342 17.9225 12.2429 18.6406 10.1726 18.6406C7.74444 18.6406 5.54635 17.6403 3.96168 16.0501C2.37701 14.4599 1.3802 12.2541 1.3802 9.81746C1.3802 7.79122 2.04474 5.94451 3.1949 4.45688C3.98724 3.43094 4.98405 2.58453 6.13421 1.99461C6.00642 2.27674 5.87862 2.55888 5.77638 2.86666C5.44411 3.79002 5.29076 4.76467 5.29076 5.79062C5.29076 8.22724 6.28757 10.4587 7.87224 12.0489C9.45691 13.6391 11.6806 14.6394 14.1087 14.6394C15.1822 14.6394 16.2045 14.4599 17.1502 14.1008C17.4825 13.9726 17.8148 13.8443 18.1215 13.6904C17.5081 14.8703 16.6646 15.9219 15.6167 16.7426Z" fill="white"/>
</symbol>

<symbol id='location' width="9" height="12" viewBox="0 0 9 12" fill="none" xmlns="http://www.w3.org/2000/svg">
<path d="M4.49981 0.188232C2.01874 0.188232 0 2.02964 0 4.293C0 4.88337 0.132472 5.44704 0.39354 5.96849C1.51862 8.21417 3.67571 10.5851 4.31017 11.2582C4.35771 11.3085 4.42701 11.3375 4.49994 11.3375C4.57287 11.3375 4.64217 11.3085 4.6897 11.2582C5.32392 10.5852 7.48101 8.21439 8.60646 5.96849C8.86765 5.44704 9 4.88337 9 4.293C8.99975 2.02964 6.98101 0.188232 4.49981 0.188232ZM4.49981 6.42502C3.21099 6.42502 2.16234 5.46849 2.16234 4.29288C2.16234 3.11716 3.21099 2.16063 4.49981 2.16063C5.78864 2.16063 6.83728 3.11716 6.83728 4.29288C6.83741 5.46849 5.78876 6.42502 4.49981 6.42502Z" fill="white"/>
</symbol>

<symbol id='line' width="80" height="1" viewBox="0 0 80 1" fill="none" xmlns="http://www.w3.org/2000/svg">
<rect opacity="0.284" x="0.739502" width="79.0074" height="1" fill="white"/>
</symbol>

<symbol id='elbrus-stars' width="79" height="14" viewBox="0 0 79 14" fill="none" xmlns="http://www.w3.org/2000/svg">
<path d="M7.5 11.0412L12.135 13.65L10.9087 8.72975L15 5.42084L9.60676 4.98892L7.5 0.350037L5.39326 4.98892L0 5.42084L4.09126 8.72975L2.865 13.65L7.5 11.0412Z" fill="white"/>
<path d="M23.5 11.0412L28.135 13.65L26.9087 8.72975L31 5.42084L25.6068 4.98892L23.5 0.350037L21.3933 4.98892L16 5.42084L20.0913 8.72975L18.865 13.65L23.5 11.0412Z" fill="white"/>
<path d="M39.5 11.0412L44.135 13.65L42.9087 8.72975L47 5.42084L41.6068 4.98892L39.5 0.350037L37.3933 4.98892L32 5.42084L36.0913 8.72975L34.865 13.65L39.5 11.0412Z" fill="white"/>
<path d="M55.7453 10.6054L55.5 10.4674L55.2547 10.6054L51.6307 12.6453L52.5764 8.85066L52.6535 8.54141L52.4057 8.34098L49.2878 5.81931L53.4332 5.48733L53.7267 5.46382L53.8485 5.19567L55.5 1.55921L57.1515 5.19568L57.2733 5.46382L57.5669 5.48733L61.7122 5.81931L58.5943 8.34098L58.3465 8.54141L58.4236 8.85066L59.3693 12.6453L55.7453 10.6054Z" stroke="#F3F3F3"/>
<path d="M71.7453 10.6054L71.5 10.4674L71.2547 10.6054L67.6307 12.6453L68.5764 8.85066L68.6535 8.54141L68.4057 8.34098L65.2878 5.81931L69.4332 5.48733L69.7267 5.46382L69.8485 5.19567L71.5 1.55921L73.1515 5.19568L73.2733 5.46382L73.5669 5.48733L77.7122 5.81931L74.5943 8.34098L74.3465 8.54141L74.4236 8.85066L75.3693 12.6453L71.7453 10.6054Z" stroke="white"/>
</symbol>

<symbol id='table-stars' width="79" height="14" viewBox="0 0 79 14" fill="none" xmlns="http://www.w3.org/2000/svg">
<path d="M7.5 11.0412L12.135 13.65L10.9087 8.72975L15 5.42084L9.60676 4.98892L7.5 0.350037L5.39326 4.98892L0 5.42084L4.09126 8.72975L2.865 13.65L7.5 11.0412Z" fill="white"/>
<path d="M23.5 11.0412L28.135 13.65L26.9087 8.72975L31 5.42084L25.6068 4.98892L23.5 0.350037L21.3933 4.98892L16 5.42084L20.0913 8.72975L18.865 13.65L23.5 11.0412Z" fill="white"/>
<path d="M55.7453 10.6054L55.5 10.4674L55.2547 10.6054L51.6307 12.6453L52.5764 8.85066L52.6535 8.54141L52.4057 8.34098L49.2878 5.81931L53.4332 5.48733L53.7267 5.46382L53.8485 5.19567L55.5 1.55921L57.1515 5.19568L57.2733 5.46382L57.5669 5.48733L61.7122 5.81931L58.5943 8.34098L58.3465 8.54141L58.4236 8.85066L59.3693 12.6453L55.7453 10.6054Z" stroke="#F3F3F3"/>
<path d="M39.7453 10.6054L39.5 10.4674L39.2547 10.6054L35.6307 12.6453L36.5764 8.85066L36.6535 8.54141L36.4057 8.34098L33.2878 5.81931L37.4332 5.48733L37.7267 5.46382L37.8485 5.19567L39.5 1.55921L41.1515 5.19568L41.2733 5.46382L41.5669 5.48733L45.7122 5.81931L42.5943 8.34098L42.3465 8.54141L42.4236 8.85066L43.3693 12.6453L39.7453 10.6054Z" stroke="#F3F3F3"/>
<path d="M71.7453 10.6054L71.5 10.4674L71.2547 10.6054L67.6307 12.6453L68.5764 8.85066L68.6535 8.54141L68.4057 8.34098L65.2878 5.81931L69.4332 5.48733L69.7267 5.46382L69.8485 5.19567L71.5 1.55921L73.1515 5.19568L73.2733 5.46382L73.5669 5.48733L77.7122 5.81931L74.5943 8.34098L74.3465 8.54141L74.4236 8.85066L75.3693 12.6453L71.7453 10.6054Z" stroke="white"/>
</symbol>


<symbol id='points' width="14" height="14" viewBox="0 0 14 14" fill="none" xmlns="http://www.w3.org/2000/svg">
<circle cx="7" cy="7" r="7" fill="#0266C1"/>
</symbol>

<symbol id='lines' width="308" height="1" viewBox="0 0 308 1" fill="none" xmlns="http://www.w3.org/2000/svg">
<line x1="-4.37114e-08" y1="0.5" x2="308" y2="0.499973" stroke="#D9E7EA"/>
</symbol>

<symbol id='arrow' width="9" height="14" viewBox="0 0 9 14" fill="none" xmlns="http://www.w3.org/2000/svg">
<path d="M1 13L7 7L0.999999 1" stroke="#2D383F" stroke-width="2"/>
</symbol>

<symbol id='vk' width="26" height="25" viewBox="0 0 26 25" fill="none" xmlns="http://www.w3.org/2000/svg">
<rect x="0.987305" y="0.5" width="23.6627" height="23.0488" stroke="#9AC2E6"/>
<path d="M19.1294 14.8853C19.1139 14.8529 19.0995 14.826 19.0861 14.8044C18.8648 14.4157 18.4419 13.9386 17.8175 13.373L17.8044 13.36L17.7978 13.3537L17.7911 13.3472H17.7844C17.501 13.0838 17.3216 12.9067 17.2465 12.816C17.109 12.6433 17.0782 12.4685 17.1533 12.2913C17.2064 12.1575 17.4058 11.8748 17.7511 11.443C17.9327 11.2141 18.0765 11.0307 18.1828 10.8925C18.9488 9.89942 19.281 9.26481 19.1791 8.98845L19.1395 8.92386C19.1129 8.88498 19.0443 8.84942 18.9337 8.81698C18.8229 8.78461 18.6812 8.77925 18.5085 8.80083L16.5957 8.81371C16.5647 8.803 16.5205 8.804 16.4628 8.81698C16.4053 8.82995 16.3765 8.83646 16.3765 8.83646L16.3432 8.85268L16.3167 8.87217C16.2946 8.88505 16.2702 8.90771 16.2437 8.94011C16.2172 8.97239 16.1951 9.01027 16.1774 9.05344C15.9691 9.57587 15.7324 10.0616 15.4666 10.5106C15.3028 10.7784 15.1523 11.0104 15.0149 11.2069C14.8777 11.4033 14.7626 11.548 14.6696 11.6407C14.5766 11.7336 14.4926 11.8079 14.4172 11.8641C14.3419 11.9203 14.2844 11.9441 14.2446 11.9354C14.2047 11.9267 14.1671 11.9181 14.1316 11.9095C14.0696 11.8706 14.0198 11.8177 13.9822 11.7508C13.9445 11.6839 13.9191 11.5997 13.9058 11.4982C13.8926 11.3967 13.8848 11.3093 13.8825 11.2359C13.8805 11.1626 13.8814 11.0588 13.8859 10.925C13.8905 10.7911 13.8926 10.7005 13.8926 10.653C13.8926 10.4889 13.8959 10.3108 13.9024 10.1187C13.9091 9.92653 13.9146 9.77429 13.9191 9.66214C13.9236 9.54988 13.9257 9.4311 13.9257 9.30589C13.9257 9.18067 13.9179 9.08247 13.9024 9.0112C13.8872 8.94002 13.8638 8.87092 13.8329 8.80393C13.8018 8.73702 13.7564 8.68525 13.6967 8.6485C13.637 8.6118 13.5627 8.58267 13.4742 8.56103C13.2395 8.50924 12.9407 8.48123 12.5775 8.47687C11.754 8.46825 11.2248 8.52011 10.9901 8.63237C10.8971 8.67981 10.813 8.74461 10.7378 8.82659C10.658 8.92162 10.6469 8.97347 10.7045 8.982C10.9702 9.02082 11.1583 9.11366 11.269 9.26045L11.3089 9.33824C11.3399 9.39436 11.3709 9.49371 11.4019 9.63617C11.4329 9.77863 11.4529 9.93621 11.4617 10.1088C11.4838 10.4241 11.4838 10.6939 11.4617 10.9184C11.4395 11.143 11.4186 11.3178 11.3986 11.443C11.3786 11.5682 11.3487 11.6697 11.3089 11.7474C11.269 11.8251 11.2425 11.8726 11.2292 11.8899C11.2159 11.9071 11.2048 11.918 11.196 11.9222C11.1385 11.9437 11.0786 11.9547 11.0166 11.9547C10.9546 11.9547 10.8794 11.9244 10.7908 11.864C10.7023 11.8035 10.6104 11.7204 10.5152 11.6146C10.42 11.5088 10.3126 11.3609 10.193 11.171C10.0735 10.981 9.94954 10.7565 9.82113 10.4974L9.71489 10.3096C9.64847 10.1887 9.55774 10.0127 9.44261 9.78178C9.32741 9.55074 9.22559 9.32726 9.13708 9.11137C9.10169 9.0207 9.04854 8.95168 8.9777 8.90417L8.94446 8.88469C8.92236 8.86745 8.88688 8.84914 8.83821 8.82963C8.78948 8.81015 8.73862 8.79618 8.68544 8.78758L6.86559 8.80046C6.67962 8.80046 6.55344 8.84154 6.487 8.92359L6.46041 8.9624C6.44713 8.98402 6.44043 9.01855 6.44043 9.06607C6.44043 9.11357 6.45371 9.17187 6.4803 9.2409C6.74597 9.84974 7.03487 10.4369 7.34702 11.0025C7.65917 11.5681 7.93041 12.0237 8.1606 12.3689C8.39084 12.7144 8.62552 13.0404 8.86464 13.3469C9.10376 13.6535 9.26205 13.85 9.33949 13.9363C9.41702 14.0227 9.47793 14.0874 9.5222 14.1306L9.68827 14.286C9.79454 14.3896 9.95059 14.5137 10.1565 14.6583C10.3624 14.803 10.5904 14.9455 10.8406 15.0859C11.0908 15.2262 11.3819 15.3406 11.7141 15.4291C12.0461 15.5176 12.3694 15.5532 12.6838 15.536H13.4476C13.6025 15.523 13.7199 15.4755 13.7996 15.3935L13.826 15.3611C13.8438 15.3353 13.8605 15.2952 13.8758 15.2414C13.8914 15.1874 13.8991 15.128 13.8991 15.0633C13.8945 14.8777 13.909 14.7104 13.9422 14.5614C13.9753 14.4125 14.013 14.3003 14.0552 14.2246C14.0974 14.1491 14.145 14.0854 14.1979 14.0337C14.251 13.9819 14.2888 13.9505 14.311 13.9397C14.3331 13.9289 14.3507 13.9215 14.364 13.9171C14.4703 13.8825 14.5953 13.916 14.7394 14.0175C14.8833 14.119 15.0183 14.2443 15.1446 14.3932C15.2708 14.5422 15.4224 14.7094 15.5995 14.8951C15.7767 15.0807 15.9316 15.2188 16.0644 15.3096L16.1972 15.3873C16.2859 15.4392 16.401 15.4867 16.5427 15.5298C16.6842 15.573 16.8081 15.5838 16.9145 15.5622L18.6148 15.5363C18.7829 15.5363 18.9138 15.5092 19.0066 15.4553C19.0996 15.4013 19.1549 15.3419 19.1727 15.2772C19.1905 15.2125 19.1914 15.139 19.1761 15.0569C19.1603 14.975 19.1448 14.9177 19.1294 14.8853Z" fill="#494949"/>
</symbol>

<symbol id='vk-bottom' width="29" height="29" viewBox="0 0 29 29" fill="none" xmlns="http://www.w3.org/2000/svg">
<rect opacity="0.432" x="0.5" y="0.5" width="27.3043" height="27.3043" stroke="#2D383F"/>
<path d="M22.4438 18.1795C22.401 18.1078 22.1359 17.5318 20.8604 16.348C19.5251 15.1083 19.7044 15.3096 21.3128 13.1661C22.2924 11.8607 22.684 11.0635 22.5614 10.7227C22.4448 10.3978 21.7244 10.4835 21.7244 10.4835L19.3288 10.4975C19.3288 10.4975 19.1514 10.4736 19.0189 10.5523C18.8903 10.63 18.8076 10.8094 18.8076 10.8094C18.8076 10.8094 18.4279 11.8198 17.9217 12.6788C16.8545 14.4915 16.427 14.5871 16.2526 14.4745C15.847 14.2124 15.9486 13.4202 15.9486 12.8582C15.9486 11.1014 16.2147 10.3689 15.4295 10.1796C15.1684 10.1168 14.977 10.075 14.3104 10.068C13.4554 10.059 12.7309 10.071 12.3214 10.2713C12.0483 10.4048 11.8381 10.7028 11.9666 10.7197C12.125 10.7406 12.4838 10.8164 12.6741 11.0755C12.9203 11.4093 12.9113 12.1607 12.9113 12.1607C12.9113 12.1607 13.0528 14.2284 12.5814 14.4855C12.2576 14.6619 11.8141 14.3021 10.8625 12.6569C10.3752 11.8149 10.0065 10.8831 10.0065 10.8831C10.0065 10.8831 9.93573 10.7097 9.80918 10.6171C9.65572 10.5045 9.44047 10.4686 9.44047 10.4686L7.16247 10.4825C7.16247 10.4825 6.82067 10.4925 6.69511 10.641C6.5835 10.7735 6.68614 11.0466 6.68614 11.0466C6.68614 11.0466 8.46988 15.2189 10.4888 17.3225C12.3413 19.2508 14.4439 19.1242 14.4439 19.1242H15.3966C15.3966 19.1242 15.6846 19.0923 15.831 18.9339C15.9666 18.7884 15.9616 18.5153 15.9616 18.5153C15.9616 18.5153 15.9426 17.2368 16.5366 17.0485C17.1215 16.8631 17.8729 18.2842 18.6691 18.8312C19.271 19.2448 19.7284 19.1541 19.7284 19.1541L21.8579 19.1242C21.8579 19.1242 22.972 19.0555 22.4438 18.1795Z" fill="#2D383F"/>
</symbol>

<symbol id='fb' width="30" height="29" viewBox="0 0 30 29" fill="none" xmlns="http://www.w3.org/2000/svg">
<rect opacity="0.432" x="1.44775" y="0.5" width="27.3043" height="27.3043" stroke="#2D383F"/>
<path d="M15.9846 11.941V10.172C15.9846 9.68371 16.3808 9.28745 16.8691 9.28745H17.7536V7.07617H15.9846C14.5189 7.07617 13.331 8.26407 13.331 9.7297V11.941H11.562V14.1523H13.331V21.2283H15.9846V14.1523H17.7536L18.6381 11.941H15.9846Z" fill="#2D383F"/>
</symbol>

<symbol id='insta' width="30" height="29" viewBox="0 0 30 29" fill="none" xmlns="http://www.w3.org/2000/svg">
<rect opacity="0.432" x="1.396" y="0.5" width="27.3043" height="27.3043" stroke="#2D383F"/>
<path d="M19.1192 5.31421H11.3804C8.75235 5.31421 6.61426 7.45242 6.61426 10.0805V17.8193C6.61426 20.4475 8.75235 22.5856 11.3804 22.5856H19.1192C21.7474 22.5856 23.8855 20.4474 23.8855 17.8193V10.0805C23.8856 7.45242 21.7474 5.31421 19.1192 5.31421ZM22.3532 17.8193C22.3532 19.6026 20.9025 21.0532 19.1193 21.0532H11.3804C9.59731 21.0533 8.14665 19.6026 8.14665 17.8193V10.0805C8.14665 8.29739 9.59731 6.84661 11.3804 6.84661H19.1192C20.9024 6.84661 22.3531 8.29739 22.3531 10.0805L22.3532 17.8193Z" fill="#2D383F"/>
<path d="M15.25 9.49964C12.796 9.49964 10.7996 11.4961 10.7996 13.9501C10.7996 16.404 12.796 18.4003 15.25 18.4003C17.7039 18.4003 19.7003 16.404 19.7003 13.9501C19.7003 11.4961 17.7039 9.49964 15.25 9.49964ZM15.25 16.8678C13.6411 16.8678 12.332 15.5589 12.332 13.95C12.332 12.3409 13.641 11.0319 15.25 11.0319C16.859 11.0319 18.1679 12.3409 18.1679 13.95C18.1679 15.5589 16.8589 16.8678 15.25 16.8678Z" fill="#2D383F"/>
<path d="M19.8869 8.20039C19.5917 8.20039 19.3016 8.31992 19.0931 8.52935C18.8836 8.73775 18.7631 9.02788 18.7631 9.32414C18.7631 9.61948 18.8837 9.90951 19.0931 10.1189C19.3015 10.3273 19.5917 10.4479 19.8869 10.4479C20.1832 10.4479 20.4723 10.3273 20.6818 10.1189C20.8912 9.90951 21.0107 9.61938 21.0107 9.32414C21.0107 9.02788 20.8912 8.73775 20.6818 8.52935C20.4733 8.31992 20.1832 8.20039 19.8869 8.20039Z" fill="#2D383F"/>
</symbol>

<symbol id='logo-2' width="62" height="62" viewBox="0 0 62 62" fill="none" xmlns="http://www.w3.org/2000/svg">
<path d="M22.7825 40.1768L28.2395 34.447L34.4468 40.1768H45.0878L28.1713 23.6013L11.3911 40.1768H22.7825Z" fill="#2D383F"/>
<path d="M38.4033 13.5742L30.3543 21.7596L35.6749 27.2166L38.4033 24.4881L53.3418 39.3583C49.9312 48.4305 41.2 54.9106 30.9 54.9106C17.6669 54.9106 6.95762 44.2014 6.95762 30.9682C7.02583 17.7351 17.7351 7.02583 30.9682 7.02583C42.7007 7.02583 52.5232 15.5523 54.5014 26.6709L61.7318 34.3106C61.8683 33.2192 61.9365 32.0596 61.9365 30.9682C61.9365 22.7146 58.7305 14.9384 52.8643 9.07219C46.998 3.20596 39.2219 0 30.9682 0C22.6464 0 14.9384 3.20596 9.07219 9.07219C3.20596 14.9384 0 22.6464 0 30.9682C0 39.2901 3.20596 46.998 9.07219 52.8643C14.9384 58.7305 22.7146 61.9365 30.9682 61.9365C39.2219 61.9365 46.998 58.7305 52.8643 52.8643C56.4795 49.249 59.0716 44.9517 60.504 40.2451C60.7769 39.4265 60.9815 38.5398 61.1861 37.7212L54.9106 31.1047L38.4033 13.5742Z" fill="#2D383F"/>
</symbol>


</svg>
