<svg width="226" height="71" viewBox="0 0 226 71" fill="none" xmlns="http://www.w3.org/2000/svg">
<g clip-path="url(#clip0_2_1014)">
<path d="M22.7825 40.1768L28.2395 34.447L34.4468 40.1768H45.0878L28.1713 23.6013L11.3911 40.1768H22.7825Z" fill="#2D383F"/>
<path d="M38.4033 13.5742L30.3543 21.7596L35.6749 27.2166L38.4033 24.4881L53.3418 39.3583C49.9312 48.4305 41.2 54.9106 30.9 54.9106C17.6669 54.9106 6.95762 44.2014 6.95762 30.9682C7.02583 17.7351 17.7351 7.02583 30.9682 7.02583C42.7007 7.02583 52.5232 15.5523 54.5014 26.6709L61.7318 34.3106C61.8683 33.2192 61.9365 32.0596 61.9365 30.9682C61.9365 22.7146 58.7305 14.9384 52.8643 9.07219C46.998 3.20596 39.2219 0 30.9682 0C22.6464 0 14.9384 3.20596 9.07219 9.07219C3.20596 14.9384 0 22.6464 0 30.9682C0 39.2901 3.20596 46.998 9.07219 52.8643C14.9384 58.7305 22.7146 61.9365 30.9682 61.9365C39.2219 61.9365 46.998 58.7305 52.8643 52.8643C56.4795 49.249 59.0716 44.9517 60.504 40.2451C60.7769 39.4265 60.9815 38.5398 61.1861 37.7212L54.9106 31.1047L38.4033 13.5742Z" fill="#2D383F"/>
</g>
<path d="M93.4526 32.2034C91.7566 32.2034 90.2686 31.8994 88.9886 31.2914C87.7086 30.6674 86.7246 29.7954 86.0366 28.6754C85.3486 27.5554 85.0046 26.2674 85.0046 24.8114C85.0046 22.8914 85.4446 21.1634 86.3246 19.6274C87.2206 18.0914 88.4686 16.8914 90.0686 16.0274C91.6686 15.1634 93.4926 14.7314 95.5406 14.7314C97.0926 14.7314 98.4686 15.0114 99.6686 15.5714C100.869 16.1154 101.765 16.8914 102.357 17.8994L98.9246 20.6354C98.1086 19.3234 96.8766 18.6674 95.2286 18.6674C94.1566 18.6674 93.2126 18.9234 92.3966 19.4354C91.5806 19.9314 90.9406 20.6274 90.4766 21.5234C90.0286 22.4034 89.8046 23.3954 89.8046 24.4994C89.8046 25.6354 90.1726 26.5474 90.9086 27.2354C91.6446 27.9234 92.6446 28.2674 93.9086 28.2674C95.5086 28.2674 96.8766 27.6194 98.0126 26.3234L100.821 29.0834C99.9086 30.1874 98.8446 30.9874 97.6286 31.4834C96.4126 31.9634 95.0206 32.2034 93.4526 32.2034ZM113.818 28.6034H106.666L104.722 31.8674H99.7061L110.482 15.0674H115.162L119.218 31.8674H114.49L113.818 28.6034ZM113.098 25.0994L111.97 19.6514L108.754 25.0994H113.098ZM128.422 32.2034C126.966 32.2034 125.71 31.9634 124.654 31.4834C123.598 30.9874 122.79 30.2834 122.23 29.3714C121.67 28.4594 121.39 27.3874 121.39 26.1554C121.39 25.6434 121.454 25.0514 121.582 24.3794L123.454 15.0674H128.206L126.358 24.3074C126.262 24.7874 126.214 25.2274 126.214 25.6274C126.214 27.3874 127.142 28.2674 128.998 28.2674C130.006 28.2674 130.798 27.9634 131.374 27.3554C131.966 26.7314 132.406 25.7154 132.694 24.3074L134.542 15.0674H139.222L137.326 24.5954C136.302 29.6674 133.334 32.2034 128.422 32.2034ZM148.273 32.2034C146.577 32.2034 145.089 31.8994 143.809 31.2914C142.529 30.6674 141.545 29.7954 140.857 28.6754C140.169 27.5554 139.825 26.2674 139.825 24.8114C139.825 22.8914 140.265 21.1634 141.145 19.6274C142.041 18.0914 143.289 16.8914 144.889 16.0274C146.489 15.1634 148.313 14.7314 150.361 14.7314C151.913 14.7314 153.289 15.0114 154.489 15.5714C155.689 16.1154 156.585 16.8914 157.177 17.8994L153.745 20.6354C152.929 19.3234 151.697 18.6674 150.049 18.6674C148.977 18.6674 148.033 18.9234 147.217 19.4354C146.401 19.9314 145.761 20.6274 145.297 21.5234C144.849 22.4034 144.625 23.3954 144.625 24.4994C144.625 25.6354 144.993 26.5474 145.729 27.2354C146.465 27.9234 147.465 28.2674 148.729 28.2674C150.329 28.2674 151.697 27.6194 152.833 26.3234L155.641 29.0834C154.729 30.1874 153.665 30.9874 152.449 31.4834C151.233 31.9634 149.841 32.2034 148.273 32.2034ZM168.638 28.6034H161.486L159.542 31.8674H154.526L165.302 15.0674H169.982L174.038 31.8674H169.31L168.638 28.6034ZM167.918 25.0994L166.79 19.6514L163.574 25.0994H167.918ZM181.674 32.2034C180.282 32.2034 178.962 32.0354 177.714 31.6994C176.466 31.3634 175.45 30.9314 174.666 30.4034L176.538 26.8514C177.386 27.3954 178.29 27.8114 179.25 28.0994C180.21 28.3714 181.17 28.5074 182.13 28.5074C183.042 28.5074 183.746 28.3794 184.242 28.1234C184.754 27.8514 185.01 27.4834 185.01 27.0194C185.01 26.6194 184.778 26.3074 184.314 26.0834C183.866 25.8594 183.162 25.6194 182.202 25.3634C181.114 25.0754 180.21 24.7874 179.49 24.4994C178.77 24.1954 178.146 23.7394 177.618 23.1314C177.106 22.5234 176.85 21.7234 176.85 20.7314C176.85 19.5314 177.178 18.4834 177.834 17.5874C178.49 16.6754 179.426 15.9714 180.642 15.4754C181.858 14.9794 183.282 14.7314 184.914 14.7314C186.114 14.7314 187.234 14.8594 188.274 15.1154C189.314 15.3554 190.21 15.7074 190.962 16.1714L189.234 19.6994C188.578 19.2834 187.85 18.9714 187.05 18.7634C186.266 18.5394 185.458 18.4274 184.626 18.4274C183.682 18.4274 182.938 18.5794 182.394 18.8834C181.866 19.1874 181.602 19.5794 181.602 20.0594C181.602 20.4754 181.834 20.7954 182.298 21.0194C182.762 21.2434 183.482 21.4834 184.458 21.7394C185.546 22.0114 186.442 22.2914 187.146 22.5794C187.866 22.8674 188.482 23.3074 188.994 23.8994C189.506 24.4914 189.762 25.2674 189.762 26.2274C189.762 27.4114 189.426 28.4594 188.754 29.3714C188.098 30.2674 187.154 30.9634 185.922 31.4594C184.706 31.9554 183.29 32.2034 181.674 32.2034ZM199.133 32.2034C197.677 32.2034 196.421 31.9634 195.365 31.4834C194.309 30.9874 193.501 30.2834 192.941 29.3714C192.381 28.4594 192.101 27.3874 192.101 26.1554C192.101 25.6434 192.165 25.0514 192.293 24.3794L194.165 15.0674H198.917L197.069 24.3074C196.973 24.7874 196.925 25.2274 196.925 25.6274C196.925 27.3874 197.853 28.2674 199.709 28.2674C200.717 28.2674 201.509 27.9634 202.085 27.3554C202.677 26.7314 203.117 25.7154 203.405 24.3074L205.253 15.0674H209.933L208.037 24.5954C207.013 29.6674 204.045 32.2034 199.133 32.2034ZM216.08 32.2034C214.688 32.2034 213.368 32.0354 212.12 31.6994C210.872 31.3634 209.856 30.9314 209.072 30.4034L210.944 26.8514C211.792 27.3954 212.696 27.8114 213.656 28.0994C214.616 28.3714 215.576 28.5074 216.536 28.5074C217.448 28.5074 218.152 28.3794 218.648 28.1234C219.16 27.8514 219.416 27.4834 219.416 27.0194C219.416 26.6194 219.184 26.3074 218.72 26.0834C218.272 25.8594 217.568 25.6194 216.608 25.3634C215.52 25.0754 214.616 24.7874 213.896 24.4994C213.176 24.1954 212.552 23.7394 212.024 23.1314C211.512 22.5234 211.256 21.7234 211.256 20.7314C211.256 19.5314 211.584 18.4834 212.24 17.5874C212.896 16.6754 213.832 15.9714 215.048 15.4754C216.264 14.9794 217.688 14.7314 219.32 14.7314C220.52 14.7314 221.64 14.8594 222.68 15.1154C223.72 15.3554 224.616 15.7074 225.368 16.1714L223.64 19.6994C222.984 19.2834 222.256 18.9714 221.456 18.7634C220.672 18.5394 219.864 18.4274 219.032 18.4274C218.088 18.4274 217.344 18.5794 216.8 18.8834C216.272 19.1874 216.008 19.5794 216.008 20.0594C216.008 20.4754 216.24 20.7954 216.704 21.0194C217.168 21.2434 217.888 21.4834 218.864 21.7394C219.952 22.0114 220.848 22.2914 221.552 22.5794C222.272 22.8674 222.888 23.3074 223.4 23.8994C223.912 24.4914 224.168 25.2674 224.168 26.2274C224.168 27.4114 223.832 28.4594 223.16 29.3714C222.504 30.2674 221.56 30.9634 220.328 31.4594C219.112 31.9554 217.696 32.2034 216.08 32.2034Z" fill="#2D383F"/>
<path d="M87.3006 51.0216C86.746 51.0216 86.242 50.899 85.7886 50.6536C85.3406 50.403 84.9886 50.0616 84.7326 49.6296C84.482 49.1976 84.3566 48.7123 84.3566 48.1736C84.3566 47.635 84.482 47.1496 84.7326 46.7176C84.9886 46.2856 85.3406 45.947 85.7886 45.7016C86.242 45.451 86.746 45.3256 87.3006 45.3256C87.8553 45.3256 88.354 45.4483 88.7966 45.6936C89.2446 45.939 89.5966 46.2803 89.8526 46.7176C90.1086 47.1496 90.2366 47.635 90.2366 48.1736C90.2366 48.7123 90.1086 49.2003 89.8526 49.6376C89.5966 50.0696 89.2446 50.4083 88.7966 50.6536C88.354 50.899 87.8553 51.0216 87.3006 51.0216ZM87.3006 50.4936C87.7433 50.4936 88.1433 50.395 88.5006 50.1976C88.858 49.995 89.138 49.7176 89.3406 49.3656C89.5433 49.0083 89.6446 48.611 89.6446 48.1736C89.6446 47.7363 89.5433 47.3416 89.3406 46.9896C89.138 46.6323 88.858 46.355 88.5006 46.1576C88.1433 45.955 87.7433 45.8536 87.3006 45.8536C86.858 45.8536 86.4553 45.955 86.0926 46.1576C85.7353 46.355 85.4526 46.6323 85.2446 46.9896C85.042 47.3416 84.9406 47.7363 84.9406 48.1736C84.9406 48.611 85.042 49.0083 85.2446 49.3656C85.4526 49.7176 85.7353 49.995 86.0926 50.1976C86.4553 50.395 86.858 50.4936 87.3006 50.4936ZM93.6813 46.7336C94.076 46.7336 94.4333 46.8243 94.7533 47.0056C95.0733 47.1816 95.324 47.4323 95.5053 47.7576C95.6867 48.083 95.7773 48.4536 95.7773 48.8696C95.7773 49.291 95.6867 49.6643 95.5053 49.9896C95.324 50.315 95.0733 50.5683 94.7533 50.7496C94.4387 50.9256 94.0813 51.0136 93.6813 51.0136C93.34 51.0136 93.0307 50.9443 92.7533 50.8056C92.4813 50.6616 92.2573 50.4536 92.0813 50.1816V52.5256H91.5133V46.7656H92.0573V47.5976C92.228 47.3203 92.452 47.107 92.7293 46.9576C93.012 46.8083 93.3293 46.7336 93.6813 46.7336ZM93.6413 50.5096C93.9347 50.5096 94.2013 50.443 94.4413 50.3096C94.6813 50.171 94.868 49.9763 95.0013 49.7256C95.14 49.475 95.2093 49.1896 95.2093 48.8696C95.2093 48.5496 95.14 48.267 95.0013 48.0216C94.868 47.771 94.6813 47.5763 94.4413 47.4376C94.2013 47.299 93.9347 47.2296 93.6413 47.2296C93.3427 47.2296 93.0733 47.299 92.8333 47.4376C92.5987 47.5763 92.412 47.771 92.2733 48.0216C92.14 48.267 92.0733 48.5496 92.0733 48.8696C92.0733 49.1896 92.14 49.475 92.2733 49.7256C92.412 49.9763 92.5987 50.171 92.8333 50.3096C93.0733 50.443 93.3427 50.5096 93.6413 50.5096ZM99.9737 47.2696H97.5657V50.9736H96.9977V46.7656H99.9737V47.2696ZM102.243 46.7336C102.792 46.7336 103.213 46.8723 103.507 47.1496C103.8 47.4216 103.947 47.827 103.947 48.3656V50.9736H103.403V50.3176C103.275 50.5363 103.085 50.707 102.835 50.8296C102.589 50.9523 102.296 51.0136 101.955 51.0136C101.485 51.0136 101.112 50.9016 100.835 50.6776C100.557 50.4536 100.419 50.1576 100.419 49.7896C100.419 49.4323 100.547 49.1443 100.803 48.9256C101.064 48.707 101.477 48.5976 102.043 48.5976H103.379V48.3416C103.379 47.979 103.277 47.7043 103.075 47.5176C102.872 47.3256 102.576 47.2296 102.187 47.2296C101.92 47.2296 101.664 47.275 101.419 47.3656C101.173 47.451 100.963 47.571 100.787 47.7256L100.531 47.3016C100.744 47.1203 101 46.9816 101.299 46.8856C101.597 46.7843 101.912 46.7336 102.243 46.7336ZM102.043 50.5656C102.363 50.5656 102.637 50.4936 102.867 50.3496C103.096 50.2003 103.267 49.987 103.379 49.7096V49.0216H102.059C101.339 49.0216 100.979 49.2723 100.979 49.7736C100.979 50.019 101.072 50.2136 101.259 50.3576C101.445 50.4963 101.707 50.5656 102.043 50.5656ZM105.459 46.7656H106.027V48.6296H108.675V46.7656H109.243V50.9736H108.675V49.1176H106.027V50.9736H105.459V46.7656ZM110.857 46.7656H111.425V50.1096L114.233 46.7656H114.737V50.9736H114.169V47.6296L111.369 50.9736H110.857V46.7656ZM118.327 48.7816C118.626 48.851 118.855 48.971 119.015 49.1416C119.18 49.3123 119.263 49.5203 119.263 49.7656C119.263 50.011 119.178 50.2296 119.007 50.4216C118.842 50.6136 118.615 50.763 118.327 50.8696C118.039 50.971 117.722 51.0216 117.375 51.0216C117.071 51.0216 116.772 50.979 116.479 50.8936C116.186 50.803 115.93 50.6723 115.711 50.5016L115.903 50.0776C116.095 50.2216 116.319 50.3336 116.575 50.4136C116.831 50.4936 117.09 50.5336 117.351 50.5336C117.74 50.5336 118.058 50.4616 118.303 50.3176C118.554 50.1683 118.679 49.9683 118.679 49.7176C118.679 49.4936 118.578 49.3203 118.375 49.1976C118.172 49.0696 117.895 49.0056 117.543 49.0056H116.823V48.5896H117.511C117.826 48.5896 118.079 48.531 118.271 48.4136C118.463 48.291 118.559 48.1283 118.559 47.9256C118.559 47.7016 118.45 47.5256 118.231 47.3976C118.018 47.2696 117.738 47.2056 117.391 47.2056C116.938 47.2056 116.49 47.3203 116.047 47.5496L115.887 47.1096C116.388 46.8483 116.908 46.7176 117.447 46.7176C117.767 46.7176 118.055 46.7656 118.311 46.8616C118.572 46.9523 118.775 47.083 118.919 47.2536C119.068 47.4243 119.143 47.6216 119.143 47.8456C119.143 48.059 119.068 48.2483 118.919 48.4136C118.775 48.579 118.578 48.7016 118.327 48.7816ZM122 46.7336C122.55 46.7336 122.971 46.8723 123.264 47.1496C123.558 47.4216 123.704 47.827 123.704 48.3656V50.9736H123.16V50.3176C123.032 50.5363 122.843 50.707 122.592 50.8296C122.347 50.9523 122.054 51.0136 121.712 51.0136C121.243 51.0136 120.87 50.9016 120.592 50.6776C120.315 50.4536 120.176 50.1576 120.176 49.7896C120.176 49.4323 120.304 49.1443 120.56 48.9256C120.822 48.707 121.235 48.5976 121.8 48.5976H123.136V48.3416C123.136 47.979 123.035 47.7043 122.832 47.5176C122.63 47.3256 122.334 47.2296 121.944 47.2296C121.678 47.2296 121.422 47.275 121.176 47.3656C120.931 47.451 120.72 47.571 120.544 47.7256L120.288 47.3016C120.502 47.1203 120.758 46.9816 121.056 46.8856C121.355 46.7843 121.67 46.7336 122 46.7336ZM121.8 50.5656C122.12 50.5656 122.395 50.4936 122.624 50.3496C122.854 50.2003 123.024 49.987 123.136 49.7096V49.0216H121.816C121.096 49.0216 120.736 49.2723 120.736 49.7736C120.736 50.019 120.83 50.2136 121.016 50.3576C121.203 50.4963 121.464 50.5656 121.8 50.5656ZM129.6 50.4776V52.0296H129.064V50.9736H125.216V46.7656H125.784V50.4776H128.352V46.7656H128.92V50.4776H129.6ZM130.685 46.7656H131.253V50.1096L134.061 46.7656H134.565V50.9736H133.997V47.6296L131.197 50.9736H130.685V46.7656ZM139.425 46.7656V50.9736H138.905V49.5816H137.585H137.425L136.449 50.9736H135.833L136.881 49.5016C136.556 49.411 136.305 49.2563 136.129 49.0376C135.953 48.819 135.865 48.5416 135.865 48.2056C135.865 47.7363 136.025 47.379 136.345 47.1336C136.665 46.8883 137.102 46.7656 137.657 46.7656H139.425ZM136.441 48.2216C136.441 48.8456 136.838 49.1576 137.633 49.1576H138.905V47.2696H137.673C136.852 47.2696 136.441 47.587 136.441 48.2216ZM146.914 46.7656V50.9736H146.346V47.2696H143.706V50.9736H143.138V46.7656H146.914ZM150.265 51.0136C149.86 51.0136 149.494 50.923 149.169 50.7416C148.844 50.555 148.588 50.299 148.401 49.9736C148.214 49.6483 148.121 49.2803 148.121 48.8696C148.121 48.459 148.214 48.091 148.401 47.7656C148.588 47.4403 148.844 47.187 149.169 47.0056C149.494 46.8243 149.86 46.7336 150.265 46.7336C150.67 46.7336 151.036 46.8243 151.361 47.0056C151.686 47.187 151.94 47.4403 152.121 47.7656C152.308 48.091 152.401 48.459 152.401 48.8696C152.401 49.2803 152.308 49.6483 152.121 49.9736C151.94 50.299 151.686 50.555 151.361 50.7416C151.036 50.923 150.67 51.0136 150.265 51.0136ZM150.265 50.5096C150.564 50.5096 150.83 50.443 151.065 50.3096C151.305 50.171 151.492 49.9763 151.625 49.7256C151.758 49.475 151.825 49.1896 151.825 48.8696C151.825 48.5496 151.758 48.2643 151.625 48.0136C151.492 47.763 151.305 47.571 151.065 47.4376C150.83 47.299 150.564 47.2296 150.265 47.2296C149.966 47.2296 149.697 47.299 149.457 47.4376C149.222 47.571 149.036 47.763 148.897 48.0136C148.764 48.2643 148.697 48.5496 148.697 48.8696C148.697 49.1896 148.764 49.475 148.897 49.7256C149.036 49.9763 149.222 50.171 149.457 50.3096C149.697 50.443 149.966 50.5096 150.265 50.5096ZM156.098 50.9736L154.762 49.2136L153.418 50.9736H152.778L154.442 48.8136L152.858 46.7656H153.498L154.762 48.4136L156.026 46.7656H156.65L155.066 48.8136L156.746 50.9736H156.098ZM159.265 51.0136C158.86 51.0136 158.494 50.923 158.169 50.7416C157.844 50.555 157.588 50.299 157.401 49.9736C157.214 49.6483 157.121 49.2803 157.121 48.8696C157.121 48.459 157.214 48.091 157.401 47.7656C157.588 47.4403 157.844 47.187 158.169 47.0056C158.494 46.8243 158.86 46.7336 159.265 46.7336C159.67 46.7336 160.036 46.8243 160.361 47.0056C160.686 47.187 160.94 47.4403 161.121 47.7656C161.308 48.091 161.401 48.459 161.401 48.8696C161.401 49.2803 161.308 49.6483 161.121 49.9736C160.94 50.299 160.686 50.555 160.361 50.7416C160.036 50.923 159.67 51.0136 159.265 51.0136ZM159.265 50.5096C159.564 50.5096 159.83 50.443 160.065 50.3096C160.305 50.171 160.492 49.9763 160.625 49.7256C160.758 49.475 160.825 49.1896 160.825 48.8696C160.825 48.5496 160.758 48.2643 160.625 48.0136C160.492 47.763 160.305 47.571 160.065 47.4376C159.83 47.299 159.564 47.2296 159.265 47.2296C158.966 47.2296 158.697 47.299 158.457 47.4376C158.222 47.571 158.036 47.763 157.897 48.0136C157.764 48.2643 157.697 48.5496 157.697 48.8696C157.697 49.1896 157.764 49.475 157.897 49.7256C158.036 49.9763 158.222 50.171 158.457 50.3096C158.697 50.443 158.966 50.5096 159.265 50.5096ZM166.695 50.4776V51.9896H166.159V50.9736H162.391V51.9896H161.855V50.4776H162.095C162.378 50.4616 162.57 50.2536 162.671 49.8536C162.773 49.4536 162.842 48.8936 162.879 48.1736L162.935 46.7656H166.039V50.4776H166.695ZM163.399 48.2056C163.373 48.803 163.322 49.2963 163.247 49.6856C163.173 50.0696 163.039 50.3336 162.847 50.4776H165.471V47.2696H163.447L163.399 48.2056ZM169.538 51.0136C169.133 51.0136 168.768 50.923 168.442 50.7416C168.117 50.555 167.861 50.299 167.674 49.9736C167.488 49.6483 167.394 49.2803 167.394 48.8696C167.394 48.459 167.488 48.091 167.674 47.7656C167.861 47.4403 168.117 47.187 168.442 47.0056C168.768 46.8243 169.133 46.7336 169.538 46.7336C169.944 46.7336 170.309 46.8243 170.634 47.0056C170.96 47.187 171.213 47.4403 171.394 47.7656C171.581 48.091 171.674 48.459 171.674 48.8696C171.674 49.2803 171.581 49.6483 171.394 49.9736C171.213 50.299 170.96 50.555 170.634 50.7416C170.309 50.923 169.944 51.0136 169.538 51.0136ZM169.538 50.5096C169.837 50.5096 170.104 50.443 170.338 50.3096C170.578 50.171 170.765 49.9763 170.898 49.7256C171.032 49.475 171.098 49.1896 171.098 48.8696C171.098 48.5496 171.032 48.2643 170.898 48.0136C170.765 47.763 170.578 47.571 170.338 47.4376C170.104 47.299 169.837 47.2296 169.538 47.2296C169.24 47.2296 168.97 47.299 168.73 47.4376C168.496 47.571 168.309 47.763 168.17 48.0136C168.037 48.2643 167.97 48.5496 167.97 48.8696C167.97 49.1896 168.037 49.475 168.17 49.7256C168.309 49.9763 168.496 50.171 168.73 50.3096C168.97 50.443 169.24 50.5096 169.538 50.5096ZM175.568 48.7976C176.139 48.931 176.424 49.275 176.424 49.8296C176.424 50.1976 176.288 50.4803 176.016 50.6776C175.744 50.875 175.339 50.9736 174.8 50.9736H172.888V46.7656H174.744C175.224 46.7656 175.6 46.859 175.872 47.0456C176.144 47.2323 176.28 47.499 176.28 47.8456C176.28 48.075 176.216 48.2723 176.088 48.4376C175.966 48.5976 175.792 48.7176 175.568 48.7976ZM173.44 48.6376H174.704C175.03 48.6376 175.278 48.5763 175.448 48.4536C175.624 48.331 175.712 48.1523 175.712 47.9176C175.712 47.683 175.624 47.507 175.448 47.3896C175.278 47.2723 175.03 47.2136 174.704 47.2136H173.44V48.6376ZM174.776 50.5256C175.139 50.5256 175.411 50.467 175.592 50.3496C175.774 50.2323 175.864 50.0483 175.864 49.7976C175.864 49.547 175.782 49.363 175.616 49.2456C175.451 49.123 175.19 49.0616 174.832 49.0616H173.44V50.5256H174.776ZM182.529 48.7976C183.1 48.931 183.385 49.275 183.385 49.8296C183.385 50.1976 183.249 50.4803 182.977 50.6776C182.705 50.875 182.3 50.9736 181.761 50.9736H179.849V46.7656H181.705C182.185 46.7656 182.561 46.859 182.833 47.0456C183.105 47.2323 183.241 47.499 183.241 47.8456C183.241 48.075 183.177 48.2723 183.049 48.4376C182.927 48.5976 182.753 48.7176 182.529 48.7976ZM180.401 48.6376H181.665C181.991 48.6376 182.239 48.5763 182.409 48.4536C182.585 48.331 182.673 48.1523 182.673 47.9176C182.673 47.683 182.585 47.507 182.409 47.3896C182.239 47.2723 181.991 47.2136 181.665 47.2136H180.401V48.6376ZM181.737 50.5256C182.1 50.5256 182.372 50.467 182.553 50.3496C182.735 50.2323 182.825 50.0483 182.825 49.7976C182.825 49.547 182.743 49.363 182.577 49.2456C182.412 49.123 182.151 49.0616 181.793 49.0616H180.401V50.5256H181.737ZM189.786 47.2696H187.378V50.9736H186.81V46.7656H189.786V47.2696ZM192.148 51.0136C191.742 51.0136 191.377 50.923 191.052 50.7416C190.726 50.555 190.47 50.299 190.284 49.9736C190.097 49.6483 190.004 49.2803 190.004 48.8696C190.004 48.459 190.097 48.091 190.284 47.7656C190.47 47.4403 190.726 47.187 191.052 47.0056C191.377 46.8243 191.742 46.7336 192.148 46.7336C192.553 46.7336 192.918 46.8243 193.244 47.0056C193.569 47.187 193.822 47.4403 194.004 47.7656C194.19 48.091 194.284 48.459 194.284 48.8696C194.284 49.2803 194.19 49.6483 194.004 49.9736C193.822 50.299 193.569 50.555 193.244 50.7416C192.918 50.923 192.553 51.0136 192.148 51.0136ZM192.148 50.5096C192.446 50.5096 192.713 50.443 192.948 50.3096C193.188 50.171 193.374 49.9763 193.508 49.7256C193.641 49.475 193.708 49.1896 193.708 48.8696C193.708 48.5496 193.641 48.2643 193.508 48.0136C193.374 47.763 193.188 47.571 192.948 47.4376C192.713 47.299 192.446 47.2296 192.148 47.2296C191.849 47.2296 191.58 47.299 191.34 47.4376C191.105 47.571 190.918 47.763 190.78 48.0136C190.646 48.2643 190.58 48.5496 190.58 48.8696C190.58 49.1896 190.646 49.475 190.78 49.7256C190.918 49.9763 191.105 50.171 191.34 50.3096C191.58 50.443 191.849 50.5096 192.148 50.5096ZM197.666 46.7336C198.06 46.7336 198.418 46.8243 198.738 47.0056C199.058 47.1816 199.308 47.4323 199.49 47.7576C199.671 48.083 199.762 48.4536 199.762 48.8696C199.762 49.291 199.671 49.6643 199.49 49.9896C199.308 50.315 199.058 50.5683 198.738 50.7496C198.423 50.9256 198.066 51.0136 197.666 51.0136C197.324 51.0136 197.015 50.9443 196.738 50.8056C196.466 50.6616 196.242 50.4536 196.066 50.1816V52.5256H195.498V46.7656H196.042V47.5976C196.212 47.3203 196.436 47.107 196.714 46.9576C196.996 46.8083 197.314 46.7336 197.666 46.7336ZM197.626 50.5096C197.919 50.5096 198.186 50.443 198.426 50.3096C198.666 50.171 198.852 49.9763 198.986 49.7256C199.124 49.475 199.194 49.1896 199.194 48.8696C199.194 48.5496 199.124 48.267 198.986 48.0216C198.852 47.771 198.666 47.5763 198.426 47.4376C198.186 47.299 197.919 47.2296 197.626 47.2296C197.327 47.2296 197.058 47.299 196.818 47.4376C196.583 47.5763 196.396 47.771 196.258 48.0216C196.124 48.267 196.058 48.5496 196.058 48.8696C196.058 49.1896 196.124 49.475 196.258 49.7256C196.396 49.9763 196.583 50.171 196.818 50.3096C197.058 50.443 197.327 50.5096 197.626 50.5096ZM202.75 48.2536C203.278 48.259 203.681 48.3763 203.958 48.6056C204.235 48.835 204.374 49.1656 204.374 49.5976C204.374 50.0456 204.225 50.3896 203.926 50.6296C203.627 50.8696 203.201 50.987 202.646 50.9816L200.982 50.9736V46.7656H201.55V48.2376L202.75 48.2536ZM205.078 46.7656H205.646V50.9736H205.078V46.7656ZM202.614 50.5496C203.003 50.555 203.297 50.4776 203.494 50.3176C203.697 50.1523 203.798 49.9123 203.798 49.5976C203.798 49.2883 203.699 49.059 203.502 48.9096C203.305 48.7603 203.009 48.683 202.614 48.6776L201.55 48.6616V50.5336L202.614 50.5496Z" fill="#2D383F"/>
<defs>
<clipPath id="clip0_2_1014">
<rect width="61.8683" height="61.8683" fill="white"/>
</clipPath>
</defs>
</svg>
